<svg xmlns="http://www.w3.org/2000/svg" xmlns:xlink="http://www.w3.org/1999/xlink" width="600" height="400" viewBox="0 0 2400 1600">
<defs>
  <clipPath id="clip290">
    <rect x="0" y="0" width="2400" height="1600"></rect>
  </clipPath>
</defs>
<path clip-path="url(#clip290)" d="M0 1600 L2400 1600 L2400 0 L0 0  Z" fill="#ffffff" fill-rule="evenodd" fill-opacity="1"></path>
<defs>
  <clipPath id="clip291">
    <rect x="480" y="0" width="1681" height="1600"></rect>
  </clipPath>
</defs>
<path clip-path="url(#clip290)" d="M287.366 1423.18 L1152.76 1423.18 L1152.76 47.2441 L287.366 47.2441  Z" fill="#ffffff" fill-rule="evenodd" fill-opacity="1"></path>
<defs>
  <clipPath id="clip292">
    <rect x="287" y="47" width="866" height="1377"></rect>
  </clipPath>
</defs>
<polyline clip-path="url(#clip292)" style="stroke:#000000; stroke-linecap:round; stroke-linejoin:round; stroke-width:2; stroke-opacity:0.1; fill:none" points="342.882,1423.18 342.882,47.2441 "></polyline>
<polyline clip-path="url(#clip292)" style="stroke:#000000; stroke-linecap:round; stroke-linejoin:round; stroke-width:2; stroke-opacity:0.1; fill:none" points="478.484,1423.18 478.484,47.2441 "></polyline>
<polyline clip-path="url(#clip292)" style="stroke:#000000; stroke-linecap:round; stroke-linejoin:round; stroke-width:2; stroke-opacity:0.1; fill:none" points="614.086,1423.18 614.086,47.2441 "></polyline>
<polyline clip-path="url(#clip292)" style="stroke:#000000; stroke-linecap:round; stroke-linejoin:round; stroke-width:2; stroke-opacity:0.1; fill:none" points="749.688,1423.18 749.688,47.2441 "></polyline>
<polyline clip-path="url(#clip292)" style="stroke:#000000; stroke-linecap:round; stroke-linejoin:round; stroke-width:2; stroke-opacity:0.1; fill:none" points="885.29,1423.18 885.29,47.2441 "></polyline>
<polyline clip-path="url(#clip292)" style="stroke:#000000; stroke-linecap:round; stroke-linejoin:round; stroke-width:2; stroke-opacity:0.1; fill:none" points="1020.89,1423.18 1020.89,47.2441 "></polyline>
<polyline clip-path="url(#clip292)" style="stroke:#000000; stroke-linecap:round; stroke-linejoin:round; stroke-width:2; stroke-opacity:0.1; fill:none" points="287.366,1247.47 1152.76,1247.47 "></polyline>
<polyline clip-path="url(#clip292)" style="stroke:#000000; stroke-linecap:round; stroke-linejoin:round; stroke-width:2; stroke-opacity:0.1; fill:none" points="287.366,977.971 1152.76,977.971 "></polyline>
<polyline clip-path="url(#clip292)" style="stroke:#000000; stroke-linecap:round; stroke-linejoin:round; stroke-width:2; stroke-opacity:0.1; fill:none" points="287.366,708.468 1152.76,708.468 "></polyline>
<polyline clip-path="url(#clip292)" style="stroke:#000000; stroke-linecap:round; stroke-linejoin:round; stroke-width:2; stroke-opacity:0.1; fill:none" points="287.366,438.966 1152.76,438.966 "></polyline>
<polyline clip-path="url(#clip292)" style="stroke:#000000; stroke-linecap:round; stroke-linejoin:round; stroke-width:2; stroke-opacity:0.1; fill:none" points="287.366,169.464 1152.76,169.464 "></polyline>
<polyline clip-path="url(#clip290)" style="stroke:#000000; stroke-linecap:round; stroke-linejoin:round; stroke-width:4; stroke-opacity:1; fill:none" points="287.366,1423.18 1152.76,1423.18 "></polyline>
<polyline clip-path="url(#clip290)" style="stroke:#000000; stroke-linecap:round; stroke-linejoin:round; stroke-width:4; stroke-opacity:1; fill:none" points="342.882,1423.18 342.882,1404.28 "></polyline>
<polyline clip-path="url(#clip290)" style="stroke:#000000; stroke-linecap:round; stroke-linejoin:round; stroke-width:4; stroke-opacity:1; fill:none" points="478.484,1423.18 478.484,1404.28 "></polyline>
<polyline clip-path="url(#clip290)" style="stroke:#000000; stroke-linecap:round; stroke-linejoin:round; stroke-width:4; stroke-opacity:1; fill:none" points="614.086,1423.18 614.086,1404.28 "></polyline>
<polyline clip-path="url(#clip290)" style="stroke:#000000; stroke-linecap:round; stroke-linejoin:round; stroke-width:4; stroke-opacity:1; fill:none" points="749.688,1423.18 749.688,1404.28 "></polyline>
<polyline clip-path="url(#clip290)" style="stroke:#000000; stroke-linecap:round; stroke-linejoin:round; stroke-width:4; stroke-opacity:1; fill:none" points="885.29,1423.18 885.29,1404.28 "></polyline>
<polyline clip-path="url(#clip290)" style="stroke:#000000; stroke-linecap:round; stroke-linejoin:round; stroke-width:4; stroke-opacity:1; fill:none" points="1020.89,1423.18 1020.89,1404.28 "></polyline>
<path clip-path="url(#clip290)" d="M310.533 1481.64 L318.172 1481.64 L318.172 1455.28 L309.861 1456.95 L309.861 1452.69 L318.125 1451.02 L322.801 1451.02 L322.801 1481.64 L330.44 1481.64 L330.44 1485.58 L310.533 1485.58 L310.533 1481.64 Z" fill="#000000" fill-rule="nonzero" fill-opacity="1"></path><path clip-path="url(#clip290)" d="M339.884 1479.7 L344.769 1479.7 L344.769 1485.58 L339.884 1485.58 L339.884 1479.7 Z" fill="#000000" fill-rule="nonzero" fill-opacity="1"></path><path clip-path="url(#clip290)" d="M355 1451.02 L373.356 1451.02 L373.356 1454.96 L359.282 1454.96 L359.282 1463.43 Q360.301 1463.08 361.32 1462.92 Q362.338 1462.73 363.357 1462.73 Q369.144 1462.73 372.523 1465.9 Q375.903 1469.08 375.903 1474.49 Q375.903 1480.07 372.431 1483.17 Q368.958 1486.25 362.639 1486.25 Q360.463 1486.25 358.195 1485.88 Q355.949 1485.51 353.542 1484.77 L353.542 1480.07 Q355.625 1481.2 357.847 1481.76 Q360.07 1482.32 362.546 1482.32 Q366.551 1482.32 368.889 1480.21 Q371.227 1478.1 371.227 1474.49 Q371.227 1470.88 368.889 1468.77 Q366.551 1466.67 362.546 1466.67 Q360.671 1466.67 358.796 1467.08 Q356.945 1467.5 355 1468.38 L355 1451.02 Z" fill="#000000" fill-rule="nonzero" fill-opacity="1"></path><path clip-path="url(#clip290)" d="M445.556 1481.64 L453.195 1481.64 L453.195 1455.28 L444.885 1456.95 L444.885 1452.69 L453.149 1451.02 L457.825 1451.02 L457.825 1481.64 L465.463 1481.64 L465.463 1485.58 L445.556 1485.58 L445.556 1481.64 Z" fill="#000000" fill-rule="nonzero" fill-opacity="1"></path><path clip-path="url(#clip290)" d="M474.908 1479.7 L479.792 1479.7 L479.792 1485.58 L474.908 1485.58 L474.908 1479.7 Z" fill="#000000" fill-rule="nonzero" fill-opacity="1"></path><path clip-path="url(#clip290)" d="M500.556 1466.44 Q497.408 1466.44 495.556 1468.59 Q493.727 1470.74 493.727 1474.49 Q493.727 1478.22 495.556 1480.39 Q497.408 1482.55 500.556 1482.55 Q503.704 1482.55 505.533 1480.39 Q507.384 1478.22 507.384 1474.49 Q507.384 1470.74 505.533 1468.59 Q503.704 1466.44 500.556 1466.44 M509.838 1451.78 L509.838 1456.04 Q508.079 1455.21 506.273 1454.77 Q504.491 1454.33 502.732 1454.33 Q498.102 1454.33 495.648 1457.45 Q493.218 1460.58 492.871 1466.9 Q494.236 1464.89 496.297 1463.82 Q498.357 1462.73 500.834 1462.73 Q506.042 1462.73 509.051 1465.9 Q512.084 1469.05 512.084 1474.49 Q512.084 1479.82 508.935 1483.03 Q505.787 1486.25 500.556 1486.25 Q494.56 1486.25 491.389 1481.67 Q488.218 1477.06 488.218 1468.33 Q488.218 1460.14 492.107 1455.28 Q495.996 1450.39 502.547 1450.39 Q504.306 1450.39 506.088 1450.74 Q507.894 1451.09 509.838 1451.78 Z" fill="#000000" fill-rule="nonzero" fill-opacity="1"></path><path clip-path="url(#clip290)" d="M581.691 1481.64 L589.329 1481.64 L589.329 1455.28 L581.019 1456.95 L581.019 1452.69 L589.283 1451.02 L593.959 1451.02 L593.959 1481.64 L601.598 1481.64 L601.598 1485.58 L581.691 1485.58 L581.691 1481.64 Z" fill="#000000" fill-rule="nonzero" fill-opacity="1"></path><path clip-path="url(#clip290)" d="M611.042 1479.7 L615.926 1479.7 L615.926 1485.58 L611.042 1485.58 L611.042 1479.7 Z" fill="#000000" fill-rule="nonzero" fill-opacity="1"></path><path clip-path="url(#clip290)" d="M624.931 1451.02 L647.153 1451.02 L647.153 1453.01 L634.607 1485.58 L629.723 1485.58 L641.528 1454.96 L624.931 1454.96 L624.931 1451.02 Z" fill="#000000" fill-rule="nonzero" fill-opacity="1"></path><path clip-path="url(#clip290)" d="M716.888 1481.64 L724.526 1481.64 L724.526 1455.28 L716.216 1456.95 L716.216 1452.69 L724.48 1451.02 L729.156 1451.02 L729.156 1481.64 L736.795 1481.64 L736.795 1485.58 L716.888 1485.58 L716.888 1481.64 Z" fill="#000000" fill-rule="nonzero" fill-opacity="1"></path><path clip-path="url(#clip290)" d="M746.239 1479.7 L751.123 1479.7 L751.123 1485.58 L746.239 1485.58 L746.239 1479.7 Z" fill="#000000" fill-rule="nonzero" fill-opacity="1"></path><path clip-path="url(#clip290)" d="M771.309 1469.17 Q767.975 1469.17 766.054 1470.95 Q764.156 1472.73 764.156 1475.86 Q764.156 1478.98 766.054 1480.77 Q767.975 1482.55 771.309 1482.55 Q774.642 1482.55 776.563 1480.77 Q778.484 1478.96 778.484 1475.86 Q778.484 1472.73 776.563 1470.95 Q774.665 1469.17 771.309 1469.17 M766.633 1467.18 Q763.623 1466.44 761.934 1464.38 Q760.267 1462.32 760.267 1459.35 Q760.267 1455.21 763.207 1452.8 Q766.17 1450.39 771.309 1450.39 Q776.471 1450.39 779.41 1452.8 Q782.35 1455.21 782.35 1459.35 Q782.35 1462.32 780.66 1464.38 Q778.994 1466.44 776.008 1467.18 Q779.387 1467.96 781.262 1470.26 Q783.16 1472.55 783.16 1475.86 Q783.16 1480.88 780.082 1483.57 Q777.026 1486.25 771.309 1486.25 Q765.591 1486.25 762.512 1483.57 Q759.457 1480.88 759.457 1475.86 Q759.457 1472.55 761.355 1470.26 Q763.253 1467.96 766.633 1467.18 M764.92 1459.79 Q764.92 1462.48 766.586 1463.98 Q768.276 1465.49 771.309 1465.49 Q774.318 1465.49 776.008 1463.98 Q777.721 1462.48 777.721 1459.79 Q777.721 1457.11 776.008 1455.6 Q774.318 1454.1 771.309 1454.1 Q768.276 1454.1 766.586 1455.6 Q764.92 1457.11 764.92 1459.79 Z" fill="#000000" fill-rule="nonzero" fill-opacity="1"></path><path clip-path="url(#clip290)" d="M852.536 1481.64 L860.175 1481.64 L860.175 1455.28 L851.865 1456.95 L851.865 1452.69 L860.128 1451.02 L864.804 1451.02 L864.804 1481.64 L872.443 1481.64 L872.443 1485.58 L852.536 1485.58 L852.536 1481.64 Z" fill="#000000" fill-rule="nonzero" fill-opacity="1"></path><path clip-path="url(#clip290)" d="M881.888 1479.7 L886.772 1479.7 L886.772 1485.58 L881.888 1485.58 L881.888 1479.7 Z" fill="#000000" fill-rule="nonzero" fill-opacity="1"></path><path clip-path="url(#clip290)" d="M897.096 1484.86 L897.096 1480.6 Q898.855 1481.44 900.661 1481.88 Q902.466 1482.32 904.202 1482.32 Q908.832 1482.32 911.262 1479.21 Q913.716 1476.09 914.063 1469.75 Q912.721 1471.74 910.661 1472.8 Q908.6 1473.87 906.1 1473.87 Q900.915 1473.87 897.883 1470.74 Q894.874 1467.59 894.874 1462.15 Q894.874 1456.83 898.022 1453.61 Q901.17 1450.39 906.401 1450.39 Q912.397 1450.39 915.545 1455 Q918.716 1459.58 918.716 1468.33 Q918.716 1476.51 914.827 1481.39 Q910.961 1486.25 904.411 1486.25 Q902.651 1486.25 900.846 1485.9 Q899.04 1485.56 897.096 1484.86 M906.401 1470.21 Q909.549 1470.21 911.378 1468.06 Q913.23 1465.9 913.23 1462.15 Q913.23 1458.43 911.378 1456.27 Q909.549 1454.1 906.401 1454.1 Q903.253 1454.1 901.401 1456.27 Q899.573 1458.43 899.573 1462.15 Q899.573 1465.9 901.401 1468.06 Q903.253 1470.21 906.401 1470.21 Z" fill="#000000" fill-rule="nonzero" fill-opacity="1"></path><path clip-path="url(#clip290)" d="M992.131 1481.64 L1008.45 1481.64 L1008.45 1485.58 L986.506 1485.58 L986.506 1481.64 Q989.168 1478.89 993.751 1474.26 Q998.358 1469.61 999.538 1468.27 Q1001.78 1465.74 1002.66 1464.01 Q1003.57 1462.25 1003.57 1460.56 Q1003.57 1457.8 1001.62 1456.07 Q999.7 1454.33 996.598 1454.33 Q994.399 1454.33 991.946 1455.09 Q989.515 1455.86 986.737 1457.41 L986.737 1452.69 Q989.561 1451.55 992.015 1450.97 Q994.469 1450.39 996.506 1450.39 Q1001.88 1450.39 1005.07 1453.08 Q1008.27 1455.77 1008.27 1460.26 Q1008.27 1462.39 1007.45 1464.31 Q1006.67 1466.2 1004.56 1468.8 Q1003.98 1469.47 1000.88 1472.69 Q997.779 1475.88 992.131 1481.64 Z" fill="#000000" fill-rule="nonzero" fill-opacity="1"></path><path clip-path="url(#clip290)" d="M1018.27 1479.7 L1023.15 1479.7 L1023.15 1485.58 L1018.27 1485.58 L1018.27 1479.7 Z" fill="#000000" fill-rule="nonzero" fill-opacity="1"></path><path clip-path="url(#clip290)" d="M1043.33 1454.1 Q1039.72 1454.1 1037.89 1457.66 Q1036.09 1461.2 1036.09 1468.33 Q1036.09 1475.44 1037.89 1479.01 Q1039.72 1482.55 1043.33 1482.55 Q1046.97 1482.55 1048.77 1479.01 Q1050.6 1475.44 1050.6 1468.33 Q1050.6 1461.2 1048.77 1457.66 Q1046.97 1454.1 1043.33 1454.1 M1043.33 1450.39 Q1049.14 1450.39 1052.2 1455 Q1055.28 1459.58 1055.28 1468.33 Q1055.28 1477.06 1052.2 1481.67 Q1049.14 1486.25 1043.33 1486.25 Q1037.52 1486.25 1034.45 1481.67 Q1031.39 1477.06 1031.39 1468.33 Q1031.39 1459.58 1034.45 1455 Q1037.52 1450.39 1043.33 1450.39 Z" fill="#000000" fill-rule="nonzero" fill-opacity="1"></path><path clip-path="url(#clip290)" d="M551.386 1518.52 L557.242 1518.52 L557.242 1568.04 L551.386 1568.04 L551.386 1518.52 Z" fill="#000000" fill-rule="nonzero" fill-opacity="1"></path><path clip-path="url(#clip290)" d="M583.31 1536.5 Q578.599 1536.5 575.862 1540.19 Q573.124 1543.85 573.124 1550.25 Q573.124 1556.65 575.83 1560.34 Q578.567 1564 583.31 1564 Q587.988 1564 590.726 1560.31 Q593.463 1556.62 593.463 1550.25 Q593.463 1543.92 590.726 1540.23 Q587.988 1536.5 583.31 1536.5 M583.31 1531.54 Q590.948 1531.54 595.309 1536.5 Q599.669 1541.47 599.669 1550.25 Q599.669 1559 595.309 1564 Q590.948 1568.97 583.31 1568.97 Q575.639 1568.97 571.278 1564 Q566.95 1559 566.95 1550.25 Q566.95 1541.47 571.278 1536.5 Q575.639 1531.54 583.31 1531.54 Z" fill="#000000" fill-rule="nonzero" fill-opacity="1"></path><path clip-path="url(#clip290)" d="M632.835 1549.81 Q632.835 1543.44 630.193 1539.94 Q627.583 1536.44 622.841 1536.44 Q618.13 1536.44 615.488 1539.94 Q612.878 1543.44 612.878 1549.81 Q612.878 1556.14 615.488 1559.64 Q618.13 1563.14 622.841 1563.14 Q627.583 1563.14 630.193 1559.64 Q632.835 1556.14 632.835 1549.81 M638.691 1563.62 Q638.691 1572.72 634.649 1577.15 Q630.607 1581.6 622.268 1581.6 Q619.18 1581.6 616.443 1581.13 Q613.706 1580.68 611.128 1579.72 L611.128 1574.03 Q613.706 1575.43 616.22 1576.1 Q618.735 1576.76 621.345 1576.76 Q627.106 1576.76 629.97 1573.74 Q632.835 1570.75 632.835 1564.67 L632.835 1561.77 Q631.021 1564.92 628.188 1566.48 Q625.355 1568.04 621.408 1568.04 Q614.852 1568.04 610.841 1563.05 Q606.831 1558.05 606.831 1549.81 Q606.831 1541.53 610.841 1536.53 Q614.852 1531.54 621.408 1531.54 Q625.355 1531.54 628.188 1533.1 Q631.021 1534.66 632.835 1537.81 L632.835 1532.4 L638.691 1532.4 L638.691 1563.62 Z" fill="#000000" fill-rule="nonzero" fill-opacity="1"></path><path clip-path="url(#clip290)" d="M649.577 1564.54 L656.07 1564.54 L656.07 1545.1 L648.972 1546.4 L648.972 1542.71 L656.292 1541.47 L660.653 1541.47 L660.653 1564.54 L667.178 1564.54 L667.178 1568.04 L649.577 1568.04 L649.577 1564.54 Z" fill="#000000" fill-rule="nonzero" fill-opacity="1"></path><path clip-path="url(#clip290)" d="M688.885 1546.5 Q687.293 1543.76 684.079 1543.76 Q680.864 1543.76 679.273 1546.5 Q677.649 1549.23 677.649 1554.71 Q677.649 1560.21 679.273 1562.95 Q680.864 1565.69 684.079 1565.69 Q687.293 1565.69 688.885 1562.95 Q690.508 1560.21 690.508 1554.71 Q690.508 1549.23 688.885 1546.5 M684.079 1540.93 Q689.203 1540.93 691.909 1544.46 Q694.614 1547.99 694.614 1554.71 Q694.614 1561.46 691.909 1564.99 Q689.203 1568.52 684.079 1568.52 Q678.923 1568.52 676.217 1564.99 Q673.512 1561.46 673.512 1554.71 Q673.512 1547.99 676.217 1544.46 Q678.923 1540.93 684.079 1540.93 Z" fill="#000000" fill-rule="nonzero" fill-opacity="1"></path><path clip-path="url(#clip290)" d="M717.085 1518.58 Q712.82 1525.9 710.751 1533.06 Q708.682 1540.23 708.682 1547.58 Q708.682 1554.93 710.751 1562.16 Q712.852 1569.35 717.085 1576.64 L711.992 1576.64 Q707.218 1569.16 704.831 1561.93 Q702.476 1554.71 702.476 1547.58 Q702.476 1540.48 704.831 1533.29 Q707.186 1526.09 711.992 1518.58 L717.085 1518.58 Z" fill="#000000" fill-rule="nonzero" fill-opacity="1"></path><path clip-path="url(#clip290)" d="M730.389 1562.63 L740.893 1562.63 L740.893 1526.38 L729.466 1528.67 L729.466 1522.82 L740.829 1520.52 L747.258 1520.52 L747.258 1562.63 L757.762 1562.63 L757.762 1568.04 L730.389 1568.04 L730.389 1562.63 Z" fill="#000000" fill-rule="nonzero" fill-opacity="1"></path><path clip-path="url(#clip290)" d="M780.328 1520.52 L785.739 1520.52 L769.188 1574.09 L763.777 1574.09 L780.328 1520.52 Z" fill="#000000" fill-rule="nonzero" fill-opacity="1"></path><path clip-path="url(#clip290)" d="M808.019 1526.86 L794.969 1562.7 L821.101 1562.7 L808.019 1526.86 M786.248 1568.04 L804.391 1520.52 L811.679 1520.52 L829.79 1568.04 L786.248 1568.04 Z" fill="#000000" fill-rule="nonzero" fill-opacity="1"></path><path clip-path="url(#clip290)" d="M866.106 1532.4 L853.216 1549.74 L866.775 1568.04 L859.868 1568.04 L849.492 1554.04 L839.116 1568.04 L832.209 1568.04 L846.054 1549.39 L833.386 1532.4 L840.293 1532.4 L849.746 1545.1 L859.199 1532.4 L866.106 1532.4 Z" fill="#000000" fill-rule="nonzero" fill-opacity="1"></path><path clip-path="url(#clip290)" d="M874.127 1518.58 L879.219 1518.58 Q883.994 1526.09 886.349 1533.29 Q888.736 1540.48 888.736 1547.58 Q888.736 1554.71 886.349 1561.93 Q883.994 1569.16 879.219 1576.64 L874.127 1576.64 Q878.36 1569.35 880.429 1562.16 Q882.53 1554.93 882.53 1547.58 Q882.53 1540.23 880.429 1533.06 Q878.36 1525.9 874.127 1518.58 Z" fill="#000000" fill-rule="nonzero" fill-opacity="1"></path><polyline clip-path="url(#clip290)" style="stroke:#000000; stroke-linecap:round; stroke-linejoin:round; stroke-width:4; stroke-opacity:1; fill:none" points="287.366,1423.18 287.366,47.2441 "></polyline>
<polyline clip-path="url(#clip290)" style="stroke:#000000; stroke-linecap:round; stroke-linejoin:round; stroke-width:4; stroke-opacity:1; fill:none" points="287.366,1247.47 306.264,1247.47 "></polyline>
<polyline clip-path="url(#clip290)" style="stroke:#000000; stroke-linecap:round; stroke-linejoin:round; stroke-width:4; stroke-opacity:1; fill:none" points="287.366,977.971 306.264,977.971 "></polyline>
<polyline clip-path="url(#clip290)" style="stroke:#000000; stroke-linecap:round; stroke-linejoin:round; stroke-width:4; stroke-opacity:1; fill:none" points="287.366,708.468 306.264,708.468 "></polyline>
<polyline clip-path="url(#clip290)" style="stroke:#000000; stroke-linecap:round; stroke-linejoin:round; stroke-width:4; stroke-opacity:1; fill:none" points="287.366,438.966 306.264,438.966 "></polyline>
<polyline clip-path="url(#clip290)" style="stroke:#000000; stroke-linecap:round; stroke-linejoin:round; stroke-width:4; stroke-opacity:1; fill:none" points="287.366,169.464 306.264,169.464 "></polyline>
<path clip-path="url(#clip290)" d="M115.256 1247.92 L144.931 1247.92 L144.931 1251.86 L115.256 1251.86 L115.256 1247.92 Z" fill="#000000" fill-rule="nonzero" fill-opacity="1"></path><path clip-path="url(#clip290)" d="M167.871 1234.27 L156.065 1252.72 L167.871 1252.72 L167.871 1234.27 M166.644 1230.19 L172.524 1230.19 L172.524 1252.72 L177.454 1252.72 L177.454 1256.6 L172.524 1256.6 L172.524 1264.75 L167.871 1264.75 L167.871 1256.6 L152.269 1256.6 L152.269 1252.09 L166.644 1230.19 Z" fill="#000000" fill-rule="nonzero" fill-opacity="1"></path><path clip-path="url(#clip290)" d="M185.186 1258.87 L190.07 1258.87 L190.07 1264.75 L185.186 1264.75 L185.186 1258.87 Z" fill="#000000" fill-rule="nonzero" fill-opacity="1"></path><path clip-path="url(#clip290)" d="M204.283 1260.82 L220.602 1260.82 L220.602 1264.75 L198.658 1264.75 L198.658 1260.82 Q201.32 1258.06 205.903 1253.43 Q210.51 1248.78 211.69 1247.44 Q213.936 1244.92 214.815 1243.18 Q215.718 1241.42 215.718 1239.73 Q215.718 1236.98 213.774 1235.24 Q211.852 1233.5 208.75 1233.5 Q206.551 1233.5 204.098 1234.27 Q201.667 1235.03 198.889 1236.58 L198.889 1231.86 Q201.713 1230.73 204.167 1230.15 Q206.621 1229.57 208.658 1229.57 Q214.028 1229.57 217.223 1232.25 Q220.417 1234.94 220.417 1239.43 Q220.417 1241.56 219.607 1243.48 Q218.82 1245.38 216.713 1247.97 Q216.135 1248.64 213.033 1251.86 Q209.931 1255.05 204.283 1260.82 Z" fill="#000000" fill-rule="nonzero" fill-opacity="1"></path><path clip-path="url(#clip290)" d="M230.463 1230.19 L248.82 1230.19 L248.82 1234.13 L234.746 1234.13 L234.746 1242.6 Q235.764 1242.25 236.783 1242.09 Q237.801 1241.91 238.82 1241.91 Q244.607 1241.91 247.986 1245.08 Q251.366 1248.25 251.366 1253.67 Q251.366 1259.24 247.894 1262.35 Q244.421 1265.42 238.102 1265.42 Q235.926 1265.42 233.658 1265.05 Q231.412 1264.68 229.005 1263.94 L229.005 1259.24 Q231.088 1260.38 233.31 1260.93 Q235.533 1261.49 238.009 1261.49 Q242.014 1261.49 244.352 1259.38 Q246.69 1257.28 246.69 1253.67 Q246.69 1250.05 244.352 1247.95 Q242.014 1245.84 238.009 1245.84 Q236.135 1245.84 234.26 1246.26 Q232.408 1246.67 230.463 1247.55 L230.463 1230.19 Z" fill="#000000" fill-rule="nonzero" fill-opacity="1"></path><path clip-path="url(#clip290)" d="M114.26 978.422 L143.936 978.422 L143.936 982.357 L114.26 982.357 L114.26 978.422 Z" fill="#000000" fill-rule="nonzero" fill-opacity="1"></path><path clip-path="url(#clip290)" d="M166.876 964.765 L155.07 983.214 L166.876 983.214 L166.876 964.765 M165.649 960.691 L171.528 960.691 L171.528 983.214 L176.459 983.214 L176.459 987.103 L171.528 987.103 L171.528 995.251 L166.876 995.251 L166.876 987.103 L151.274 987.103 L151.274 982.589 L165.649 960.691 Z" fill="#000000" fill-rule="nonzero" fill-opacity="1"></path><path clip-path="url(#clip290)" d="M184.19 989.371 L189.075 989.371 L189.075 995.251 L184.19 995.251 L184.19 989.371 Z" fill="#000000" fill-rule="nonzero" fill-opacity="1"></path><path clip-path="url(#clip290)" d="M209.26 963.769 Q205.649 963.769 203.82 967.334 Q202.014 970.876 202.014 978.005 Q202.014 985.112 203.82 988.677 Q205.649 992.218 209.26 992.218 Q212.894 992.218 214.699 988.677 Q216.528 985.112 216.528 978.005 Q216.528 970.876 214.699 967.334 Q212.894 963.769 209.26 963.769 M209.26 960.066 Q215.07 960.066 218.125 964.672 Q221.204 969.255 221.204 978.005 Q221.204 986.732 218.125 991.339 Q215.07 995.922 209.26 995.922 Q203.449 995.922 200.371 991.339 Q197.315 986.732 197.315 978.005 Q197.315 969.255 200.371 964.672 Q203.449 960.066 209.26 960.066 Z" fill="#000000" fill-rule="nonzero" fill-opacity="1"></path><path clip-path="url(#clip290)" d="M239.422 963.769 Q235.81 963.769 233.982 967.334 Q232.176 970.876 232.176 978.005 Q232.176 985.112 233.982 988.677 Q235.81 992.218 239.422 992.218 Q243.056 992.218 244.861 988.677 Q246.69 985.112 246.69 978.005 Q246.69 970.876 244.861 967.334 Q243.056 963.769 239.422 963.769 M239.422 960.066 Q245.232 960.066 248.287 964.672 Q251.366 969.255 251.366 978.005 Q251.366 986.732 248.287 991.339 Q245.232 995.922 239.422 995.922 Q233.611 995.922 230.533 991.339 Q227.477 986.732 227.477 978.005 Q227.477 969.255 230.533 964.672 Q233.611 960.066 239.422 960.066 Z" fill="#000000" fill-rule="nonzero" fill-opacity="1"></path><path clip-path="url(#clip290)" d="M115.256 708.92 L144.931 708.92 L144.931 712.855 L115.256 712.855 L115.256 708.92 Z" fill="#000000" fill-rule="nonzero" fill-opacity="1"></path><path clip-path="url(#clip290)" d="M169.19 707.114 Q172.547 707.832 174.422 710.1 Q176.32 712.369 176.32 715.702 Q176.32 720.818 172.802 723.619 Q169.283 726.42 162.802 726.42 Q160.626 726.42 158.311 725.98 Q156.019 725.563 153.566 724.707 L153.566 720.193 Q155.51 721.327 157.825 721.906 Q160.14 722.485 162.663 722.485 Q167.061 722.485 169.352 720.748 Q171.667 719.012 171.667 715.702 Q171.667 712.647 169.514 710.934 Q167.385 709.198 163.565 709.198 L159.538 709.198 L159.538 705.355 L163.751 705.355 Q167.2 705.355 169.028 703.989 Q170.857 702.6 170.857 700.008 Q170.857 697.346 168.959 695.934 Q167.084 694.499 163.565 694.499 Q161.644 694.499 159.445 694.915 Q157.246 695.332 154.607 696.211 L154.607 692.045 Q157.269 691.304 159.584 690.934 Q161.922 690.563 163.982 690.563 Q169.306 690.563 172.408 692.994 Q175.51 695.401 175.51 699.522 Q175.51 702.392 173.866 704.383 Q172.223 706.35 169.19 707.114 Z" fill="#000000" fill-rule="nonzero" fill-opacity="1"></path><path clip-path="url(#clip290)" d="M185.186 719.869 L190.07 719.869 L190.07 725.748 L185.186 725.748 L185.186 719.869 Z" fill="#000000" fill-rule="nonzero" fill-opacity="1"></path><path clip-path="url(#clip290)" d="M199.075 691.188 L221.297 691.188 L221.297 693.179 L208.75 725.748 L203.866 725.748 L215.672 695.124 L199.075 695.124 L199.075 691.188 Z" fill="#000000" fill-rule="nonzero" fill-opacity="1"></path><path clip-path="url(#clip290)" d="M230.463 691.188 L248.82 691.188 L248.82 695.124 L234.746 695.124 L234.746 703.596 Q235.764 703.248 236.783 703.086 Q237.801 702.901 238.82 702.901 Q244.607 702.901 247.986 706.073 Q251.366 709.244 251.366 714.66 Q251.366 720.239 247.894 723.341 Q244.421 726.42 238.102 726.42 Q235.926 726.42 233.658 726.049 Q231.412 725.679 229.005 724.938 L229.005 720.239 Q231.088 721.373 233.31 721.929 Q235.533 722.485 238.009 722.485 Q242.014 722.485 244.352 720.378 Q246.69 718.272 246.69 714.66 Q246.69 711.049 244.352 708.943 Q242.014 706.836 238.009 706.836 Q236.135 706.836 234.26 707.253 Q232.408 707.67 230.463 708.549 L230.463 691.188 Z" fill="#000000" fill-rule="nonzero" fill-opacity="1"></path><path clip-path="url(#clip290)" d="M114.26 439.417 L143.936 439.417 L143.936 443.353 L114.26 443.353 L114.26 439.417 Z" fill="#000000" fill-rule="nonzero" fill-opacity="1"></path><path clip-path="url(#clip290)" d="M168.195 437.612 Q171.552 438.329 173.427 440.598 Q175.325 442.866 175.325 446.2 Q175.325 451.316 171.806 454.116 Q168.288 456.917 161.806 456.917 Q159.63 456.917 157.315 456.478 Q155.024 456.061 152.57 455.204 L152.57 450.691 Q154.515 451.825 156.829 452.403 Q159.144 452.982 161.667 452.982 Q166.065 452.982 168.357 451.246 Q170.672 449.51 170.672 446.2 Q170.672 443.144 168.519 441.431 Q166.39 439.695 162.57 439.695 L158.542 439.695 L158.542 435.853 L162.755 435.853 Q166.204 435.853 168.033 434.487 Q169.862 433.098 169.862 430.505 Q169.862 427.843 167.964 426.431 Q166.089 424.996 162.57 424.996 Q160.649 424.996 158.45 425.413 Q156.251 425.83 153.612 426.709 L153.612 422.543 Q156.274 421.802 158.589 421.431 Q160.927 421.061 162.987 421.061 Q168.311 421.061 171.413 423.492 Q174.514 425.899 174.514 430.019 Q174.514 432.89 172.871 434.88 Q171.227 436.848 168.195 437.612 Z" fill="#000000" fill-rule="nonzero" fill-opacity="1"></path><path clip-path="url(#clip290)" d="M184.19 450.366 L189.075 450.366 L189.075 456.246 L184.19 456.246 L184.19 450.366 Z" fill="#000000" fill-rule="nonzero" fill-opacity="1"></path><path clip-path="url(#clip290)" d="M199.306 421.686 L217.662 421.686 L217.662 425.621 L203.588 425.621 L203.588 434.093 Q204.607 433.746 205.625 433.584 Q206.644 433.399 207.662 433.399 Q213.449 433.399 216.829 436.57 Q220.209 439.741 220.209 445.158 Q220.209 450.737 216.736 453.839 Q213.264 456.917 206.945 456.917 Q204.769 456.917 202.5 456.547 Q200.255 456.177 197.848 455.436 L197.848 450.737 Q199.931 451.871 202.153 452.427 Q204.375 452.982 206.852 452.982 Q210.857 452.982 213.195 450.876 Q215.533 448.769 215.533 445.158 Q215.533 441.547 213.195 439.441 Q210.857 437.334 206.852 437.334 Q204.977 437.334 203.102 437.751 Q201.25 438.167 199.306 439.047 L199.306 421.686 Z" fill="#000000" fill-rule="nonzero" fill-opacity="1"></path><path clip-path="url(#clip290)" d="M239.422 424.765 Q235.81 424.765 233.982 428.33 Q232.176 431.871 232.176 439.001 Q232.176 446.107 233.982 449.672 Q235.81 453.214 239.422 453.214 Q243.056 453.214 244.861 449.672 Q246.69 446.107 246.69 439.001 Q246.69 431.871 244.861 428.33 Q243.056 424.765 239.422 424.765 M239.422 421.061 Q245.232 421.061 248.287 425.667 Q251.366 430.251 251.366 439.001 Q251.366 447.728 248.287 452.334 Q245.232 456.917 239.422 456.917 Q233.611 456.917 230.533 452.334 Q227.477 447.728 227.477 439.001 Q227.477 430.251 230.533 425.667 Q233.611 421.061 239.422 421.061 Z" fill="#000000" fill-rule="nonzero" fill-opacity="1"></path><path clip-path="url(#clip290)" d="M115.256 169.915 L144.931 169.915 L144.931 173.85 L115.256 173.85 L115.256 169.915 Z" fill="#000000" fill-rule="nonzero" fill-opacity="1"></path><path clip-path="url(#clip290)" d="M169.19 168.11 Q172.547 168.827 174.422 171.096 Q176.32 173.364 176.32 176.697 Q176.32 181.813 172.802 184.614 Q169.283 187.415 162.802 187.415 Q160.626 187.415 158.311 186.975 Q156.019 186.559 153.566 185.702 L153.566 181.188 Q155.51 182.322 157.825 182.901 Q160.14 183.48 162.663 183.48 Q167.061 183.48 169.352 181.744 Q171.667 180.008 171.667 176.697 Q171.667 173.642 169.514 171.929 Q167.385 170.193 163.565 170.193 L159.538 170.193 L159.538 166.35 L163.751 166.35 Q167.2 166.35 169.028 164.985 Q170.857 163.596 170.857 161.003 Q170.857 158.341 168.959 156.929 Q167.084 155.494 163.565 155.494 Q161.644 155.494 159.445 155.911 Q157.246 156.327 154.607 157.207 L154.607 153.04 Q157.269 152.299 159.584 151.929 Q161.922 151.559 163.982 151.559 Q169.306 151.559 172.408 153.989 Q175.51 156.397 175.51 160.517 Q175.51 163.387 173.866 165.378 Q172.223 167.346 169.19 168.11 Z" fill="#000000" fill-rule="nonzero" fill-opacity="1"></path><path clip-path="url(#clip290)" d="M185.186 180.864 L190.07 180.864 L190.07 186.744 L185.186 186.744 L185.186 180.864 Z" fill="#000000" fill-rule="nonzero" fill-opacity="1"></path><path clip-path="url(#clip290)" d="M204.283 182.809 L220.602 182.809 L220.602 186.744 L198.658 186.744 L198.658 182.809 Q201.32 180.054 205.903 175.424 Q210.51 170.772 211.69 169.429 Q213.936 166.906 214.815 165.17 Q215.718 163.41 215.718 161.721 Q215.718 158.966 213.774 157.23 Q211.852 155.494 208.75 155.494 Q206.551 155.494 204.098 156.258 Q201.667 157.022 198.889 158.573 L198.889 153.85 Q201.713 152.716 204.167 152.137 Q206.621 151.559 208.658 151.559 Q214.028 151.559 217.223 154.244 Q220.417 156.929 220.417 161.42 Q220.417 163.549 219.607 165.471 Q218.82 167.369 216.713 169.961 Q216.135 170.633 213.033 173.85 Q209.931 177.045 204.283 182.809 Z" fill="#000000" fill-rule="nonzero" fill-opacity="1"></path><path clip-path="url(#clip290)" d="M230.463 152.184 L248.82 152.184 L248.82 156.119 L234.746 156.119 L234.746 164.591 Q235.764 164.244 236.783 164.082 Q237.801 163.897 238.82 163.897 Q244.607 163.897 247.986 167.068 Q251.366 170.239 251.366 175.656 Q251.366 181.234 247.894 184.336 Q244.421 187.415 238.102 187.415 Q235.926 187.415 233.658 187.045 Q231.412 186.674 229.005 185.934 L229.005 181.234 Q231.088 182.369 233.31 182.924 Q235.533 183.48 238.009 183.48 Q242.014 183.48 244.352 181.373 Q246.69 179.267 246.69 175.656 Q246.69 172.045 244.352 169.938 Q242.014 167.832 238.009 167.832 Q236.135 167.832 234.26 168.248 Q232.408 168.665 230.463 169.545 L230.463 152.184 Z" fill="#000000" fill-rule="nonzero" fill-opacity="1"></path><path clip-path="url(#clip290)" d="M14.479 871.295 L14.479 865.438 L64.0042 865.438 L64.0042 871.295 L14.479 871.295 Z" fill="#000000" fill-rule="nonzero" fill-opacity="1"></path><path clip-path="url(#clip290)" d="M32.4621 839.371 Q32.4621 844.081 36.1542 846.819 Q39.8145 849.556 46.212 849.556 Q52.6095 849.556 56.3017 846.851 Q59.9619 844.113 59.9619 839.371 Q59.9619 834.692 56.2698 831.955 Q52.5777 829.218 46.212 829.218 Q39.8781 829.218 36.186 831.955 Q32.4621 834.692 32.4621 839.371 M27.4968 839.371 Q27.4968 831.732 32.4621 827.371 Q37.4273 823.011 46.212 823.011 Q54.9649 823.011 59.9619 827.371 Q64.9272 831.732 64.9272 839.371 Q64.9272 847.042 59.9619 851.402 Q54.9649 855.731 46.212 855.731 Q37.4273 855.731 32.4621 851.402 Q27.4968 847.042 27.4968 839.371 Z" fill="#000000" fill-rule="nonzero" fill-opacity="1"></path><path clip-path="url(#clip290)" d="M45.7664 789.846 Q39.4007 789.846 35.8996 792.487 Q32.3984 795.097 32.3984 799.84 Q32.3984 804.55 35.8996 807.192 Q39.4007 809.802 45.7664 809.802 Q52.1003 809.802 55.6014 807.192 Q59.1026 804.55 59.1026 799.84 Q59.1026 795.097 55.6014 792.487 Q52.1003 789.846 45.7664 789.846 M59.58 783.989 Q68.683 783.989 73.1071 788.031 Q77.5631 792.074 77.5631 800.413 Q77.5631 803.5 77.0857 806.237 Q76.6401 808.975 75.6852 811.553 L69.9879 811.553 Q71.3884 808.975 72.0568 806.46 Q72.7252 803.946 72.7252 801.336 Q72.7252 795.575 69.7015 792.71 Q66.7096 789.846 60.6303 789.846 L57.7339 789.846 Q60.885 791.66 62.4446 794.493 Q64.0042 797.325 64.0042 801.272 Q64.0042 807.829 59.0071 811.839 Q54.01 815.85 45.7664 815.85 Q37.491 815.85 32.4939 811.839 Q27.4968 807.829 27.4968 801.272 Q27.4968 797.325 29.0564 794.493 Q30.616 791.66 33.7671 789.846 L28.3562 789.846 L28.3562 783.989 L59.58 783.989 Z" fill="#000000" fill-rule="nonzero" fill-opacity="1"></path><path clip-path="url(#clip290)" d="M60.503 773.104 L60.503 766.611 L41.0558 766.611 L42.3608 773.709 L38.6686 773.709 L37.4273 766.388 L37.4273 762.028 L60.503 762.028 L60.503 755.503 L64.0042 755.503 L64.0042 773.104 L60.503 773.104 Z" fill="#000000" fill-rule="nonzero" fill-opacity="1"></path><path clip-path="url(#clip290)" d="M42.4562 733.796 Q39.719 735.387 39.719 738.602 Q39.719 741.816 42.4562 743.408 Q45.1935 745.031 50.668 745.031 Q56.1743 745.031 58.9116 743.408 Q61.6488 741.816 61.6488 738.602 Q61.6488 735.387 58.9116 733.796 Q56.1743 732.172 50.668 732.172 Q45.1935 732.172 42.4562 733.796 M36.8862 738.602 Q36.8862 733.477 40.4192 730.772 Q43.9522 728.066 50.668 728.066 Q57.4157 728.066 60.9486 730.772 Q64.4816 733.477 64.4816 738.602 Q64.4816 743.758 60.9486 746.463 Q57.4157 749.169 50.668 749.169 Q43.9522 749.169 40.4192 746.463 Q36.8862 743.758 36.8862 738.602 Z" fill="#000000" fill-rule="nonzero" fill-opacity="1"></path><path clip-path="url(#clip290)" d="M14.5426 705.596 Q21.8632 709.861 29.0246 711.929 Q36.186 713.998 43.5384 713.998 Q50.8908 713.998 58.1159 711.929 Q65.3091 709.829 72.5979 705.596 L72.5979 710.688 Q65.1182 715.462 57.8931 717.85 Q50.668 720.205 43.5384 720.205 Q36.4406 720.205 29.2474 717.85 Q22.0542 715.494 14.5426 710.688 L14.5426 705.596 Z" fill="#000000" fill-rule="nonzero" fill-opacity="1"></path><path clip-path="url(#clip290)" d="M34.0217 669.056 Q33.6079 670.234 33.2896 671.412 Q32.4621 674.563 32.4621 677.937 Q32.4621 683.761 35.6131 687.008 Q38.5413 690.031 43.9204 690.604 L43.9204 669.056 L48.5037 669.056 L48.5037 690.604 Q53.8827 690.031 56.8109 687.008 Q59.9619 683.761 59.9619 677.937 Q59.9619 673.862 59.1344 671.412 L58.3387 669.056 L63.654 669.056 L64.227 671.571 Q64.9272 674.881 64.9272 678.287 Q64.9272 686.817 59.9619 691.782 Q54.9967 696.779 46.212 696.779 Q37.4273 696.779 32.4621 691.782 Q27.4968 686.817 27.4968 678.287 Q27.4968 675.072 28.1971 671.571 Q28.4517 670.298 28.8336 669.056 L34.0217 669.056 Z" fill="#000000" fill-rule="nonzero" fill-opacity="1"></path><path clip-path="url(#clip290)" d="M49.9359 654.734 L28.3562 654.734 L28.3562 648.877 L49.7131 648.877 Q54.7739 648.877 57.3202 646.904 Q59.8346 644.93 59.8346 640.984 Q59.8346 636.241 56.8109 633.504 Q53.7872 630.735 48.5673 630.735 L28.3562 630.735 L28.3562 624.878 L64.0042 624.878 L64.0042 630.735 L58.5296 630.735 Q61.7762 632.867 63.3676 635.7 Q64.9272 638.501 64.9272 642.225 Q64.9272 648.368 61.1078 651.551 Q57.2883 654.734 49.9359 654.734 M27.4968 639.997 L27.4968 639.997 Z" fill="#000000" fill-rule="nonzero" fill-opacity="1"></path><path clip-path="url(#clip290)" d="M14.5426 613.738 L14.5426 608.646 Q22.0542 603.872 29.2474 601.516 Q36.4406 599.129 43.5384 599.129 Q50.668 599.129 57.8931 601.516 Q65.1182 603.872 72.5979 608.646 L72.5979 613.738 Q65.3091 609.505 58.1159 607.436 Q50.8908 605.336 43.5384 605.336 Q36.186 605.336 29.0246 607.436 Q21.8632 609.505 14.5426 613.738 Z" fill="#000000" fill-rule="nonzero" fill-opacity="1"></path><circle clip-path="url(#clip292)" cx="311.858" cy="86.1857" r="14.4" fill="#009af9" fill-rule="evenodd" fill-opacity="1" stroke="#000000" stroke-opacity="1" stroke-width="3.2"></circle>
<circle clip-path="url(#clip292)" cx="720.061" cy="699.897" r="14.4" fill="#009af9" fill-rule="evenodd" fill-opacity="1" stroke="#000000" stroke-opacity="1" stroke-width="3.2"></circle>
<circle clip-path="url(#clip292)" cx="1128.26" cy="1331.26" r="14.4" fill="#009af9" fill-rule="evenodd" fill-opacity="1" stroke="#000000" stroke-opacity="1" stroke-width="3.2"></circle>
<polyline clip-path="url(#clip292)" style="stroke:#e26f46; stroke-linecap:round; stroke-linejoin:round; stroke-width:4; stroke-opacity:1; fill:none" points="311.858,86.1857 720.061,410.699 1128.26,735.212 "></polyline>
<polyline clip-path="url(#clip292)" style="stroke:#3da44d; stroke-linecap:round; stroke-linejoin:round; stroke-width:4; stroke-opacity:1; fill:none" points="311.858,86.1857 720.061,735.212 1128.26,1384.24 "></polyline>
<path clip-path="url(#clip290)" d="M976.931 300.469 L1123.91 300.469 L1123.91 93.1086 L976.931 93.1086  Z" fill="#ffffff" fill-rule="evenodd" fill-opacity="1"></path>
<polyline clip-path="url(#clip290)" style="stroke:#000000; stroke-linecap:round; stroke-linejoin:round; stroke-width:4; stroke-opacity:1; fill:none" points="976.931,300.469 1123.91,300.469 1123.91,93.1086 976.931,93.1086 976.931,300.469 "></polyline>
<circle clip-path="url(#clip290)" cx="1015.39" cy="144.949" r="20.48" fill="#009af9" fill-rule="evenodd" fill-opacity="1" stroke="#000000" stroke-opacity="1" stroke-width="4.55111"></circle>
<path clip-path="url(#clip290)" d="M1074.02 140.423 Q1073.16 140.122 1072.3 139.891 Q1070.01 139.289 1067.56 139.289 Q1063.32 139.289 1060.96 141.581 Q1058.76 143.71 1058.35 147.622 L1074.02 147.622 L1074.02 150.956 L1058.35 150.956 Q1058.76 154.868 1060.96 156.997 Q1063.32 159.289 1067.56 159.289 Q1070.52 159.289 1072.3 158.687 L1074.02 158.108 L1074.02 161.974 L1072.19 162.391 Q1069.78 162.9 1067.3 162.9 Q1061.1 162.9 1057.49 159.289 Q1053.85 155.678 1053.85 149.289 Q1053.85 142.9 1057.49 139.289 Q1061.1 135.678 1067.3 135.678 Q1069.64 135.678 1072.19 136.187 Q1073.11 136.372 1074.02 136.65 L1074.02 140.423 Z" fill="#000000" fill-rule="nonzero" fill-opacity="1"></path><polyline clip-path="url(#clip290)" style="stroke:#e26f46; stroke-linecap:round; stroke-linejoin:round; stroke-width:4; stroke-opacity:1; fill:none" points="986.547,196.789 1044.24,196.789 "></polyline>
<path clip-path="url(#clip290)" d="M1069.87 182.68 Q1064.78 182.68 1061.77 186.476 Q1058.79 190.272 1058.79 196.823 Q1058.79 203.351 1061.77 207.147 Q1064.78 210.944 1069.87 210.944 Q1074.97 210.944 1077.93 207.147 Q1080.91 203.351 1080.91 196.823 Q1080.91 190.272 1077.93 186.476 Q1074.97 182.68 1069.87 182.68 M1069.87 178.884 Q1077.14 178.884 1081.49 183.768 Q1085.85 188.629 1085.85 196.823 Q1085.85 204.995 1081.49 209.879 Q1077.14 214.74 1069.87 214.74 Q1062.58 214.74 1058.21 209.879 Q1053.85 205.018 1053.85 196.823 Q1053.85 188.629 1058.21 183.768 Q1062.58 178.884 1069.87 178.884 Z" fill="#000000" fill-rule="nonzero" fill-opacity="1"></path><path clip-path="url(#clip290)" d="M1094.39 210.133 L1102.03 210.133 L1102.03 183.768 L1093.72 185.435 L1093.72 181.175 L1101.98 179.509 L1106.66 179.509 L1106.66 210.133 L1114.29 210.133 L1114.29 214.069 L1094.39 214.069 L1094.39 210.133 Z" fill="#000000" fill-rule="nonzero" fill-opacity="1"></path><polyline clip-path="url(#clip290)" style="stroke:#3da44d; stroke-linecap:round; stroke-linejoin:round; stroke-width:4; stroke-opacity:1; fill:none" points="986.547,248.629 1044.24,248.629 "></polyline>
<path clip-path="url(#clip290)" d="M1069.87 234.52 Q1064.78 234.52 1061.77 238.316 Q1058.79 242.112 1058.79 248.663 Q1058.79 255.191 1061.77 258.987 Q1064.78 262.784 1069.87 262.784 Q1074.97 262.784 1077.93 258.987 Q1080.91 255.191 1080.91 248.663 Q1080.91 242.112 1077.93 238.316 Q1074.97 234.52 1069.87 234.52 M1069.87 230.724 Q1077.14 230.724 1081.49 235.608 Q1085.85 240.469 1085.85 248.663 Q1085.85 256.835 1081.49 261.719 Q1077.14 266.58 1069.87 266.58 Q1062.58 266.58 1058.21 261.719 Q1053.85 256.858 1053.85 248.663 Q1053.85 240.469 1058.21 235.608 Q1062.58 230.724 1069.87 230.724 Z" fill="#000000" fill-rule="nonzero" fill-opacity="1"></path><path clip-path="url(#clip290)" d="M1097.6 261.973 L1113.92 261.973 L1113.92 265.909 L1091.98 265.909 L1091.98 261.973 Q1094.64 259.219 1099.22 254.589 Q1103.83 249.936 1105.01 248.594 Q1107.26 246.071 1108.14 244.335 Q1109.04 242.575 1109.04 240.886 Q1109.04 238.131 1107.1 236.395 Q1105.17 234.659 1102.07 234.659 Q1099.87 234.659 1097.42 235.423 Q1094.99 236.187 1092.21 237.737 L1092.21 233.015 Q1095.03 231.881 1097.49 231.302 Q1099.94 230.724 1101.98 230.724 Q1107.35 230.724 1110.54 233.409 Q1113.74 236.094 1113.74 240.585 Q1113.74 242.714 1112.93 244.636 Q1112.14 246.534 1110.03 249.126 Q1109.46 249.798 1106.35 253.015 Q1103.25 256.21 1097.6 261.973 Z" fill="#000000" fill-rule="nonzero" fill-opacity="1"></path><path clip-path="url(#clip290)" d="M1487.37 1423.18 L2352.76 1423.18 L2352.76 47.2441 L1487.37 47.2441  Z" fill="#ffffff" fill-rule="evenodd" fill-opacity="1"></path>
<defs>
  <clipPath id="clip293">
    <rect x="1487" y="47" width="866" height="1377"></rect>
  </clipPath>
</defs>
<polyline clip-path="url(#clip293)" style="stroke:#000000; stroke-linecap:round; stroke-linejoin:round; stroke-width:2; stroke-opacity:0.1; fill:none" points="1511.86,1423.18 1511.86,47.2441 "></polyline>
<polyline clip-path="url(#clip293)" style="stroke:#000000; stroke-linecap:round; stroke-linejoin:round; stroke-width:2; stroke-opacity:0.1; fill:none" points="1647.46,1423.18 1647.46,47.2441 "></polyline>
<polyline clip-path="url(#clip293)" style="stroke:#000000; stroke-linecap:round; stroke-linejoin:round; stroke-width:2; stroke-opacity:0.1; fill:none" points="1783.06,1423.18 1783.06,47.2441 "></polyline>
<polyline clip-path="url(#clip293)" style="stroke:#000000; stroke-linecap:round; stroke-linejoin:round; stroke-width:2; stroke-opacity:0.1; fill:none" points="1918.66,1423.18 1918.66,47.2441 "></polyline>
<polyline clip-path="url(#clip293)" style="stroke:#000000; stroke-linecap:round; stroke-linejoin:round; stroke-width:2; stroke-opacity:0.1; fill:none" points="2054.27,1423.18 2054.27,47.2441 "></polyline>
<polyline clip-path="url(#clip293)" style="stroke:#000000; stroke-linecap:round; stroke-linejoin:round; stroke-width:2; stroke-opacity:0.1; fill:none" points="2189.87,1423.18 2189.87,47.2441 "></polyline>
<polyline clip-path="url(#clip293)" style="stroke:#000000; stroke-linecap:round; stroke-linejoin:round; stroke-width:2; stroke-opacity:0.1; fill:none" points="2325.47,1423.18 2325.47,47.2441 "></polyline>
<polyline clip-path="url(#clip293)" style="stroke:#000000; stroke-linecap:round; stroke-linejoin:round; stroke-width:2; stroke-opacity:0.1; fill:none" points="1487.37,1247.47 2352.76,1247.47 "></polyline>
<polyline clip-path="url(#clip293)" style="stroke:#000000; stroke-linecap:round; stroke-linejoin:round; stroke-width:2; stroke-opacity:0.1; fill:none" points="1487.37,977.971 2352.76,977.971 "></polyline>
<polyline clip-path="url(#clip293)" style="stroke:#000000; stroke-linecap:round; stroke-linejoin:round; stroke-width:2; stroke-opacity:0.1; fill:none" points="1487.37,708.468 2352.76,708.468 "></polyline>
<polyline clip-path="url(#clip293)" style="stroke:#000000; stroke-linecap:round; stroke-linejoin:round; stroke-width:2; stroke-opacity:0.1; fill:none" points="1487.37,438.966 2352.76,438.966 "></polyline>
<polyline clip-path="url(#clip293)" style="stroke:#000000; stroke-linecap:round; stroke-linejoin:round; stroke-width:2; stroke-opacity:0.1; fill:none" points="1487.37,169.464 2352.76,169.464 "></polyline>
<polyline clip-path="url(#clip290)" style="stroke:#000000; stroke-linecap:round; stroke-linejoin:round; stroke-width:4; stroke-opacity:1; fill:none" points="1487.37,1423.18 2352.76,1423.18 "></polyline>
<polyline clip-path="url(#clip290)" style="stroke:#000000; stroke-linecap:round; stroke-linejoin:round; stroke-width:4; stroke-opacity:1; fill:none" points="1511.86,1423.18 1511.86,1404.28 "></polyline>
<polyline clip-path="url(#clip290)" style="stroke:#000000; stroke-linecap:round; stroke-linejoin:round; stroke-width:4; stroke-opacity:1; fill:none" points="1647.46,1423.18 1647.46,1404.28 "></polyline>
<polyline clip-path="url(#clip290)" style="stroke:#000000; stroke-linecap:round; stroke-linejoin:round; stroke-width:4; stroke-opacity:1; fill:none" points="1783.06,1423.18 1783.06,1404.28 "></polyline>
<polyline clip-path="url(#clip290)" style="stroke:#000000; stroke-linecap:round; stroke-linejoin:round; stroke-width:4; stroke-opacity:1; fill:none" points="1918.66,1423.18 1918.66,1404.28 "></polyline>
<polyline clip-path="url(#clip290)" style="stroke:#000000; stroke-linecap:round; stroke-linejoin:round; stroke-width:4; stroke-opacity:1; fill:none" points="2054.27,1423.18 2054.27,1404.28 "></polyline>
<polyline clip-path="url(#clip290)" style="stroke:#000000; stroke-linecap:round; stroke-linejoin:round; stroke-width:4; stroke-opacity:1; fill:none" points="2189.87,1423.18 2189.87,1404.28 "></polyline>
<polyline clip-path="url(#clip290)" style="stroke:#000000; stroke-linecap:round; stroke-linejoin:round; stroke-width:4; stroke-opacity:1; fill:none" points="2325.47,1423.18 2325.47,1404.28 "></polyline>
<path clip-path="url(#clip290)" d="M1483.1 1481.64 L1499.42 1481.64 L1499.42 1485.58 L1477.47 1485.58 L1477.47 1481.64 Q1480.13 1478.89 1484.72 1474.26 Q1489.32 1469.61 1490.5 1468.27 Q1492.75 1465.74 1493.63 1464.01 Q1494.53 1462.25 1494.53 1460.56 Q1494.53 1457.8 1492.59 1456.07 Q1490.67 1454.33 1487.56 1454.33 Q1485.37 1454.33 1482.91 1455.09 Q1480.48 1455.86 1477.7 1457.41 L1477.7 1452.69 Q1480.53 1451.55 1482.98 1450.97 Q1485.43 1450.39 1487.47 1450.39 Q1492.84 1450.39 1496.04 1453.08 Q1499.23 1455.77 1499.23 1460.26 Q1499.23 1462.39 1498.42 1464.31 Q1497.63 1466.2 1495.53 1468.8 Q1494.95 1469.47 1491.85 1472.69 Q1488.74 1475.88 1483.1 1481.64 Z" fill="#000000" fill-rule="nonzero" fill-opacity="1"></path><path clip-path="url(#clip290)" d="M1509.23 1479.7 L1514.12 1479.7 L1514.12 1485.58 L1509.23 1485.58 L1509.23 1479.7 Z" fill="#000000" fill-rule="nonzero" fill-opacity="1"></path><path clip-path="url(#clip290)" d="M1534.3 1454.1 Q1530.69 1454.1 1528.86 1457.66 Q1527.05 1461.2 1527.05 1468.33 Q1527.05 1475.44 1528.86 1479.01 Q1530.69 1482.55 1534.3 1482.55 Q1537.93 1482.55 1539.74 1479.01 Q1541.57 1475.44 1541.57 1468.33 Q1541.57 1461.2 1539.74 1457.66 Q1537.93 1454.1 1534.3 1454.1 M1534.3 1450.39 Q1540.11 1450.39 1543.17 1455 Q1546.24 1459.58 1546.24 1468.33 Q1546.24 1477.06 1543.17 1481.67 Q1540.11 1486.25 1534.3 1486.25 Q1528.49 1486.25 1525.41 1481.67 Q1522.36 1477.06 1522.36 1468.33 Q1522.36 1459.58 1525.41 1455 Q1528.49 1450.39 1534.3 1450.39 Z" fill="#000000" fill-rule="nonzero" fill-opacity="1"></path><path clip-path="url(#clip290)" d="M1619.31 1481.64 L1635.63 1481.64 L1635.63 1485.58 L1613.69 1485.58 L1613.69 1481.64 Q1616.35 1478.89 1620.93 1474.26 Q1625.54 1469.61 1626.72 1468.27 Q1628.96 1465.74 1629.84 1464.01 Q1630.75 1462.25 1630.75 1460.56 Q1630.75 1457.8 1628.8 1456.07 Q1626.88 1454.33 1623.78 1454.33 Q1621.58 1454.33 1619.13 1455.09 Q1616.7 1455.86 1613.92 1457.41 L1613.92 1452.69 Q1616.74 1451.55 1619.2 1450.97 Q1621.65 1450.39 1623.69 1450.39 Q1629.06 1450.39 1632.25 1453.08 Q1635.45 1455.77 1635.45 1460.26 Q1635.45 1462.39 1634.64 1464.31 Q1633.85 1466.2 1631.74 1468.8 Q1631.16 1469.47 1628.06 1472.69 Q1624.96 1475.88 1619.31 1481.64 Z" fill="#000000" fill-rule="nonzero" fill-opacity="1"></path><path clip-path="url(#clip290)" d="M1645.45 1479.7 L1650.33 1479.7 L1650.33 1485.58 L1645.45 1485.58 L1645.45 1479.7 Z" fill="#000000" fill-rule="nonzero" fill-opacity="1"></path><path clip-path="url(#clip290)" d="M1661.33 1481.64 L1668.96 1481.64 L1668.96 1455.28 L1660.65 1456.95 L1660.65 1452.69 L1668.92 1451.02 L1673.59 1451.02 L1673.59 1481.64 L1681.23 1481.64 L1681.23 1485.58 L1661.33 1485.58 L1661.33 1481.64 Z" fill="#000000" fill-rule="nonzero" fill-opacity="1"></path><path clip-path="url(#clip290)" d="M1755.1 1481.64 L1771.42 1481.64 L1771.42 1485.58 L1749.47 1485.58 L1749.47 1481.64 Q1752.14 1478.89 1756.72 1474.26 Q1761.33 1469.61 1762.51 1468.27 Q1764.75 1465.74 1765.63 1464.01 Q1766.53 1462.25 1766.53 1460.56 Q1766.53 1457.8 1764.59 1456.07 Q1762.67 1454.33 1759.57 1454.33 Q1757.37 1454.33 1754.91 1455.09 Q1752.48 1455.86 1749.71 1457.41 L1749.71 1452.69 Q1752.53 1451.55 1754.98 1450.97 Q1757.44 1450.39 1759.47 1450.39 Q1764.84 1450.39 1768.04 1453.08 Q1771.23 1455.77 1771.23 1460.26 Q1771.23 1462.39 1770.42 1464.31 Q1769.64 1466.2 1767.53 1468.8 Q1766.95 1469.47 1763.85 1472.69 Q1760.75 1475.88 1755.1 1481.64 Z" fill="#000000" fill-rule="nonzero" fill-opacity="1"></path><path clip-path="url(#clip290)" d="M1781.23 1479.7 L1786.12 1479.7 L1786.12 1485.58 L1781.23 1485.58 L1781.23 1479.7 Z" fill="#000000" fill-rule="nonzero" fill-opacity="1"></path><path clip-path="url(#clip290)" d="M1800.33 1481.64 L1816.65 1481.64 L1816.65 1485.58 L1794.71 1485.58 L1794.71 1481.64 Q1797.37 1478.89 1801.95 1474.26 Q1806.56 1469.61 1807.74 1468.27 Q1809.98 1465.74 1810.86 1464.01 Q1811.77 1462.25 1811.77 1460.56 Q1811.77 1457.8 1809.82 1456.07 Q1807.9 1454.33 1804.8 1454.33 Q1802.6 1454.33 1800.15 1455.09 Q1797.71 1455.86 1794.94 1457.41 L1794.94 1452.69 Q1797.76 1451.55 1800.21 1450.97 Q1802.67 1450.39 1804.71 1450.39 Q1810.08 1450.39 1813.27 1453.08 Q1816.46 1455.77 1816.46 1460.26 Q1816.46 1462.39 1815.65 1464.31 Q1814.87 1466.2 1812.76 1468.8 Q1812.18 1469.47 1809.08 1472.69 Q1805.98 1475.88 1800.33 1481.64 Z" fill="#000000" fill-rule="nonzero" fill-opacity="1"></path><path clip-path="url(#clip290)" d="M1890.23 1481.64 L1906.55 1481.64 L1906.55 1485.58 L1884.6 1485.58 L1884.6 1481.64 Q1887.26 1478.89 1891.85 1474.26 Q1896.45 1469.61 1897.63 1468.27 Q1899.88 1465.74 1900.76 1464.01 Q1901.66 1462.25 1901.66 1460.56 Q1901.66 1457.8 1899.72 1456.07 Q1897.8 1454.33 1894.69 1454.33 Q1892.5 1454.33 1890.04 1455.09 Q1887.61 1455.86 1884.83 1457.41 L1884.83 1452.69 Q1887.66 1451.55 1890.11 1450.97 Q1892.56 1450.39 1894.6 1450.39 Q1899.97 1450.39 1903.17 1453.08 Q1906.36 1455.77 1906.36 1460.26 Q1906.36 1462.39 1905.55 1464.31 Q1904.76 1466.2 1902.66 1468.8 Q1902.08 1469.47 1898.98 1472.69 Q1895.87 1475.88 1890.23 1481.64 Z" fill="#000000" fill-rule="nonzero" fill-opacity="1"></path><path clip-path="url(#clip290)" d="M1916.36 1479.7 L1921.25 1479.7 L1921.25 1485.58 L1916.36 1485.58 L1916.36 1479.7 Z" fill="#000000" fill-rule="nonzero" fill-opacity="1"></path><path clip-path="url(#clip290)" d="M1945.6 1466.95 Q1948.95 1467.66 1950.83 1469.93 Q1952.73 1472.2 1952.73 1475.53 Q1952.73 1480.65 1949.21 1483.45 Q1945.69 1486.25 1939.21 1486.25 Q1937.03 1486.25 1934.72 1485.81 Q1932.43 1485.39 1929.97 1484.54 L1929.97 1480.02 Q1931.92 1481.16 1934.23 1481.74 Q1936.55 1482.32 1939.07 1482.32 Q1943.47 1482.32 1945.76 1480.58 Q1948.07 1478.84 1948.07 1475.53 Q1948.07 1472.48 1945.92 1470.77 Q1943.79 1469.03 1939.97 1469.03 L1935.94 1469.03 L1935.94 1465.19 L1940.16 1465.19 Q1943.61 1465.19 1945.43 1463.82 Q1947.26 1462.43 1947.26 1459.84 Q1947.26 1457.18 1945.37 1455.77 Q1943.49 1454.33 1939.97 1454.33 Q1938.05 1454.33 1935.85 1454.75 Q1933.65 1455.16 1931.01 1456.04 L1931.01 1451.88 Q1933.68 1451.14 1935.99 1450.77 Q1938.33 1450.39 1940.39 1450.39 Q1945.71 1450.39 1948.81 1452.83 Q1951.92 1455.23 1951.92 1459.35 Q1951.92 1462.22 1950.27 1464.21 Q1948.63 1466.18 1945.6 1466.95 Z" fill="#000000" fill-rule="nonzero" fill-opacity="1"></path><path clip-path="url(#clip290)" d="M2025.26 1481.64 L2041.58 1481.64 L2041.58 1485.58 L2019.64 1485.58 L2019.64 1481.64 Q2022.3 1478.89 2026.88 1474.26 Q2031.49 1469.61 2032.67 1468.27 Q2034.91 1465.74 2035.79 1464.01 Q2036.7 1462.25 2036.7 1460.56 Q2036.7 1457.8 2034.75 1456.07 Q2032.83 1454.33 2029.73 1454.33 Q2027.53 1454.33 2025.08 1455.09 Q2022.65 1455.86 2019.87 1457.41 L2019.87 1452.69 Q2022.69 1451.55 2025.15 1450.97 Q2027.6 1450.39 2029.64 1450.39 Q2035.01 1450.39 2038.2 1453.08 Q2041.4 1455.77 2041.4 1460.26 Q2041.4 1462.39 2040.59 1464.31 Q2039.8 1466.2 2037.69 1468.8 Q2037.11 1469.47 2034.01 1472.69 Q2030.91 1475.88 2025.26 1481.64 Z" fill="#000000" fill-rule="nonzero" fill-opacity="1"></path><path clip-path="url(#clip290)" d="M2051.4 1479.7 L2056.28 1479.7 L2056.28 1485.58 L2051.4 1485.58 L2051.4 1479.7 Z" fill="#000000" fill-rule="nonzero" fill-opacity="1"></path><path clip-path="url(#clip290)" d="M2079.31 1455.09 L2067.51 1473.54 L2079.31 1473.54 L2079.31 1455.09 M2078.09 1451.02 L2083.97 1451.02 L2083.97 1473.54 L2088.9 1473.54 L2088.9 1477.43 L2083.97 1477.43 L2083.97 1485.58 L2079.31 1485.58 L2079.31 1477.43 L2063.71 1477.43 L2063.71 1472.92 L2078.09 1451.02 Z" fill="#000000" fill-rule="nonzero" fill-opacity="1"></path><path clip-path="url(#clip290)" d="M2161.6 1481.64 L2177.92 1481.64 L2177.92 1485.58 L2155.98 1485.58 L2155.98 1481.64 Q2158.64 1478.89 2163.22 1474.26 Q2167.83 1469.61 2169.01 1468.27 Q2171.26 1465.74 2172.14 1464.01 Q2173.04 1462.25 2173.04 1460.56 Q2173.04 1457.8 2171.1 1456.07 Q2169.17 1454.33 2166.07 1454.33 Q2163.87 1454.33 2161.42 1455.09 Q2158.99 1455.86 2156.21 1457.41 L2156.21 1452.69 Q2159.04 1451.55 2161.49 1450.97 Q2163.94 1450.39 2165.98 1450.39 Q2171.35 1450.39 2174.54 1453.08 Q2177.74 1455.77 2177.74 1460.26 Q2177.74 1462.39 2176.93 1464.31 Q2176.14 1466.2 2174.04 1468.8 Q2173.46 1469.47 2170.35 1472.69 Q2167.25 1475.88 2161.6 1481.64 Z" fill="#000000" fill-rule="nonzero" fill-opacity="1"></path><path clip-path="url(#clip290)" d="M2187.74 1479.7 L2192.62 1479.7 L2192.62 1485.58 L2187.74 1485.58 L2187.74 1479.7 Z" fill="#000000" fill-rule="nonzero" fill-opacity="1"></path><path clip-path="url(#clip290)" d="M2202.85 1451.02 L2221.21 1451.02 L2221.21 1454.96 L2207.14 1454.96 L2207.14 1463.43 Q2208.16 1463.08 2209.17 1462.92 Q2210.19 1462.73 2211.21 1462.73 Q2217 1462.73 2220.38 1465.9 Q2223.76 1469.08 2223.76 1474.49 Q2223.76 1480.07 2220.28 1483.17 Q2216.81 1486.25 2210.49 1486.25 Q2208.32 1486.25 2206.05 1485.88 Q2203.8 1485.51 2201.4 1484.77 L2201.4 1480.07 Q2203.48 1481.2 2205.7 1481.76 Q2207.92 1482.32 2210.4 1482.32 Q2214.41 1482.32 2216.74 1480.21 Q2219.08 1478.1 2219.08 1474.49 Q2219.08 1470.88 2216.74 1468.77 Q2214.41 1466.67 2210.4 1466.67 Q2208.53 1466.67 2206.65 1467.08 Q2204.8 1467.5 2202.85 1468.38 L2202.85 1451.02 Z" fill="#000000" fill-rule="nonzero" fill-opacity="1"></path><path clip-path="url(#clip290)" d="M2296.63 1481.64 L2312.95 1481.64 L2312.95 1485.58 L2291 1485.58 L2291 1481.64 Q2293.66 1478.89 2298.25 1474.26 Q2302.85 1469.61 2304.04 1468.27 Q2306.28 1465.74 2307.16 1464.01 Q2308.06 1462.25 2308.06 1460.56 Q2308.06 1457.8 2306.12 1456.07 Q2304.2 1454.33 2301.1 1454.33 Q2298.9 1454.33 2296.44 1455.09 Q2294.01 1455.86 2291.23 1457.41 L2291.23 1452.69 Q2294.06 1451.55 2296.51 1450.97 Q2298.97 1450.39 2301 1450.39 Q2306.37 1450.39 2309.57 1453.08 Q2312.76 1455.77 2312.76 1460.26 Q2312.76 1462.39 2311.95 1464.31 Q2311.16 1466.2 2309.06 1468.8 Q2308.48 1469.47 2305.38 1472.69 Q2302.28 1475.88 2296.63 1481.64 Z" fill="#000000" fill-rule="nonzero" fill-opacity="1"></path><path clip-path="url(#clip290)" d="M2322.76 1479.7 L2327.65 1479.7 L2327.65 1485.58 L2322.76 1485.58 L2322.76 1479.7 Z" fill="#000000" fill-rule="nonzero" fill-opacity="1"></path><path clip-path="url(#clip290)" d="M2348.41 1466.44 Q2345.26 1466.44 2343.41 1468.59 Q2341.58 1470.74 2341.58 1474.49 Q2341.58 1478.22 2343.41 1480.39 Q2345.26 1482.55 2348.41 1482.55 Q2351.56 1482.55 2353.39 1480.39 Q2355.24 1478.22 2355.24 1474.49 Q2355.24 1470.74 2353.39 1468.59 Q2351.56 1466.44 2348.41 1466.44 M2357.69 1451.78 L2357.69 1456.04 Q2355.93 1455.21 2354.13 1454.77 Q2352.35 1454.33 2350.59 1454.33 Q2345.96 1454.33 2343.5 1457.45 Q2341.07 1460.58 2340.72 1466.9 Q2342.09 1464.89 2344.15 1463.82 Q2346.21 1462.73 2348.69 1462.73 Q2353.9 1462.73 2356.91 1465.9 Q2359.94 1469.05 2359.94 1474.49 Q2359.94 1479.82 2356.79 1483.03 Q2353.64 1486.25 2348.41 1486.25 Q2342.41 1486.25 2339.24 1481.67 Q2336.07 1477.06 2336.07 1468.33 Q2336.07 1460.14 2339.96 1455.28 Q2343.85 1450.39 2350.4 1450.39 Q2352.16 1450.39 2353.94 1450.74 Q2355.75 1451.09 2357.69 1451.78 Z" fill="#000000" fill-rule="nonzero" fill-opacity="1"></path><path clip-path="url(#clip290)" d="M1757.89 1518.52 L1763.75 1518.52 L1763.75 1568.04 L1757.89 1568.04 L1757.89 1518.52 Z" fill="#000000" fill-rule="nonzero" fill-opacity="1"></path><path clip-path="url(#clip290)" d="M1789.82 1536.5 Q1785.11 1536.5 1782.37 1540.19 Q1779.63 1543.85 1779.63 1550.25 Q1779.63 1556.65 1782.34 1560.34 Q1785.08 1564 1789.82 1564 Q1794.5 1564 1797.23 1560.31 Q1799.97 1556.62 1799.97 1550.25 Q1799.97 1543.92 1797.23 1540.23 Q1794.5 1536.5 1789.82 1536.5 M1789.82 1531.54 Q1797.46 1531.54 1801.82 1536.5 Q1806.18 1541.47 1806.18 1550.25 Q1806.18 1559 1801.82 1564 Q1797.46 1568.97 1789.82 1568.97 Q1782.15 1568.97 1777.79 1564 Q1773.46 1559 1773.46 1550.25 Q1773.46 1541.47 1777.79 1536.5 Q1782.15 1531.54 1789.82 1531.54 Z" fill="#000000" fill-rule="nonzero" fill-opacity="1"></path><path clip-path="url(#clip290)" d="M1839.34 1549.81 Q1839.34 1543.44 1836.7 1539.94 Q1834.09 1536.44 1829.35 1536.44 Q1824.64 1536.44 1822 1539.94 Q1819.39 1543.44 1819.39 1549.81 Q1819.39 1556.14 1822 1559.64 Q1824.64 1563.14 1829.35 1563.14 Q1834.09 1563.14 1836.7 1559.64 Q1839.34 1556.14 1839.34 1549.81 M1845.2 1563.62 Q1845.2 1572.72 1841.16 1577.15 Q1837.12 1581.6 1828.78 1581.6 Q1825.69 1581.6 1822.95 1581.13 Q1820.21 1580.68 1817.64 1579.72 L1817.64 1574.03 Q1820.21 1575.43 1822.73 1576.1 Q1825.24 1576.76 1827.85 1576.76 Q1833.61 1576.76 1836.48 1573.74 Q1839.34 1570.75 1839.34 1564.67 L1839.34 1561.77 Q1837.53 1564.92 1834.7 1566.48 Q1831.86 1568.04 1827.92 1568.04 Q1821.36 1568.04 1817.35 1563.05 Q1813.34 1558.05 1813.34 1549.81 Q1813.34 1541.53 1817.35 1536.53 Q1821.36 1531.54 1827.92 1531.54 Q1831.86 1531.54 1834.7 1533.1 Q1837.53 1534.66 1839.34 1537.81 L1839.34 1532.4 L1845.2 1532.4 L1845.2 1563.62 Z" fill="#000000" fill-rule="nonzero" fill-opacity="1"></path><path clip-path="url(#clip290)" d="M1856.09 1564.54 L1862.58 1564.54 L1862.58 1545.1 L1855.48 1546.4 L1855.48 1542.71 L1862.8 1541.47 L1867.16 1541.47 L1867.16 1564.54 L1873.69 1564.54 L1873.69 1568.04 L1856.09 1568.04 L1856.09 1564.54 Z" fill="#000000" fill-rule="nonzero" fill-opacity="1"></path><path clip-path="url(#clip290)" d="M1895.39 1546.5 Q1893.8 1543.76 1890.59 1543.76 Q1887.37 1543.76 1885.78 1546.5 Q1884.16 1549.23 1884.16 1554.71 Q1884.16 1560.21 1885.78 1562.95 Q1887.37 1565.69 1890.59 1565.69 Q1893.8 1565.69 1895.39 1562.95 Q1897.02 1560.21 1897.02 1554.71 Q1897.02 1549.23 1895.39 1546.5 M1890.59 1540.93 Q1895.71 1540.93 1898.42 1544.46 Q1901.12 1547.99 1901.12 1554.71 Q1901.12 1561.46 1898.42 1564.99 Q1895.71 1568.52 1890.59 1568.52 Q1885.43 1568.52 1882.73 1564.99 Q1880.02 1561.46 1880.02 1554.71 Q1880.02 1547.99 1882.73 1544.46 Q1885.43 1540.93 1890.59 1540.93 Z" fill="#000000" fill-rule="nonzero" fill-opacity="1"></path><path clip-path="url(#clip290)" d="M1923.59 1518.58 Q1919.33 1525.9 1917.26 1533.06 Q1915.19 1540.23 1915.19 1547.58 Q1915.19 1554.93 1917.26 1562.16 Q1919.36 1569.35 1923.59 1576.64 L1918.5 1576.64 Q1913.73 1569.16 1911.34 1561.93 Q1908.98 1554.71 1908.98 1547.58 Q1908.98 1540.48 1911.34 1533.29 Q1913.7 1526.09 1918.5 1518.58 L1923.59 1518.58 Z" fill="#000000" fill-rule="nonzero" fill-opacity="1"></path><path clip-path="url(#clip290)" d="M1936.9 1562.63 L1947.4 1562.63 L1947.4 1526.38 L1935.98 1528.67 L1935.98 1522.82 L1947.34 1520.52 L1953.77 1520.52 L1953.77 1562.63 L1964.27 1562.63 L1964.27 1568.04 L1936.9 1568.04 L1936.9 1562.63 Z" fill="#000000" fill-rule="nonzero" fill-opacity="1"></path><path clip-path="url(#clip290)" d="M1986.84 1520.52 L1992.25 1520.52 L1975.7 1574.09 L1970.29 1574.09 L1986.84 1520.52 Z" fill="#000000" fill-rule="nonzero" fill-opacity="1"></path><path clip-path="url(#clip290)" d="M2014.53 1526.86 L2001.48 1562.7 L2027.61 1562.7 L2014.53 1526.86 M1992.76 1568.04 L2010.9 1520.52 L2018.19 1520.52 L2036.3 1568.04 L1992.76 1568.04 Z" fill="#000000" fill-rule="nonzero" fill-opacity="1"></path><path clip-path="url(#clip290)" d="M2048.78 1522.27 L2048.78 1532.4 L2060.84 1532.4 L2060.84 1536.95 L2048.78 1536.95 L2048.78 1556.3 Q2048.78 1560.66 2049.95 1561.9 Q2051.16 1563.14 2054.82 1563.14 L2060.84 1563.14 L2060.84 1568.04 L2054.82 1568.04 Q2048.04 1568.04 2045.47 1565.53 Q2042.89 1562.98 2042.89 1556.3 L2042.89 1536.95 L2038.59 1536.95 L2038.59 1532.4 L2042.89 1532.4 L2042.89 1522.27 L2048.78 1522.27 Z" fill="#000000" fill-rule="nonzero" fill-opacity="1"></path><path clip-path="url(#clip290)" d="M2067.62 1518.58 L2072.71 1518.58 Q2077.48 1526.09 2079.84 1533.29 Q2082.23 1540.48 2082.23 1547.58 Q2082.23 1554.71 2079.84 1561.93 Q2077.48 1569.16 2072.71 1576.64 L2067.62 1576.64 Q2071.85 1569.35 2073.92 1562.16 Q2076.02 1554.93 2076.02 1547.58 Q2076.02 1540.23 2073.92 1533.06 Q2071.85 1525.9 2067.62 1518.58 Z" fill="#000000" fill-rule="nonzero" fill-opacity="1"></path><polyline clip-path="url(#clip290)" style="stroke:#000000; stroke-linecap:round; stroke-linejoin:round; stroke-width:4; stroke-opacity:1; fill:none" points="1487.37,1423.18 1487.37,47.2441 "></polyline>
<polyline clip-path="url(#clip290)" style="stroke:#000000; stroke-linecap:round; stroke-linejoin:round; stroke-width:4; stroke-opacity:1; fill:none" points="1487.37,1247.47 1506.26,1247.47 "></polyline>
<polyline clip-path="url(#clip290)" style="stroke:#000000; stroke-linecap:round; stroke-linejoin:round; stroke-width:4; stroke-opacity:1; fill:none" points="1487.37,977.971 1506.26,977.971 "></polyline>
<polyline clip-path="url(#clip290)" style="stroke:#000000; stroke-linecap:round; stroke-linejoin:round; stroke-width:4; stroke-opacity:1; fill:none" points="1487.37,708.468 1506.26,708.468 "></polyline>
<polyline clip-path="url(#clip290)" style="stroke:#000000; stroke-linecap:round; stroke-linejoin:round; stroke-width:4; stroke-opacity:1; fill:none" points="1487.37,438.966 1506.26,438.966 "></polyline>
<polyline clip-path="url(#clip290)" style="stroke:#000000; stroke-linecap:round; stroke-linejoin:round; stroke-width:4; stroke-opacity:1; fill:none" points="1487.37,169.464 1506.26,169.464 "></polyline>
<path clip-path="url(#clip290)" d="M1315.26 1247.92 L1344.93 1247.92 L1344.93 1251.86 L1315.26 1251.86 L1315.26 1247.92 Z" fill="#000000" fill-rule="nonzero" fill-opacity="1"></path><path clip-path="url(#clip290)" d="M1367.87 1234.27 L1356.07 1252.72 L1367.87 1252.72 L1367.87 1234.27 M1366.64 1230.19 L1372.52 1230.19 L1372.52 1252.72 L1377.45 1252.72 L1377.45 1256.6 L1372.52 1256.6 L1372.52 1264.75 L1367.87 1264.75 L1367.87 1256.6 L1352.27 1256.6 L1352.27 1252.09 L1366.64 1230.19 Z" fill="#000000" fill-rule="nonzero" fill-opacity="1"></path><path clip-path="url(#clip290)" d="M1385.19 1258.87 L1390.07 1258.87 L1390.07 1264.75 L1385.19 1264.75 L1385.19 1258.87 Z" fill="#000000" fill-rule="nonzero" fill-opacity="1"></path><path clip-path="url(#clip290)" d="M1404.28 1260.82 L1420.6 1260.82 L1420.6 1264.75 L1398.66 1264.75 L1398.66 1260.82 Q1401.32 1258.06 1405.9 1253.43 Q1410.51 1248.78 1411.69 1247.44 Q1413.94 1244.92 1414.82 1243.18 Q1415.72 1241.42 1415.72 1239.73 Q1415.72 1236.98 1413.77 1235.24 Q1411.85 1233.5 1408.75 1233.5 Q1406.55 1233.5 1404.1 1234.27 Q1401.67 1235.03 1398.89 1236.58 L1398.89 1231.86 Q1401.71 1230.73 1404.17 1230.15 Q1406.62 1229.57 1408.66 1229.57 Q1414.03 1229.57 1417.22 1232.25 Q1420.42 1234.94 1420.42 1239.43 Q1420.42 1241.56 1419.61 1243.48 Q1418.82 1245.38 1416.71 1247.97 Q1416.13 1248.64 1413.03 1251.86 Q1409.93 1255.05 1404.28 1260.82 Z" fill="#000000" fill-rule="nonzero" fill-opacity="1"></path><path clip-path="url(#clip290)" d="M1430.46 1230.19 L1448.82 1230.19 L1448.82 1234.13 L1434.75 1234.13 L1434.75 1242.6 Q1435.76 1242.25 1436.78 1242.09 Q1437.8 1241.91 1438.82 1241.91 Q1444.61 1241.91 1447.99 1245.08 Q1451.37 1248.25 1451.37 1253.67 Q1451.37 1259.24 1447.89 1262.35 Q1444.42 1265.42 1438.1 1265.42 Q1435.93 1265.42 1433.66 1265.05 Q1431.41 1264.68 1429 1263.94 L1429 1259.24 Q1431.09 1260.38 1433.31 1260.93 Q1435.53 1261.49 1438.01 1261.49 Q1442.01 1261.49 1444.35 1259.38 Q1446.69 1257.28 1446.69 1253.67 Q1446.69 1250.05 1444.35 1247.95 Q1442.01 1245.84 1438.01 1245.84 Q1436.13 1245.84 1434.26 1246.26 Q1432.41 1246.67 1430.46 1247.55 L1430.46 1230.19 Z" fill="#000000" fill-rule="nonzero" fill-opacity="1"></path><path clip-path="url(#clip290)" d="M1314.26 978.422 L1343.94 978.422 L1343.94 982.357 L1314.26 982.357 L1314.26 978.422 Z" fill="#000000" fill-rule="nonzero" fill-opacity="1"></path><path clip-path="url(#clip290)" d="M1366.88 964.765 L1355.07 983.214 L1366.88 983.214 L1366.88 964.765 M1365.65 960.691 L1371.53 960.691 L1371.53 983.214 L1376.46 983.214 L1376.46 987.103 L1371.53 987.103 L1371.53 995.251 L1366.88 995.251 L1366.88 987.103 L1351.27 987.103 L1351.27 982.589 L1365.65 960.691 Z" fill="#000000" fill-rule="nonzero" fill-opacity="1"></path><path clip-path="url(#clip290)" d="M1384.19 989.371 L1389.07 989.371 L1389.07 995.251 L1384.19 995.251 L1384.19 989.371 Z" fill="#000000" fill-rule="nonzero" fill-opacity="1"></path><path clip-path="url(#clip290)" d="M1409.26 963.769 Q1405.65 963.769 1403.82 967.334 Q1402.01 970.876 1402.01 978.005 Q1402.01 985.112 1403.82 988.677 Q1405.65 992.218 1409.26 992.218 Q1412.89 992.218 1414.7 988.677 Q1416.53 985.112 1416.53 978.005 Q1416.53 970.876 1414.7 967.334 Q1412.89 963.769 1409.26 963.769 M1409.26 960.066 Q1415.07 960.066 1418.13 964.672 Q1421.2 969.255 1421.2 978.005 Q1421.2 986.732 1418.13 991.339 Q1415.07 995.922 1409.26 995.922 Q1403.45 995.922 1400.37 991.339 Q1397.32 986.732 1397.32 978.005 Q1397.32 969.255 1400.37 964.672 Q1403.45 960.066 1409.26 960.066 Z" fill="#000000" fill-rule="nonzero" fill-opacity="1"></path><path clip-path="url(#clip290)" d="M1439.42 963.769 Q1435.81 963.769 1433.98 967.334 Q1432.18 970.876 1432.18 978.005 Q1432.18 985.112 1433.98 988.677 Q1435.81 992.218 1439.42 992.218 Q1443.06 992.218 1444.86 988.677 Q1446.69 985.112 1446.69 978.005 Q1446.69 970.876 1444.86 967.334 Q1443.06 963.769 1439.42 963.769 M1439.42 960.066 Q1445.23 960.066 1448.29 964.672 Q1451.37 969.255 1451.37 978.005 Q1451.37 986.732 1448.29 991.339 Q1445.23 995.922 1439.42 995.922 Q1433.61 995.922 1430.53 991.339 Q1427.48 986.732 1427.48 978.005 Q1427.48 969.255 1430.53 964.672 Q1433.61 960.066 1439.42 960.066 Z" fill="#000000" fill-rule="nonzero" fill-opacity="1"></path><path clip-path="url(#clip290)" d="M1315.26 708.92 L1344.93 708.92 L1344.93 712.855 L1315.26 712.855 L1315.26 708.92 Z" fill="#000000" fill-rule="nonzero" fill-opacity="1"></path><path clip-path="url(#clip290)" d="M1369.19 707.114 Q1372.55 707.832 1374.42 710.1 Q1376.32 712.369 1376.32 715.702 Q1376.32 720.818 1372.8 723.619 Q1369.28 726.42 1362.8 726.42 Q1360.63 726.42 1358.31 725.98 Q1356.02 725.563 1353.57 724.707 L1353.57 720.193 Q1355.51 721.327 1357.82 721.906 Q1360.14 722.485 1362.66 722.485 Q1367.06 722.485 1369.35 720.748 Q1371.67 719.012 1371.67 715.702 Q1371.67 712.647 1369.51 710.934 Q1367.38 709.198 1363.57 709.198 L1359.54 709.198 L1359.54 705.355 L1363.75 705.355 Q1367.2 705.355 1369.03 703.989 Q1370.86 702.6 1370.86 700.008 Q1370.86 697.346 1368.96 695.934 Q1367.08 694.499 1363.57 694.499 Q1361.64 694.499 1359.45 694.915 Q1357.25 695.332 1354.61 696.211 L1354.61 692.045 Q1357.27 691.304 1359.58 690.934 Q1361.92 690.563 1363.98 690.563 Q1369.31 690.563 1372.41 692.994 Q1375.51 695.401 1375.51 699.522 Q1375.51 702.392 1373.87 704.383 Q1372.22 706.35 1369.19 707.114 Z" fill="#000000" fill-rule="nonzero" fill-opacity="1"></path><path clip-path="url(#clip290)" d="M1385.19 719.869 L1390.07 719.869 L1390.07 725.748 L1385.19 725.748 L1385.19 719.869 Z" fill="#000000" fill-rule="nonzero" fill-opacity="1"></path><path clip-path="url(#clip290)" d="M1399.07 691.188 L1421.3 691.188 L1421.3 693.179 L1408.75 725.748 L1403.87 725.748 L1415.67 695.124 L1399.07 695.124 L1399.07 691.188 Z" fill="#000000" fill-rule="nonzero" fill-opacity="1"></path><path clip-path="url(#clip290)" d="M1430.46 691.188 L1448.82 691.188 L1448.82 695.124 L1434.75 695.124 L1434.75 703.596 Q1435.76 703.248 1436.78 703.086 Q1437.8 702.901 1438.82 702.901 Q1444.61 702.901 1447.99 706.073 Q1451.37 709.244 1451.37 714.66 Q1451.37 720.239 1447.89 723.341 Q1444.42 726.42 1438.1 726.42 Q1435.93 726.42 1433.66 726.049 Q1431.41 725.679 1429 724.938 L1429 720.239 Q1431.09 721.373 1433.31 721.929 Q1435.53 722.485 1438.01 722.485 Q1442.01 722.485 1444.35 720.378 Q1446.69 718.272 1446.69 714.66 Q1446.69 711.049 1444.35 708.943 Q1442.01 706.836 1438.01 706.836 Q1436.13 706.836 1434.26 707.253 Q1432.41 707.67 1430.46 708.549 L1430.46 691.188 Z" fill="#000000" fill-rule="nonzero" fill-opacity="1"></path><path clip-path="url(#clip290)" d="M1314.26 439.417 L1343.94 439.417 L1343.94 443.353 L1314.26 443.353 L1314.26 439.417 Z" fill="#000000" fill-rule="nonzero" fill-opacity="1"></path><path clip-path="url(#clip290)" d="M1368.2 437.612 Q1371.55 438.329 1373.43 440.598 Q1375.32 442.866 1375.32 446.2 Q1375.32 451.316 1371.81 454.116 Q1368.29 456.917 1361.81 456.917 Q1359.63 456.917 1357.32 456.478 Q1355.02 456.061 1352.57 455.204 L1352.57 450.691 Q1354.51 451.825 1356.83 452.403 Q1359.14 452.982 1361.67 452.982 Q1366.07 452.982 1368.36 451.246 Q1370.67 449.51 1370.67 446.2 Q1370.67 443.144 1368.52 441.431 Q1366.39 439.695 1362.57 439.695 L1358.54 439.695 L1358.54 435.853 L1362.76 435.853 Q1366.2 435.853 1368.03 434.487 Q1369.86 433.098 1369.86 430.505 Q1369.86 427.843 1367.96 426.431 Q1366.09 424.996 1362.57 424.996 Q1360.65 424.996 1358.45 425.413 Q1356.25 425.83 1353.61 426.709 L1353.61 422.543 Q1356.27 421.802 1358.59 421.431 Q1360.93 421.061 1362.99 421.061 Q1368.31 421.061 1371.41 423.492 Q1374.51 425.899 1374.51 430.019 Q1374.51 432.89 1372.87 434.88 Q1371.23 436.848 1368.2 437.612 Z" fill="#000000" fill-rule="nonzero" fill-opacity="1"></path><path clip-path="url(#clip290)" d="M1384.19 450.366 L1389.07 450.366 L1389.07 456.246 L1384.19 456.246 L1384.19 450.366 Z" fill="#000000" fill-rule="nonzero" fill-opacity="1"></path><path clip-path="url(#clip290)" d="M1399.31 421.686 L1417.66 421.686 L1417.66 425.621 L1403.59 425.621 L1403.59 434.093 Q1404.61 433.746 1405.63 433.584 Q1406.64 433.399 1407.66 433.399 Q1413.45 433.399 1416.83 436.57 Q1420.21 439.741 1420.21 445.158 Q1420.21 450.737 1416.74 453.839 Q1413.26 456.917 1406.94 456.917 Q1404.77 456.917 1402.5 456.547 Q1400.26 456.177 1397.85 455.436 L1397.85 450.737 Q1399.93 451.871 1402.15 452.427 Q1404.38 452.982 1406.85 452.982 Q1410.86 452.982 1413.19 450.876 Q1415.53 448.769 1415.53 445.158 Q1415.53 441.547 1413.19 439.441 Q1410.86 437.334 1406.85 437.334 Q1404.98 437.334 1403.1 437.751 Q1401.25 438.167 1399.31 439.047 L1399.31 421.686 Z" fill="#000000" fill-rule="nonzero" fill-opacity="1"></path><path clip-path="url(#clip290)" d="M1439.42 424.765 Q1435.81 424.765 1433.98 428.33 Q1432.18 431.871 1432.18 439.001 Q1432.18 446.107 1433.98 449.672 Q1435.81 453.214 1439.42 453.214 Q1443.06 453.214 1444.86 449.672 Q1446.69 446.107 1446.69 439.001 Q1446.69 431.871 1444.86 428.33 Q1443.06 424.765 1439.42 424.765 M1439.42 421.061 Q1445.23 421.061 1448.29 425.667 Q1451.37 430.251 1451.37 439.001 Q1451.37 447.728 1448.29 452.334 Q1445.23 456.917 1439.42 456.917 Q1433.61 456.917 1430.53 452.334 Q1427.48 447.728 1427.48 439.001 Q1427.48 430.251 1430.53 425.667 Q1433.61 421.061 1439.42 421.061 Z" fill="#000000" fill-rule="nonzero" fill-opacity="1"></path><path clip-path="url(#clip290)" d="M1315.26 169.915 L1344.93 169.915 L1344.93 173.85 L1315.26 173.85 L1315.26 169.915 Z" fill="#000000" fill-rule="nonzero" fill-opacity="1"></path><path clip-path="url(#clip290)" d="M1369.19 168.11 Q1372.55 168.827 1374.42 171.096 Q1376.32 173.364 1376.32 176.697 Q1376.32 181.813 1372.8 184.614 Q1369.28 187.415 1362.8 187.415 Q1360.63 187.415 1358.31 186.975 Q1356.02 186.559 1353.57 185.702 L1353.57 181.188 Q1355.51 182.322 1357.82 182.901 Q1360.14 183.48 1362.66 183.48 Q1367.06 183.48 1369.35 181.744 Q1371.67 180.008 1371.67 176.697 Q1371.67 173.642 1369.51 171.929 Q1367.38 170.193 1363.57 170.193 L1359.54 170.193 L1359.54 166.35 L1363.75 166.35 Q1367.2 166.35 1369.03 164.985 Q1370.86 163.596 1370.86 161.003 Q1370.86 158.341 1368.96 156.929 Q1367.08 155.494 1363.57 155.494 Q1361.64 155.494 1359.45 155.911 Q1357.25 156.327 1354.61 157.207 L1354.61 153.04 Q1357.27 152.299 1359.58 151.929 Q1361.92 151.559 1363.98 151.559 Q1369.31 151.559 1372.41 153.989 Q1375.51 156.397 1375.51 160.517 Q1375.51 163.387 1373.87 165.378 Q1372.22 167.346 1369.19 168.11 Z" fill="#000000" fill-rule="nonzero" fill-opacity="1"></path><path clip-path="url(#clip290)" d="M1385.19 180.864 L1390.07 180.864 L1390.07 186.744 L1385.19 186.744 L1385.19 180.864 Z" fill="#000000" fill-rule="nonzero" fill-opacity="1"></path><path clip-path="url(#clip290)" d="M1404.28 182.809 L1420.6 182.809 L1420.6 186.744 L1398.66 186.744 L1398.66 182.809 Q1401.32 180.054 1405.9 175.424 Q1410.51 170.772 1411.69 169.429 Q1413.94 166.906 1414.82 165.17 Q1415.72 163.41 1415.72 161.721 Q1415.72 158.966 1413.77 157.23 Q1411.85 155.494 1408.75 155.494 Q1406.55 155.494 1404.1 156.258 Q1401.67 157.022 1398.89 158.573 L1398.89 153.85 Q1401.71 152.716 1404.17 152.137 Q1406.62 151.559 1408.66 151.559 Q1414.03 151.559 1417.22 154.244 Q1420.42 156.929 1420.42 161.42 Q1420.42 163.549 1419.61 165.471 Q1418.82 167.369 1416.71 169.961 Q1416.13 170.633 1413.03 173.85 Q1409.93 177.045 1404.28 182.809 Z" fill="#000000" fill-rule="nonzero" fill-opacity="1"></path><path clip-path="url(#clip290)" d="M1430.46 152.184 L1448.82 152.184 L1448.82 156.119 L1434.75 156.119 L1434.75 164.591 Q1435.76 164.244 1436.78 164.082 Q1437.8 163.897 1438.82 163.897 Q1444.61 163.897 1447.99 167.068 Q1451.37 170.239 1451.37 175.656 Q1451.37 181.234 1447.89 184.336 Q1444.42 187.415 1438.1 187.415 Q1435.93 187.415 1433.66 187.045 Q1431.41 186.674 1429 185.934 L1429 181.234 Q1431.09 182.369 1433.31 182.924 Q1435.53 183.48 1438.01 183.48 Q1442.01 183.48 1444.35 181.373 Q1446.69 179.267 1446.69 175.656 Q1446.69 172.045 1444.35 169.938 Q1442.01 167.832 1438.01 167.832 Q1436.13 167.832 1434.26 168.248 Q1432.41 168.665 1430.46 169.545 L1430.46 152.184 Z" fill="#000000" fill-rule="nonzero" fill-opacity="1"></path><path clip-path="url(#clip290)" d="M1214.48 892.031 L1214.48 886.175 L1264 886.175 L1264 892.031 L1214.48 892.031 Z" fill="#000000" fill-rule="nonzero" fill-opacity="1"></path><path clip-path="url(#clip290)" d="M1232.46 860.107 Q1232.46 864.818 1236.15 867.555 Q1239.81 870.292 1246.21 870.292 Q1252.61 870.292 1256.3 867.587 Q1259.96 864.85 1259.96 860.107 Q1259.96 855.428 1256.27 852.691 Q1252.58 849.954 1246.21 849.954 Q1239.88 849.954 1236.19 852.691 Q1232.46 855.428 1232.46 860.107 M1227.5 860.107 Q1227.5 852.468 1232.46 848.108 Q1237.43 843.747 1246.21 843.747 Q1254.96 843.747 1259.96 848.108 Q1264.93 852.468 1264.93 860.107 Q1264.93 867.778 1259.96 872.138 Q1254.96 876.467 1246.21 876.467 Q1237.43 876.467 1232.46 872.138 Q1227.5 867.778 1227.5 860.107 Z" fill="#000000" fill-rule="nonzero" fill-opacity="1"></path><path clip-path="url(#clip290)" d="M1245.77 810.582 Q1239.4 810.582 1235.9 813.224 Q1232.4 815.834 1232.4 820.576 Q1232.4 825.287 1235.9 827.928 Q1239.4 830.538 1245.77 830.538 Q1252.1 830.538 1255.6 827.928 Q1259.1 825.287 1259.1 820.576 Q1259.1 815.834 1255.6 813.224 Q1252.1 810.582 1245.77 810.582 M1259.58 804.725 Q1268.68 804.725 1273.11 808.768 Q1277.56 812.81 1277.56 821.149 Q1277.56 824.236 1277.09 826.974 Q1276.64 829.711 1275.69 832.289 L1269.99 832.289 Q1271.39 829.711 1272.06 827.196 Q1272.73 824.682 1272.73 822.072 Q1272.73 816.311 1269.7 813.447 Q1266.71 810.582 1260.63 810.582 L1257.73 810.582 Q1260.88 812.396 1262.44 815.229 Q1264 818.062 1264 822.008 Q1264 828.565 1259.01 832.575 Q1254.01 836.586 1245.77 836.586 Q1237.49 836.586 1232.49 832.575 Q1227.5 828.565 1227.5 822.008 Q1227.5 818.062 1229.06 815.229 Q1230.62 812.396 1233.77 810.582 L1228.36 810.582 L1228.36 804.725 L1259.58 804.725 Z" fill="#000000" fill-rule="nonzero" fill-opacity="1"></path><path clip-path="url(#clip290)" d="M1258.59 790.721 L1258.59 780.218 L1222.34 780.218 L1224.63 791.644 L1218.78 791.644 L1216.48 780.281 L1216.48 773.852 L1258.59 773.852 L1258.59 763.348 L1264 763.348 L1264 790.721 L1258.59 790.721 Z" fill="#000000" fill-rule="nonzero" fill-opacity="1"></path><path clip-path="url(#clip290)" d="M1260.5 752.368 L1260.5 745.875 L1241.06 745.875 L1242.36 752.972 L1238.67 752.972 L1237.43 745.652 L1237.43 741.291 L1260.5 741.291 L1260.5 734.766 L1264 734.766 L1264 752.368 L1260.5 752.368 Z" fill="#000000" fill-rule="nonzero" fill-opacity="1"></path><path clip-path="url(#clip290)" d="M1242.46 713.059 Q1239.72 714.651 1239.72 717.865 Q1239.72 721.08 1242.46 722.672 Q1245.19 724.295 1250.67 724.295 Q1256.17 724.295 1258.91 722.672 Q1261.65 721.08 1261.65 717.865 Q1261.65 714.651 1258.91 713.059 Q1256.17 711.436 1250.67 711.436 Q1245.19 711.436 1242.46 713.059 M1236.89 717.865 Q1236.89 712.741 1240.42 710.036 Q1243.95 707.33 1250.67 707.33 Q1257.42 707.33 1260.95 710.036 Q1264.48 712.741 1264.48 717.865 Q1264.48 723.022 1260.95 725.727 Q1257.42 728.432 1250.67 728.432 Q1243.95 728.432 1240.42 725.727 Q1236.89 723.022 1236.89 717.865 Z" fill="#000000" fill-rule="nonzero" fill-opacity="1"></path><path clip-path="url(#clip290)" d="M1214.54 684.859 Q1221.86 689.124 1229.02 691.193 Q1236.19 693.262 1243.54 693.262 Q1250.89 693.262 1258.12 691.193 Q1265.31 689.092 1272.6 684.859 L1272.6 689.952 Q1265.12 694.726 1257.89 697.113 Q1250.67 699.469 1243.54 699.469 Q1236.44 699.469 1229.25 697.113 Q1222.05 694.758 1214.54 689.952 L1214.54 684.859 Z" fill="#000000" fill-rule="nonzero" fill-opacity="1"></path><path clip-path="url(#clip290)" d="M1234.02 648.32 Q1233.61 649.498 1233.29 650.675 Q1232.46 653.826 1232.46 657.2 Q1232.46 663.025 1235.61 666.271 Q1238.54 669.295 1243.92 669.868 L1243.92 648.32 L1248.5 648.32 L1248.5 669.868 Q1253.88 669.295 1256.81 666.271 Q1259.96 663.025 1259.96 657.2 Q1259.96 653.126 1259.13 650.675 L1258.34 648.32 L1263.65 648.32 L1264.23 650.835 Q1264.93 654.145 1264.93 657.55 Q1264.93 666.08 1259.96 671.046 Q1255 676.043 1246.21 676.043 Q1237.43 676.043 1232.46 671.046 Q1227.5 666.08 1227.5 657.55 Q1227.5 654.336 1228.2 650.835 Q1228.45 649.561 1228.83 648.32 L1234.02 648.32 Z" fill="#000000" fill-rule="nonzero" fill-opacity="1"></path><path clip-path="url(#clip290)" d="M1249.94 633.997 L1228.36 633.997 L1228.36 628.141 L1249.71 628.141 Q1254.77 628.141 1257.32 626.167 Q1259.83 624.194 1259.83 620.247 Q1259.83 615.505 1256.81 612.768 Q1253.79 609.999 1248.57 609.999 L1228.36 609.999 L1228.36 604.142 L1264 604.142 L1264 609.999 L1258.53 609.999 Q1261.78 612.131 1263.37 614.964 Q1264.93 617.765 1264.93 621.489 Q1264.93 627.632 1261.11 630.814 Q1257.29 633.997 1249.94 633.997 M1227.5 619.261 L1227.5 619.261 Z" fill="#000000" fill-rule="nonzero" fill-opacity="1"></path><path clip-path="url(#clip290)" d="M1214.54 593.002 L1214.54 587.91 Q1222.05 583.135 1229.25 580.78 Q1236.44 578.393 1243.54 578.393 Q1250.67 578.393 1257.89 580.78 Q1265.12 583.135 1272.6 587.91 L1272.6 593.002 Q1265.31 588.769 1258.12 586.7 Q1250.89 584.599 1243.54 584.599 Q1236.19 584.599 1229.02 586.7 Q1221.86 588.769 1214.54 593.002 Z" fill="#000000" fill-rule="nonzero" fill-opacity="1"></path><circle clip-path="url(#clip293)" cx="1511.86" cy="86.1857" r="14.4" fill="#009af9" fill-rule="evenodd" fill-opacity="1" stroke="#000000" stroke-opacity="1" stroke-width="3.2"></circle>
<circle clip-path="url(#clip293)" cx="1920.06" cy="699.897" r="14.4" fill="#009af9" fill-rule="evenodd" fill-opacity="1" stroke="#000000" stroke-opacity="1" stroke-width="3.2"></circle>
<circle clip-path="url(#clip293)" cx="2328.26" cy="1331.26" r="14.4" fill="#009af9" fill-rule="evenodd" fill-opacity="1" stroke="#000000" stroke-opacity="1" stroke-width="3.2"></circle>
<polyline clip-path="url(#clip293)" style="stroke:#e26f46; stroke-linecap:round; stroke-linejoin:round; stroke-width:4; stroke-opacity:1; fill:none" points="1511.86,86.1857 1920.06,410.699 2328.26,735.212 "></polyline>
<polyline clip-path="url(#clip293)" style="stroke:#3da44d; stroke-linecap:round; stroke-linejoin:round; stroke-width:4; stroke-opacity:1; fill:none" points="1511.86,86.1857 1920.06,735.212 2328.26,1384.24 "></polyline>
<path clip-path="url(#clip290)" d="M2176.93 300.469 L2323.91 300.469 L2323.91 93.1086 L2176.93 93.1086  Z" fill="#ffffff" fill-rule="evenodd" fill-opacity="1"></path>
<polyline clip-path="url(#clip290)" style="stroke:#000000; stroke-linecap:round; stroke-linejoin:round; stroke-width:4; stroke-opacity:1; fill:none" points="2176.93,300.469 2323.91,300.469 2323.91,93.1086 2176.93,93.1086 2176.93,300.469 "></polyline>
<circle clip-path="url(#clip290)" cx="2215.39" cy="144.949" r="20.48" fill="#009af9" fill-rule="evenodd" fill-opacity="1" stroke="#000000" stroke-opacity="1" stroke-width="4.55111"></circle>
<path clip-path="url(#clip290)" d="M2274.02 140.423 Q2273.16 140.122 2272.3 139.891 Q2270.01 139.289 2267.56 139.289 Q2263.32 139.289 2260.96 141.581 Q2258.76 143.71 2258.35 147.622 L2274.02 147.622 L2274.02 150.956 L2258.35 150.956 Q2258.76 154.868 2260.96 156.997 Q2263.32 159.289 2267.56 159.289 Q2270.52 159.289 2272.3 158.687 L2274.02 158.108 L2274.02 161.974 L2272.19 162.391 Q2269.78 162.9 2267.3 162.9 Q2261.1 162.9 2257.49 159.289 Q2253.85 155.678 2253.85 149.289 Q2253.85 142.9 2257.49 139.289 Q2261.1 135.678 2267.3 135.678 Q2269.64 135.678 2272.19 136.187 Q2273.11 136.372 2274.02 136.65 L2274.02 140.423 Z" fill="#000000" fill-rule="nonzero" fill-opacity="1"></path><polyline clip-path="url(#clip290)" style="stroke:#e26f46; stroke-linecap:round; stroke-linejoin:round; stroke-width:4; stroke-opacity:1; fill:none" points="2186.55,196.789 2244.24,196.789 "></polyline>
<path clip-path="url(#clip290)" d="M2269.87 182.68 Q2264.78 182.68 2261.77 186.476 Q2258.79 190.272 2258.79 196.823 Q2258.79 203.351 2261.77 207.147 Q2264.78 210.944 2269.87 210.944 Q2274.97 210.944 2277.93 207.147 Q2280.91 203.351 2280.91 196.823 Q2280.91 190.272 2277.93 186.476 Q2274.97 182.68 2269.87 182.68 M2269.87 178.884 Q2277.14 178.884 2281.49 183.768 Q2285.85 188.629 2285.85 196.823 Q2285.85 204.995 2281.49 209.879 Q2277.14 214.74 2269.87 214.74 Q2262.58 214.74 2258.21 209.879 Q2253.85 205.018 2253.85 196.823 Q2253.85 188.629 2258.21 183.768 Q2262.58 178.884 2269.87 178.884 Z" fill="#000000" fill-rule="nonzero" fill-opacity="1"></path><path clip-path="url(#clip290)" d="M2294.39 210.133 L2302.03 210.133 L2302.03 183.768 L2293.72 185.435 L2293.72 181.175 L2301.98 179.509 L2306.66 179.509 L2306.66 210.133 L2314.29 210.133 L2314.29 214.069 L2294.39 214.069 L2294.39 210.133 Z" fill="#000000" fill-rule="nonzero" fill-opacity="1"></path><polyline clip-path="url(#clip290)" style="stroke:#3da44d; stroke-linecap:round; stroke-linejoin:round; stroke-width:4; stroke-opacity:1; fill:none" points="2186.55,248.629 2244.24,248.629 "></polyline>
<path clip-path="url(#clip290)" d="M2269.87 234.52 Q2264.78 234.52 2261.77 238.316 Q2258.79 242.112 2258.79 248.663 Q2258.79 255.191 2261.77 258.987 Q2264.78 262.784 2269.87 262.784 Q2274.97 262.784 2277.93 258.987 Q2280.91 255.191 2280.91 248.663 Q2280.91 242.112 2277.93 238.316 Q2274.97 234.52 2269.87 234.52 M2269.87 230.724 Q2277.14 230.724 2281.49 235.608 Q2285.85 240.469 2285.85 248.663 Q2285.85 256.835 2281.49 261.719 Q2277.14 266.58 2269.87 266.58 Q2262.58 266.58 2258.21 261.719 Q2253.85 256.858 2253.85 248.663 Q2253.85 240.469 2258.21 235.608 Q2262.58 230.724 2269.87 230.724 Z" fill="#000000" fill-rule="nonzero" fill-opacity="1"></path><path clip-path="url(#clip290)" d="M2297.6 261.973 L2313.92 261.973 L2313.92 265.909 L2291.98 265.909 L2291.98 261.973 Q2294.64 259.219 2299.22 254.589 Q2303.83 249.936 2305.01 248.594 Q2307.26 246.071 2308.14 244.335 Q2309.04 242.575 2309.04 240.886 Q2309.04 238.131 2307.1 236.395 Q2305.17 234.659 2302.07 234.659 Q2299.87 234.659 2297.42 235.423 Q2294.99 236.187 2292.21 237.737 L2292.21 233.015 Q2295.03 231.881 2297.49 231.302 Q2299.94 230.724 2301.98 230.724 Q2307.35 230.724 2310.54 233.409 Q2313.74 236.094 2313.74 240.585 Q2313.74 242.714 2312.93 244.636 Q2312.14 246.534 2310.03 249.126 Q2309.46 249.798 2306.35 253.015 Q2303.25 256.21 2297.6 261.973 Z" fill="#000000" fill-rule="nonzero" fill-opacity="1"></path></svg>