<svg xmlns="http://www.w3.org/2000/svg" xmlns:xlink="http://www.w3.org/1999/xlink" width="600" height="400" viewBox="0 0 2400 1600">
<defs>
  <clipPath id="clip330">
    <rect x="0" y="0" width="2400" height="1600"></rect>
  </clipPath>
</defs>
<path clip-path="url(#clip330)" d="M0 1600 L2400 1600 L2400 0 L0 0  Z" fill="#ffffff" fill-rule="evenodd" fill-opacity="1"></path>
<defs>
  <clipPath id="clip331">
    <rect x="480" y="0" width="1681" height="1600"></rect>
  </clipPath>
</defs>
<path clip-path="url(#clip330)" d="M287.366 1423.18 L1152.76 1423.18 L1152.76 47.2441 L287.366 47.2441  Z" fill="#ffffff" fill-rule="evenodd" fill-opacity="1"></path>
<defs>
  <clipPath id="clip332">
    <rect x="287" y="47" width="866" height="1377"></rect>
  </clipPath>
</defs>
<polyline clip-path="url(#clip332)" style="stroke:#000000; stroke-linecap:round; stroke-linejoin:round; stroke-width:2; stroke-opacity:0.1; fill:none" points="342.882,1423.18 342.882,47.2441 "></polyline>
<polyline clip-path="url(#clip332)" style="stroke:#000000; stroke-linecap:round; stroke-linejoin:round; stroke-width:2; stroke-opacity:0.1; fill:none" points="478.484,1423.18 478.484,47.2441 "></polyline>
<polyline clip-path="url(#clip332)" style="stroke:#000000; stroke-linecap:round; stroke-linejoin:round; stroke-width:2; stroke-opacity:0.1; fill:none" points="614.086,1423.18 614.086,47.2441 "></polyline>
<polyline clip-path="url(#clip332)" style="stroke:#000000; stroke-linecap:round; stroke-linejoin:round; stroke-width:2; stroke-opacity:0.1; fill:none" points="749.688,1423.18 749.688,47.2441 "></polyline>
<polyline clip-path="url(#clip332)" style="stroke:#000000; stroke-linecap:round; stroke-linejoin:round; stroke-width:2; stroke-opacity:0.1; fill:none" points="885.29,1423.18 885.29,47.2441 "></polyline>
<polyline clip-path="url(#clip332)" style="stroke:#000000; stroke-linecap:round; stroke-linejoin:round; stroke-width:2; stroke-opacity:0.1; fill:none" points="1020.89,1423.18 1020.89,47.2441 "></polyline>
<polyline clip-path="url(#clip332)" style="stroke:#000000; stroke-linecap:round; stroke-linejoin:round; stroke-width:2; stroke-opacity:0.1; fill:none" points="287.366,1167.75 1152.76,1167.75 "></polyline>
<polyline clip-path="url(#clip332)" style="stroke:#000000; stroke-linecap:round; stroke-linejoin:round; stroke-width:2; stroke-opacity:0.1; fill:none" points="287.366,898.243 1152.76,898.243 "></polyline>
<polyline clip-path="url(#clip332)" style="stroke:#000000; stroke-linecap:round; stroke-linejoin:round; stroke-width:2; stroke-opacity:0.1; fill:none" points="287.366,628.741 1152.76,628.741 "></polyline>
<polyline clip-path="url(#clip332)" style="stroke:#000000; stroke-linecap:round; stroke-linejoin:round; stroke-width:2; stroke-opacity:0.1; fill:none" points="287.366,359.238 1152.76,359.238 "></polyline>
<polyline clip-path="url(#clip332)" style="stroke:#000000; stroke-linecap:round; stroke-linejoin:round; stroke-width:2; stroke-opacity:0.1; fill:none" points="287.366,89.7359 1152.76,89.7359 "></polyline>
<polyline clip-path="url(#clip330)" style="stroke:#000000; stroke-linecap:round; stroke-linejoin:round; stroke-width:4; stroke-opacity:1; fill:none" points="287.366,1423.18 1152.76,1423.18 "></polyline>
<polyline clip-path="url(#clip330)" style="stroke:#000000; stroke-linecap:round; stroke-linejoin:round; stroke-width:4; stroke-opacity:1; fill:none" points="342.882,1423.18 342.882,1404.28 "></polyline>
<polyline clip-path="url(#clip330)" style="stroke:#000000; stroke-linecap:round; stroke-linejoin:round; stroke-width:4; stroke-opacity:1; fill:none" points="478.484,1423.18 478.484,1404.28 "></polyline>
<polyline clip-path="url(#clip330)" style="stroke:#000000; stroke-linecap:round; stroke-linejoin:round; stroke-width:4; stroke-opacity:1; fill:none" points="614.086,1423.18 614.086,1404.28 "></polyline>
<polyline clip-path="url(#clip330)" style="stroke:#000000; stroke-linecap:round; stroke-linejoin:round; stroke-width:4; stroke-opacity:1; fill:none" points="749.688,1423.18 749.688,1404.28 "></polyline>
<polyline clip-path="url(#clip330)" style="stroke:#000000; stroke-linecap:round; stroke-linejoin:round; stroke-width:4; stroke-opacity:1; fill:none" points="885.29,1423.18 885.29,1404.28 "></polyline>
<polyline clip-path="url(#clip330)" style="stroke:#000000; stroke-linecap:round; stroke-linejoin:round; stroke-width:4; stroke-opacity:1; fill:none" points="1020.89,1423.18 1020.89,1404.28 "></polyline>
<path clip-path="url(#clip330)" d="M310.533 1481.64 L318.172 1481.64 L318.172 1455.28 L309.861 1456.95 L309.861 1452.69 L318.125 1451.02 L322.801 1451.02 L322.801 1481.64 L330.44 1481.64 L330.44 1485.58 L310.533 1485.58 L310.533 1481.64 Z" fill="#000000" fill-rule="nonzero" fill-opacity="1"></path><path clip-path="url(#clip330)" d="M339.884 1479.7 L344.769 1479.7 L344.769 1485.58 L339.884 1485.58 L339.884 1479.7 Z" fill="#000000" fill-rule="nonzero" fill-opacity="1"></path><path clip-path="url(#clip330)" d="M355 1451.02 L373.356 1451.02 L373.356 1454.96 L359.282 1454.96 L359.282 1463.43 Q360.301 1463.08 361.32 1462.92 Q362.338 1462.73 363.357 1462.73 Q369.144 1462.73 372.523 1465.9 Q375.903 1469.08 375.903 1474.49 Q375.903 1480.07 372.431 1483.17 Q368.958 1486.25 362.639 1486.25 Q360.463 1486.25 358.195 1485.88 Q355.949 1485.51 353.542 1484.77 L353.542 1480.07 Q355.625 1481.2 357.847 1481.76 Q360.07 1482.32 362.546 1482.32 Q366.551 1482.32 368.889 1480.21 Q371.227 1478.1 371.227 1474.49 Q371.227 1470.88 368.889 1468.77 Q366.551 1466.67 362.546 1466.67 Q360.671 1466.67 358.796 1467.08 Q356.945 1467.5 355 1468.38 L355 1451.02 Z" fill="#000000" fill-rule="nonzero" fill-opacity="1"></path><path clip-path="url(#clip330)" d="M445.556 1481.64 L453.195 1481.64 L453.195 1455.28 L444.885 1456.95 L444.885 1452.69 L453.149 1451.02 L457.825 1451.02 L457.825 1481.64 L465.463 1481.64 L465.463 1485.58 L445.556 1485.58 L445.556 1481.64 Z" fill="#000000" fill-rule="nonzero" fill-opacity="1"></path><path clip-path="url(#clip330)" d="M474.908 1479.7 L479.792 1479.7 L479.792 1485.58 L474.908 1485.58 L474.908 1479.7 Z" fill="#000000" fill-rule="nonzero" fill-opacity="1"></path><path clip-path="url(#clip330)" d="M500.556 1466.44 Q497.408 1466.44 495.556 1468.59 Q493.727 1470.74 493.727 1474.49 Q493.727 1478.22 495.556 1480.39 Q497.408 1482.55 500.556 1482.55 Q503.704 1482.55 505.533 1480.39 Q507.384 1478.22 507.384 1474.49 Q507.384 1470.74 505.533 1468.59 Q503.704 1466.44 500.556 1466.44 M509.838 1451.78 L509.838 1456.04 Q508.079 1455.21 506.273 1454.77 Q504.491 1454.33 502.732 1454.33 Q498.102 1454.33 495.648 1457.45 Q493.218 1460.58 492.871 1466.9 Q494.236 1464.89 496.297 1463.82 Q498.357 1462.73 500.834 1462.73 Q506.042 1462.73 509.051 1465.9 Q512.084 1469.05 512.084 1474.49 Q512.084 1479.82 508.935 1483.03 Q505.787 1486.25 500.556 1486.25 Q494.56 1486.25 491.389 1481.67 Q488.218 1477.06 488.218 1468.33 Q488.218 1460.14 492.107 1455.28 Q495.996 1450.39 502.547 1450.39 Q504.306 1450.39 506.088 1450.74 Q507.894 1451.09 509.838 1451.78 Z" fill="#000000" fill-rule="nonzero" fill-opacity="1"></path><path clip-path="url(#clip330)" d="M581.691 1481.64 L589.329 1481.64 L589.329 1455.28 L581.019 1456.95 L581.019 1452.69 L589.283 1451.02 L593.959 1451.02 L593.959 1481.64 L601.598 1481.64 L601.598 1485.58 L581.691 1485.58 L581.691 1481.64 Z" fill="#000000" fill-rule="nonzero" fill-opacity="1"></path><path clip-path="url(#clip330)" d="M611.042 1479.7 L615.926 1479.7 L615.926 1485.58 L611.042 1485.58 L611.042 1479.7 Z" fill="#000000" fill-rule="nonzero" fill-opacity="1"></path><path clip-path="url(#clip330)" d="M624.931 1451.02 L647.153 1451.02 L647.153 1453.01 L634.607 1485.58 L629.723 1485.58 L641.528 1454.96 L624.931 1454.96 L624.931 1451.02 Z" fill="#000000" fill-rule="nonzero" fill-opacity="1"></path><path clip-path="url(#clip330)" d="M716.888 1481.64 L724.526 1481.64 L724.526 1455.28 L716.216 1456.95 L716.216 1452.69 L724.48 1451.02 L729.156 1451.02 L729.156 1481.64 L736.795 1481.64 L736.795 1485.58 L716.888 1485.58 L716.888 1481.64 Z" fill="#000000" fill-rule="nonzero" fill-opacity="1"></path><path clip-path="url(#clip330)" d="M746.239 1479.7 L751.123 1479.7 L751.123 1485.58 L746.239 1485.58 L746.239 1479.7 Z" fill="#000000" fill-rule="nonzero" fill-opacity="1"></path><path clip-path="url(#clip330)" d="M771.309 1469.17 Q767.975 1469.17 766.054 1470.95 Q764.156 1472.73 764.156 1475.86 Q764.156 1478.98 766.054 1480.77 Q767.975 1482.55 771.309 1482.55 Q774.642 1482.55 776.563 1480.77 Q778.484 1478.96 778.484 1475.86 Q778.484 1472.73 776.563 1470.95 Q774.665 1469.17 771.309 1469.17 M766.633 1467.18 Q763.623 1466.44 761.934 1464.38 Q760.267 1462.32 760.267 1459.35 Q760.267 1455.21 763.207 1452.8 Q766.17 1450.39 771.309 1450.39 Q776.471 1450.39 779.41 1452.8 Q782.35 1455.21 782.35 1459.35 Q782.35 1462.32 780.66 1464.38 Q778.994 1466.44 776.008 1467.18 Q779.387 1467.96 781.262 1470.26 Q783.16 1472.55 783.16 1475.86 Q783.16 1480.88 780.082 1483.57 Q777.026 1486.25 771.309 1486.25 Q765.591 1486.25 762.512 1483.57 Q759.457 1480.88 759.457 1475.86 Q759.457 1472.55 761.355 1470.26 Q763.253 1467.96 766.633 1467.18 M764.92 1459.79 Q764.92 1462.48 766.586 1463.98 Q768.276 1465.49 771.309 1465.49 Q774.318 1465.49 776.008 1463.98 Q777.721 1462.48 777.721 1459.79 Q777.721 1457.11 776.008 1455.6 Q774.318 1454.1 771.309 1454.1 Q768.276 1454.1 766.586 1455.6 Q764.92 1457.11 764.92 1459.79 Z" fill="#000000" fill-rule="nonzero" fill-opacity="1"></path><path clip-path="url(#clip330)" d="M852.536 1481.64 L860.175 1481.64 L860.175 1455.28 L851.865 1456.95 L851.865 1452.69 L860.128 1451.02 L864.804 1451.02 L864.804 1481.64 L872.443 1481.64 L872.443 1485.58 L852.536 1485.58 L852.536 1481.64 Z" fill="#000000" fill-rule="nonzero" fill-opacity="1"></path><path clip-path="url(#clip330)" d="M881.888 1479.7 L886.772 1479.7 L886.772 1485.58 L881.888 1485.58 L881.888 1479.7 Z" fill="#000000" fill-rule="nonzero" fill-opacity="1"></path><path clip-path="url(#clip330)" d="M897.096 1484.86 L897.096 1480.6 Q898.855 1481.44 900.661 1481.88 Q902.466 1482.32 904.202 1482.32 Q908.832 1482.32 911.262 1479.21 Q913.716 1476.09 914.063 1469.75 Q912.721 1471.74 910.661 1472.8 Q908.6 1473.87 906.1 1473.87 Q900.915 1473.87 897.883 1470.74 Q894.874 1467.59 894.874 1462.15 Q894.874 1456.83 898.022 1453.61 Q901.17 1450.39 906.401 1450.39 Q912.397 1450.39 915.545 1455 Q918.716 1459.58 918.716 1468.33 Q918.716 1476.51 914.827 1481.39 Q910.961 1486.25 904.411 1486.25 Q902.651 1486.25 900.846 1485.9 Q899.04 1485.56 897.096 1484.86 M906.401 1470.21 Q909.549 1470.21 911.378 1468.06 Q913.23 1465.9 913.23 1462.15 Q913.23 1458.43 911.378 1456.27 Q909.549 1454.1 906.401 1454.1 Q903.253 1454.1 901.401 1456.27 Q899.573 1458.43 899.573 1462.15 Q899.573 1465.9 901.401 1468.06 Q903.253 1470.21 906.401 1470.21 Z" fill="#000000" fill-rule="nonzero" fill-opacity="1"></path><path clip-path="url(#clip330)" d="M992.131 1481.64 L1008.45 1481.64 L1008.45 1485.58 L986.506 1485.58 L986.506 1481.64 Q989.168 1478.89 993.751 1474.26 Q998.358 1469.61 999.538 1468.27 Q1001.78 1465.74 1002.66 1464.01 Q1003.57 1462.25 1003.57 1460.56 Q1003.57 1457.8 1001.62 1456.07 Q999.7 1454.33 996.598 1454.33 Q994.399 1454.33 991.946 1455.09 Q989.515 1455.86 986.737 1457.41 L986.737 1452.69 Q989.561 1451.55 992.015 1450.97 Q994.469 1450.39 996.506 1450.39 Q1001.88 1450.39 1005.07 1453.08 Q1008.27 1455.77 1008.27 1460.26 Q1008.27 1462.39 1007.45 1464.31 Q1006.67 1466.2 1004.56 1468.8 Q1003.98 1469.47 1000.88 1472.69 Q997.779 1475.88 992.131 1481.64 Z" fill="#000000" fill-rule="nonzero" fill-opacity="1"></path><path clip-path="url(#clip330)" d="M1018.27 1479.7 L1023.15 1479.7 L1023.15 1485.58 L1018.27 1485.58 L1018.27 1479.7 Z" fill="#000000" fill-rule="nonzero" fill-opacity="1"></path><path clip-path="url(#clip330)" d="M1043.33 1454.1 Q1039.72 1454.1 1037.89 1457.66 Q1036.09 1461.2 1036.09 1468.33 Q1036.09 1475.44 1037.89 1479.01 Q1039.72 1482.55 1043.33 1482.55 Q1046.97 1482.55 1048.77 1479.01 Q1050.6 1475.44 1050.6 1468.33 Q1050.6 1461.2 1048.77 1457.66 Q1046.97 1454.1 1043.33 1454.1 M1043.33 1450.39 Q1049.14 1450.39 1052.2 1455 Q1055.28 1459.58 1055.28 1468.33 Q1055.28 1477.06 1052.2 1481.67 Q1049.14 1486.25 1043.33 1486.25 Q1037.52 1486.25 1034.45 1481.67 Q1031.39 1477.06 1031.39 1468.33 Q1031.39 1459.58 1034.45 1455 Q1037.52 1450.39 1043.33 1450.39 Z" fill="#000000" fill-rule="nonzero" fill-opacity="1"></path><path clip-path="url(#clip330)" d="M551.386 1518.52 L557.242 1518.52 L557.242 1568.04 L551.386 1568.04 L551.386 1518.52 Z" fill="#000000" fill-rule="nonzero" fill-opacity="1"></path><path clip-path="url(#clip330)" d="M583.31 1536.5 Q578.599 1536.5 575.862 1540.19 Q573.124 1543.85 573.124 1550.25 Q573.124 1556.65 575.83 1560.34 Q578.567 1564 583.31 1564 Q587.988 1564 590.726 1560.31 Q593.463 1556.62 593.463 1550.25 Q593.463 1543.92 590.726 1540.23 Q587.988 1536.5 583.31 1536.5 M583.31 1531.54 Q590.948 1531.54 595.309 1536.5 Q599.669 1541.47 599.669 1550.25 Q599.669 1559 595.309 1564 Q590.948 1568.97 583.31 1568.97 Q575.639 1568.97 571.278 1564 Q566.95 1559 566.95 1550.25 Q566.95 1541.47 571.278 1536.5 Q575.639 1531.54 583.31 1531.54 Z" fill="#000000" fill-rule="nonzero" fill-opacity="1"></path><path clip-path="url(#clip330)" d="M632.835 1549.81 Q632.835 1543.44 630.193 1539.94 Q627.583 1536.44 622.841 1536.44 Q618.13 1536.44 615.488 1539.94 Q612.878 1543.44 612.878 1549.81 Q612.878 1556.14 615.488 1559.64 Q618.13 1563.14 622.841 1563.14 Q627.583 1563.14 630.193 1559.64 Q632.835 1556.14 632.835 1549.81 M638.691 1563.62 Q638.691 1572.72 634.649 1577.15 Q630.607 1581.6 622.268 1581.6 Q619.18 1581.6 616.443 1581.13 Q613.706 1580.68 611.128 1579.72 L611.128 1574.03 Q613.706 1575.43 616.22 1576.1 Q618.735 1576.76 621.345 1576.76 Q627.106 1576.76 629.97 1573.74 Q632.835 1570.75 632.835 1564.67 L632.835 1561.77 Q631.021 1564.92 628.188 1566.48 Q625.355 1568.04 621.408 1568.04 Q614.852 1568.04 610.841 1563.05 Q606.831 1558.05 606.831 1549.81 Q606.831 1541.53 610.841 1536.53 Q614.852 1531.54 621.408 1531.54 Q625.355 1531.54 628.188 1533.1 Q631.021 1534.66 632.835 1537.81 L632.835 1532.4 L638.691 1532.4 L638.691 1563.62 Z" fill="#000000" fill-rule="nonzero" fill-opacity="1"></path><path clip-path="url(#clip330)" d="M649.577 1564.54 L656.07 1564.54 L656.07 1545.1 L648.972 1546.4 L648.972 1542.71 L656.292 1541.47 L660.653 1541.47 L660.653 1564.54 L667.178 1564.54 L667.178 1568.04 L649.577 1568.04 L649.577 1564.54 Z" fill="#000000" fill-rule="nonzero" fill-opacity="1"></path><path clip-path="url(#clip330)" d="M688.885 1546.5 Q687.293 1543.76 684.079 1543.76 Q680.864 1543.76 679.273 1546.5 Q677.649 1549.23 677.649 1554.71 Q677.649 1560.21 679.273 1562.95 Q680.864 1565.69 684.079 1565.69 Q687.293 1565.69 688.885 1562.95 Q690.508 1560.21 690.508 1554.71 Q690.508 1549.23 688.885 1546.5 M684.079 1540.93 Q689.203 1540.93 691.909 1544.46 Q694.614 1547.99 694.614 1554.71 Q694.614 1561.46 691.909 1564.99 Q689.203 1568.52 684.079 1568.52 Q678.923 1568.52 676.217 1564.99 Q673.512 1561.46 673.512 1554.71 Q673.512 1547.99 676.217 1544.46 Q678.923 1540.93 684.079 1540.93 Z" fill="#000000" fill-rule="nonzero" fill-opacity="1"></path><path clip-path="url(#clip330)" d="M717.085 1518.58 Q712.82 1525.9 710.751 1533.06 Q708.682 1540.23 708.682 1547.58 Q708.682 1554.93 710.751 1562.16 Q712.852 1569.35 717.085 1576.64 L711.992 1576.64 Q707.218 1569.16 704.831 1561.93 Q702.476 1554.71 702.476 1547.58 Q702.476 1540.48 704.831 1533.29 Q707.186 1526.09 711.992 1518.58 L717.085 1518.58 Z" fill="#000000" fill-rule="nonzero" fill-opacity="1"></path><path clip-path="url(#clip330)" d="M730.389 1562.63 L740.893 1562.63 L740.893 1526.38 L729.466 1528.67 L729.466 1522.82 L740.829 1520.52 L747.258 1520.52 L747.258 1562.63 L757.762 1562.63 L757.762 1568.04 L730.389 1568.04 L730.389 1562.63 Z" fill="#000000" fill-rule="nonzero" fill-opacity="1"></path><path clip-path="url(#clip330)" d="M780.328 1520.52 L785.739 1520.52 L769.188 1574.09 L763.777 1574.09 L780.328 1520.52 Z" fill="#000000" fill-rule="nonzero" fill-opacity="1"></path><path clip-path="url(#clip330)" d="M808.019 1526.86 L794.969 1562.7 L821.101 1562.7 L808.019 1526.86 M786.248 1568.04 L804.391 1520.52 L811.679 1520.52 L829.79 1568.04 L786.248 1568.04 Z" fill="#000000" fill-rule="nonzero" fill-opacity="1"></path><path clip-path="url(#clip330)" d="M866.106 1532.4 L853.216 1549.74 L866.775 1568.04 L859.868 1568.04 L849.492 1554.04 L839.116 1568.04 L832.209 1568.04 L846.054 1549.39 L833.386 1532.4 L840.293 1532.4 L849.746 1545.1 L859.199 1532.4 L866.106 1532.4 Z" fill="#000000" fill-rule="nonzero" fill-opacity="1"></path><path clip-path="url(#clip330)" d="M874.127 1518.58 L879.219 1518.58 Q883.994 1526.09 886.349 1533.29 Q888.736 1540.48 888.736 1547.58 Q888.736 1554.71 886.349 1561.93 Q883.994 1569.16 879.219 1576.64 L874.127 1576.64 Q878.36 1569.35 880.429 1562.16 Q882.53 1554.93 882.53 1547.58 Q882.53 1540.23 880.429 1533.06 Q878.36 1525.9 874.127 1518.58 Z" fill="#000000" fill-rule="nonzero" fill-opacity="1"></path><polyline clip-path="url(#clip330)" style="stroke:#000000; stroke-linecap:round; stroke-linejoin:round; stroke-width:4; stroke-opacity:1; fill:none" points="287.366,1423.18 287.366,47.2441 "></polyline>
<polyline clip-path="url(#clip330)" style="stroke:#000000; stroke-linecap:round; stroke-linejoin:round; stroke-width:4; stroke-opacity:1; fill:none" points="287.366,1167.75 306.264,1167.75 "></polyline>
<polyline clip-path="url(#clip330)" style="stroke:#000000; stroke-linecap:round; stroke-linejoin:round; stroke-width:4; stroke-opacity:1; fill:none" points="287.366,898.243 306.264,898.243 "></polyline>
<polyline clip-path="url(#clip330)" style="stroke:#000000; stroke-linecap:round; stroke-linejoin:round; stroke-width:4; stroke-opacity:1; fill:none" points="287.366,628.741 306.264,628.741 "></polyline>
<polyline clip-path="url(#clip330)" style="stroke:#000000; stroke-linecap:round; stroke-linejoin:round; stroke-width:4; stroke-opacity:1; fill:none" points="287.366,359.238 306.264,359.238 "></polyline>
<polyline clip-path="url(#clip330)" style="stroke:#000000; stroke-linecap:round; stroke-linejoin:round; stroke-width:4; stroke-opacity:1; fill:none" points="287.366,89.7359 306.264,89.7359 "></polyline>
<path clip-path="url(#clip330)" d="M114.26 1168.2 L143.936 1168.2 L143.936 1172.13 L114.26 1172.13 L114.26 1168.2 Z" fill="#000000" fill-rule="nonzero" fill-opacity="1"></path><path clip-path="url(#clip330)" d="M158.056 1181.09 L174.376 1181.09 L174.376 1185.03 L152.431 1185.03 L152.431 1181.09 Q155.093 1178.34 159.677 1173.71 Q164.283 1169.05 165.464 1167.71 Q167.709 1165.19 168.589 1163.45 Q169.491 1161.69 169.491 1160 Q169.491 1157.25 167.547 1155.51 Q165.626 1153.78 162.524 1153.78 Q160.325 1153.78 157.871 1154.54 Q155.44 1155.3 152.663 1156.85 L152.663 1152.13 Q155.487 1151 157.94 1150.42 Q160.394 1149.84 162.431 1149.84 Q167.802 1149.84 170.996 1152.53 Q174.19 1155.21 174.19 1159.7 Q174.19 1161.83 173.38 1163.75 Q172.593 1165.65 170.487 1168.24 Q169.908 1168.91 166.806 1172.13 Q163.704 1175.33 158.056 1181.09 Z" fill="#000000" fill-rule="nonzero" fill-opacity="1"></path><path clip-path="url(#clip330)" d="M184.19 1179.15 L189.075 1179.15 L189.075 1185.03 L184.19 1185.03 L184.19 1179.15 Z" fill="#000000" fill-rule="nonzero" fill-opacity="1"></path><path clip-path="url(#clip330)" d="M199.306 1150.47 L217.662 1150.47 L217.662 1154.4 L203.588 1154.4 L203.588 1162.87 Q204.607 1162.53 205.625 1162.36 Q206.644 1162.18 207.662 1162.18 Q213.449 1162.18 216.829 1165.35 Q220.209 1168.52 220.209 1173.94 Q220.209 1179.52 216.736 1182.62 Q213.264 1185.7 206.945 1185.7 Q204.769 1185.7 202.5 1185.33 Q200.255 1184.96 197.848 1184.22 L197.848 1179.52 Q199.931 1180.65 202.153 1181.21 Q204.375 1181.76 206.852 1181.76 Q210.857 1181.76 213.195 1179.65 Q215.533 1177.55 215.533 1173.94 Q215.533 1170.33 213.195 1168.22 Q210.857 1166.11 206.852 1166.11 Q204.977 1166.11 203.102 1166.53 Q201.25 1166.95 199.306 1167.83 L199.306 1150.47 Z" fill="#000000" fill-rule="nonzero" fill-opacity="1"></path><path clip-path="url(#clip330)" d="M239.422 1153.54 Q235.81 1153.54 233.982 1157.11 Q232.176 1160.65 232.176 1167.78 Q232.176 1174.89 233.982 1178.45 Q235.81 1181.99 239.422 1181.99 Q243.056 1181.99 244.861 1178.45 Q246.69 1174.89 246.69 1167.78 Q246.69 1160.65 244.861 1157.11 Q243.056 1153.54 239.422 1153.54 M239.422 1149.84 Q245.232 1149.84 248.287 1154.45 Q251.366 1159.03 251.366 1167.78 Q251.366 1176.51 248.287 1181.11 Q245.232 1185.7 239.422 1185.7 Q233.611 1185.7 230.533 1181.11 Q227.477 1176.51 227.477 1167.78 Q227.477 1159.03 230.533 1154.45 Q233.611 1149.84 239.422 1149.84 Z" fill="#000000" fill-rule="nonzero" fill-opacity="1"></path><path clip-path="url(#clip330)" d="M115.256 898.694 L144.931 898.694 L144.931 902.629 L115.256 902.629 L115.256 898.694 Z" fill="#000000" fill-rule="nonzero" fill-opacity="1"></path><path clip-path="url(#clip330)" d="M159.052 911.588 L175.371 911.588 L175.371 915.523 L153.427 915.523 L153.427 911.588 Q156.089 908.833 160.672 904.204 Q165.278 899.551 166.459 898.208 Q168.704 895.685 169.584 893.949 Q170.487 892.19 170.487 890.5 Q170.487 887.745 168.542 886.009 Q166.621 884.273 163.519 884.273 Q161.32 884.273 158.866 885.037 Q156.436 885.801 153.658 887.352 L153.658 882.63 Q156.482 881.495 158.936 880.917 Q161.39 880.338 163.427 880.338 Q168.797 880.338 171.991 883.023 Q175.186 885.708 175.186 890.199 Q175.186 892.329 174.376 894.25 Q173.589 896.148 171.482 898.741 Q170.903 899.412 167.802 902.629 Q164.7 905.824 159.052 911.588 Z" fill="#000000" fill-rule="nonzero" fill-opacity="1"></path><path clip-path="url(#clip330)" d="M185.186 909.643 L190.07 909.643 L190.07 915.523 L185.186 915.523 L185.186 909.643 Z" fill="#000000" fill-rule="nonzero" fill-opacity="1"></path><path clip-path="url(#clip330)" d="M204.283 911.588 L220.602 911.588 L220.602 915.523 L198.658 915.523 L198.658 911.588 Q201.32 908.833 205.903 904.204 Q210.51 899.551 211.69 898.208 Q213.936 895.685 214.815 893.949 Q215.718 892.19 215.718 890.5 Q215.718 887.745 213.774 886.009 Q211.852 884.273 208.75 884.273 Q206.551 884.273 204.098 885.037 Q201.667 885.801 198.889 887.352 L198.889 882.63 Q201.713 881.495 204.167 880.917 Q206.621 880.338 208.658 880.338 Q214.028 880.338 217.223 883.023 Q220.417 885.708 220.417 890.199 Q220.417 892.329 219.607 894.25 Q218.82 896.148 216.713 898.741 Q216.135 899.412 213.033 902.629 Q209.931 905.824 204.283 911.588 Z" fill="#000000" fill-rule="nonzero" fill-opacity="1"></path><path clip-path="url(#clip330)" d="M230.463 880.963 L248.82 880.963 L248.82 884.898 L234.746 884.898 L234.746 893.37 Q235.764 893.023 236.783 892.861 Q237.801 892.676 238.82 892.676 Q244.607 892.676 247.986 895.847 Q251.366 899.018 251.366 904.435 Q251.366 910.014 247.894 913.116 Q244.421 916.194 238.102 916.194 Q235.926 916.194 233.658 915.824 Q231.412 915.453 229.005 914.713 L229.005 910.014 Q231.088 911.148 233.31 911.703 Q235.533 912.259 238.009 912.259 Q242.014 912.259 244.352 910.153 Q246.69 908.046 246.69 904.435 Q246.69 900.824 244.352 898.717 Q242.014 896.611 238.009 896.611 Q236.135 896.611 234.26 897.028 Q232.408 897.444 230.463 898.324 L230.463 880.963 Z" fill="#000000" fill-rule="nonzero" fill-opacity="1"></path><path clip-path="url(#clip330)" d="M114.26 629.192 L143.936 629.192 L143.936 633.127 L114.26 633.127 L114.26 629.192 Z" fill="#000000" fill-rule="nonzero" fill-opacity="1"></path><path clip-path="url(#clip330)" d="M158.056 642.085 L174.376 642.085 L174.376 646.021 L152.431 646.021 L152.431 642.085 Q155.093 639.331 159.677 634.701 Q164.283 630.048 165.464 628.706 Q167.709 626.183 168.589 624.447 Q169.491 622.687 169.491 620.998 Q169.491 618.243 167.547 616.507 Q165.626 614.771 162.524 614.771 Q160.325 614.771 157.871 615.535 Q155.44 616.298 152.663 617.849 L152.663 613.127 Q155.487 611.993 157.94 611.414 Q160.394 610.836 162.431 610.836 Q167.802 610.836 170.996 613.521 Q174.19 616.206 174.19 620.697 Q174.19 622.826 173.38 624.748 Q172.593 626.646 170.487 629.238 Q169.908 629.91 166.806 633.127 Q163.704 636.322 158.056 642.085 Z" fill="#000000" fill-rule="nonzero" fill-opacity="1"></path><path clip-path="url(#clip330)" d="M184.19 640.141 L189.075 640.141 L189.075 646.021 L184.19 646.021 L184.19 640.141 Z" fill="#000000" fill-rule="nonzero" fill-opacity="1"></path><path clip-path="url(#clip330)" d="M209.26 614.539 Q205.649 614.539 203.82 618.104 Q202.014 621.646 202.014 628.775 Q202.014 635.882 203.82 639.447 Q205.649 642.988 209.26 642.988 Q212.894 642.988 214.699 639.447 Q216.528 635.882 216.528 628.775 Q216.528 621.646 214.699 618.104 Q212.894 614.539 209.26 614.539 M209.26 610.836 Q215.07 610.836 218.125 615.442 Q221.204 620.025 221.204 628.775 Q221.204 637.502 218.125 642.109 Q215.07 646.692 209.26 646.692 Q203.449 646.692 200.371 642.109 Q197.315 637.502 197.315 628.775 Q197.315 620.025 200.371 615.442 Q203.449 610.836 209.26 610.836 Z" fill="#000000" fill-rule="nonzero" fill-opacity="1"></path><path clip-path="url(#clip330)" d="M239.422 614.539 Q235.81 614.539 233.982 618.104 Q232.176 621.646 232.176 628.775 Q232.176 635.882 233.982 639.447 Q235.81 642.988 239.422 642.988 Q243.056 642.988 244.861 639.447 Q246.69 635.882 246.69 628.775 Q246.69 621.646 244.861 618.104 Q243.056 614.539 239.422 614.539 M239.422 610.836 Q245.232 610.836 248.287 615.442 Q251.366 620.025 251.366 628.775 Q251.366 637.502 248.287 642.109 Q245.232 646.692 239.422 646.692 Q233.611 646.692 230.533 642.109 Q227.477 637.502 227.477 628.775 Q227.477 620.025 230.533 615.442 Q233.611 610.836 239.422 610.836 Z" fill="#000000" fill-rule="nonzero" fill-opacity="1"></path><path clip-path="url(#clip330)" d="M115.256 359.69 L144.931 359.69 L144.931 363.625 L115.256 363.625 L115.256 359.69 Z" fill="#000000" fill-rule="nonzero" fill-opacity="1"></path><path clip-path="url(#clip330)" d="M155.834 372.583 L163.473 372.583 L163.473 346.217 L155.163 347.884 L155.163 343.625 L163.427 341.958 L168.102 341.958 L168.102 372.583 L175.741 372.583 L175.741 376.518 L155.834 376.518 L155.834 372.583 Z" fill="#000000" fill-rule="nonzero" fill-opacity="1"></path><path clip-path="url(#clip330)" d="M185.186 370.639 L190.07 370.639 L190.07 376.518 L185.186 376.518 L185.186 370.639 Z" fill="#000000" fill-rule="nonzero" fill-opacity="1"></path><path clip-path="url(#clip330)" d="M199.075 341.958 L221.297 341.958 L221.297 343.949 L208.75 376.518 L203.866 376.518 L215.672 345.893 L199.075 345.893 L199.075 341.958 Z" fill="#000000" fill-rule="nonzero" fill-opacity="1"></path><path clip-path="url(#clip330)" d="M230.463 341.958 L248.82 341.958 L248.82 345.893 L234.746 345.893 L234.746 354.366 Q235.764 354.018 236.783 353.856 Q237.801 353.671 238.82 353.671 Q244.607 353.671 247.986 356.842 Q251.366 360.014 251.366 365.43 Q251.366 371.009 247.894 374.111 Q244.421 377.19 238.102 377.19 Q235.926 377.19 233.658 376.819 Q231.412 376.449 229.005 375.708 L229.005 371.009 Q231.088 372.143 233.31 372.699 Q235.533 373.254 238.009 373.254 Q242.014 373.254 244.352 371.148 Q246.69 369.041 246.69 365.43 Q246.69 361.819 244.352 359.713 Q242.014 357.606 238.009 357.606 Q236.135 357.606 234.26 358.023 Q232.408 358.44 230.463 359.319 L230.463 341.958 Z" fill="#000000" fill-rule="nonzero" fill-opacity="1"></path><path clip-path="url(#clip330)" d="M114.26 90.1873 L143.936 90.1873 L143.936 94.1224 L114.26 94.1224 L114.26 90.1873 Z" fill="#000000" fill-rule="nonzero" fill-opacity="1"></path><path clip-path="url(#clip330)" d="M154.839 103.081 L162.477 103.081 L162.477 76.7151 L154.167 78.3818 L154.167 74.1225 L162.431 72.4559 L167.107 72.4559 L167.107 103.081 L174.746 103.081 L174.746 107.016 L154.839 107.016 L154.839 103.081 Z" fill="#000000" fill-rule="nonzero" fill-opacity="1"></path><path clip-path="url(#clip330)" d="M184.19 101.136 L189.075 101.136 L189.075 107.016 L184.19 107.016 L184.19 101.136 Z" fill="#000000" fill-rule="nonzero" fill-opacity="1"></path><path clip-path="url(#clip330)" d="M199.306 72.4559 L217.662 72.4559 L217.662 76.3911 L203.588 76.3911 L203.588 84.8632 Q204.607 84.516 205.625 84.354 Q206.644 84.1688 207.662 84.1688 Q213.449 84.1688 216.829 87.3401 Q220.209 90.5113 220.209 95.928 Q220.209 101.507 216.736 104.608 Q213.264 107.687 206.945 107.687 Q204.769 107.687 202.5 107.317 Q200.255 106.946 197.848 106.206 L197.848 101.507 Q199.931 102.641 202.153 103.196 Q204.375 103.752 206.852 103.752 Q210.857 103.752 213.195 101.646 Q215.533 99.5391 215.533 95.928 Q215.533 92.3169 213.195 90.2104 Q210.857 88.104 206.852 88.104 Q204.977 88.104 203.102 88.5206 Q201.25 88.9373 199.306 89.8169 L199.306 72.4559 Z" fill="#000000" fill-rule="nonzero" fill-opacity="1"></path><path clip-path="url(#clip330)" d="M239.422 75.5346 Q235.81 75.5346 233.982 79.0994 Q232.176 82.641 232.176 89.7706 Q232.176 96.8771 233.982 100.442 Q235.81 103.983 239.422 103.983 Q243.056 103.983 244.861 100.442 Q246.69 96.8771 246.69 89.7706 Q246.69 82.641 244.861 79.0994 Q243.056 75.5346 239.422 75.5346 M239.422 71.8309 Q245.232 71.8309 248.287 76.4373 Q251.366 81.0207 251.366 89.7706 Q251.366 98.4974 248.287 103.104 Q245.232 107.687 239.422 107.687 Q233.611 107.687 230.533 103.104 Q227.477 98.4974 227.477 89.7706 Q227.477 81.0207 230.533 76.4373 Q233.611 71.8309 239.422 71.8309 Z" fill="#000000" fill-rule="nonzero" fill-opacity="1"></path><path clip-path="url(#clip330)" d="M14.479 871.295 L14.479 865.438 L64.0042 865.438 L64.0042 871.295 L14.479 871.295 Z" fill="#000000" fill-rule="nonzero" fill-opacity="1"></path><path clip-path="url(#clip330)" d="M32.4621 839.371 Q32.4621 844.081 36.1542 846.819 Q39.8145 849.556 46.212 849.556 Q52.6095 849.556 56.3017 846.851 Q59.9619 844.113 59.9619 839.371 Q59.9619 834.692 56.2698 831.955 Q52.5777 829.218 46.212 829.218 Q39.8781 829.218 36.186 831.955 Q32.4621 834.692 32.4621 839.371 M27.4968 839.371 Q27.4968 831.732 32.4621 827.371 Q37.4273 823.011 46.212 823.011 Q54.9649 823.011 59.9619 827.371 Q64.9272 831.732 64.9272 839.371 Q64.9272 847.042 59.9619 851.402 Q54.9649 855.731 46.212 855.731 Q37.4273 855.731 32.4621 851.402 Q27.4968 847.042 27.4968 839.371 Z" fill="#000000" fill-rule="nonzero" fill-opacity="1"></path><path clip-path="url(#clip330)" d="M45.7664 789.846 Q39.4007 789.846 35.8996 792.487 Q32.3984 795.097 32.3984 799.84 Q32.3984 804.55 35.8996 807.192 Q39.4007 809.802 45.7664 809.802 Q52.1003 809.802 55.6014 807.192 Q59.1026 804.55 59.1026 799.84 Q59.1026 795.097 55.6014 792.487 Q52.1003 789.846 45.7664 789.846 M59.58 783.989 Q68.683 783.989 73.1071 788.031 Q77.5631 792.074 77.5631 800.413 Q77.5631 803.5 77.0857 806.237 Q76.6401 808.975 75.6852 811.553 L69.9879 811.553 Q71.3884 808.975 72.0568 806.46 Q72.7252 803.946 72.7252 801.336 Q72.7252 795.575 69.7015 792.71 Q66.7096 789.846 60.6303 789.846 L57.7339 789.846 Q60.885 791.66 62.4446 794.493 Q64.0042 797.325 64.0042 801.272 Q64.0042 807.829 59.0071 811.839 Q54.01 815.85 45.7664 815.85 Q37.491 815.85 32.4939 811.839 Q27.4968 807.829 27.4968 801.272 Q27.4968 797.325 29.0564 794.493 Q30.616 791.66 33.7671 789.846 L28.3562 789.846 L28.3562 783.989 L59.58 783.989 Z" fill="#000000" fill-rule="nonzero" fill-opacity="1"></path><path clip-path="url(#clip330)" d="M60.503 773.104 L60.503 766.611 L41.0558 766.611 L42.3608 773.709 L38.6686 773.709 L37.4273 766.388 L37.4273 762.028 L60.503 762.028 L60.503 755.503 L64.0042 755.503 L64.0042 773.104 L60.503 773.104 Z" fill="#000000" fill-rule="nonzero" fill-opacity="1"></path><path clip-path="url(#clip330)" d="M42.4562 733.796 Q39.719 735.387 39.719 738.602 Q39.719 741.816 42.4562 743.408 Q45.1935 745.031 50.668 745.031 Q56.1743 745.031 58.9116 743.408 Q61.6488 741.816 61.6488 738.602 Q61.6488 735.387 58.9116 733.796 Q56.1743 732.172 50.668 732.172 Q45.1935 732.172 42.4562 733.796 M36.8862 738.602 Q36.8862 733.477 40.4192 730.772 Q43.9522 728.066 50.668 728.066 Q57.4157 728.066 60.9486 730.772 Q64.4816 733.477 64.4816 738.602 Q64.4816 743.758 60.9486 746.463 Q57.4157 749.169 50.668 749.169 Q43.9522 749.169 40.4192 746.463 Q36.8862 743.758 36.8862 738.602 Z" fill="#000000" fill-rule="nonzero" fill-opacity="1"></path><path clip-path="url(#clip330)" d="M14.5426 705.596 Q21.8632 709.861 29.0246 711.929 Q36.186 713.998 43.5384 713.998 Q50.8908 713.998 58.1159 711.929 Q65.3091 709.829 72.5979 705.596 L72.5979 710.688 Q65.1182 715.462 57.8931 717.85 Q50.668 720.205 43.5384 720.205 Q36.4406 720.205 29.2474 717.85 Q22.0542 715.494 14.5426 710.688 L14.5426 705.596 Z" fill="#000000" fill-rule="nonzero" fill-opacity="1"></path><path clip-path="url(#clip330)" d="M34.0217 669.056 Q33.6079 670.234 33.2896 671.412 Q32.4621 674.563 32.4621 677.937 Q32.4621 683.761 35.6131 687.008 Q38.5413 690.031 43.9204 690.604 L43.9204 669.056 L48.5037 669.056 L48.5037 690.604 Q53.8827 690.031 56.8109 687.008 Q59.9619 683.761 59.9619 677.937 Q59.9619 673.862 59.1344 671.412 L58.3387 669.056 L63.654 669.056 L64.227 671.571 Q64.9272 674.881 64.9272 678.287 Q64.9272 686.817 59.9619 691.782 Q54.9967 696.779 46.212 696.779 Q37.4273 696.779 32.4621 691.782 Q27.4968 686.817 27.4968 678.287 Q27.4968 675.072 28.1971 671.571 Q28.4517 670.298 28.8336 669.056 L34.0217 669.056 Z" fill="#000000" fill-rule="nonzero" fill-opacity="1"></path><path clip-path="url(#clip330)" d="M49.9359 654.734 L28.3562 654.734 L28.3562 648.877 L49.7131 648.877 Q54.7739 648.877 57.3202 646.904 Q59.8346 644.93 59.8346 640.984 Q59.8346 636.241 56.8109 633.504 Q53.7872 630.735 48.5673 630.735 L28.3562 630.735 L28.3562 624.878 L64.0042 624.878 L64.0042 630.735 L58.5296 630.735 Q61.7762 632.867 63.3676 635.7 Q64.9272 638.501 64.9272 642.225 Q64.9272 648.368 61.1078 651.551 Q57.2883 654.734 49.9359 654.734 M27.4968 639.997 L27.4968 639.997 Z" fill="#000000" fill-rule="nonzero" fill-opacity="1"></path><path clip-path="url(#clip330)" d="M14.5426 613.738 L14.5426 608.646 Q22.0542 603.872 29.2474 601.516 Q36.4406 599.129 43.5384 599.129 Q50.668 599.129 57.8931 601.516 Q65.1182 603.872 72.5979 608.646 L72.5979 613.738 Q65.3091 609.505 58.1159 607.436 Q50.8908 605.336 43.5384 605.336 Q36.186 605.336 29.0246 607.436 Q21.8632 609.505 14.5426 613.738 Z" fill="#000000" fill-rule="nonzero" fill-opacity="1"></path><circle clip-path="url(#clip332)" cx="311.858" cy="86.1857" r="14.4" fill="#009af9" fill-rule="evenodd" fill-opacity="1" stroke="#000000" stroke-opacity="1" stroke-width="3.2"></circle>
<circle clip-path="url(#clip332)" cx="720.061" cy="400.762" r="14.4" fill="#009af9" fill-rule="evenodd" fill-opacity="1" stroke="#000000" stroke-opacity="1" stroke-width="3.2"></circle>
<circle clip-path="url(#clip332)" cx="1128.26" cy="720.595" r="14.4" fill="#009af9" fill-rule="evenodd" fill-opacity="1" stroke="#000000" stroke-opacity="1" stroke-width="3.2"></circle>
<polyline clip-path="url(#clip332)" style="stroke:#e26f46; stroke-linecap:round; stroke-linejoin:round; stroke-width:4; stroke-opacity:1; fill:none" points="311.858,86.1857 720.061,410.699 1128.26,735.212 "></polyline>
<polyline clip-path="url(#clip332)" style="stroke:#3da44d; stroke-linecap:round; stroke-linejoin:round; stroke-width:4; stroke-opacity:1; fill:none" points="311.858,86.1857 720.061,735.212 1128.26,1384.24 "></polyline>
<path clip-path="url(#clip330)" d="M976.931 300.469 L1123.91 300.469 L1123.91 93.1086 L976.931 93.1086  Z" fill="#ffffff" fill-rule="evenodd" fill-opacity="1"></path>
<polyline clip-path="url(#clip330)" style="stroke:#000000; stroke-linecap:round; stroke-linejoin:round; stroke-width:4; stroke-opacity:1; fill:none" points="976.931,300.469 1123.91,300.469 1123.91,93.1086 976.931,93.1086 976.931,300.469 "></polyline>
<circle clip-path="url(#clip330)" cx="1015.39" cy="144.949" r="20.48" fill="#009af9" fill-rule="evenodd" fill-opacity="1" stroke="#000000" stroke-opacity="1" stroke-width="4.55111"></circle>
<path clip-path="url(#clip330)" d="M1074.02 140.423 Q1073.16 140.122 1072.3 139.891 Q1070.01 139.289 1067.56 139.289 Q1063.32 139.289 1060.96 141.581 Q1058.76 143.71 1058.35 147.622 L1074.02 147.622 L1074.02 150.956 L1058.35 150.956 Q1058.76 154.868 1060.96 156.997 Q1063.32 159.289 1067.56 159.289 Q1070.52 159.289 1072.3 158.687 L1074.02 158.108 L1074.02 161.974 L1072.19 162.391 Q1069.78 162.9 1067.3 162.9 Q1061.1 162.9 1057.49 159.289 Q1053.85 155.678 1053.85 149.289 Q1053.85 142.9 1057.49 139.289 Q1061.1 135.678 1067.3 135.678 Q1069.64 135.678 1072.19 136.187 Q1073.11 136.372 1074.02 136.65 L1074.02 140.423 Z" fill="#000000" fill-rule="nonzero" fill-opacity="1"></path><polyline clip-path="url(#clip330)" style="stroke:#e26f46; stroke-linecap:round; stroke-linejoin:round; stroke-width:4; stroke-opacity:1; fill:none" points="986.547,196.789 1044.24,196.789 "></polyline>
<path clip-path="url(#clip330)" d="M1069.87 182.68 Q1064.78 182.68 1061.77 186.476 Q1058.79 190.272 1058.79 196.823 Q1058.79 203.351 1061.77 207.147 Q1064.78 210.944 1069.87 210.944 Q1074.97 210.944 1077.93 207.147 Q1080.91 203.351 1080.91 196.823 Q1080.91 190.272 1077.93 186.476 Q1074.97 182.68 1069.87 182.68 M1069.87 178.884 Q1077.14 178.884 1081.49 183.768 Q1085.85 188.629 1085.85 196.823 Q1085.85 204.995 1081.49 209.879 Q1077.14 214.74 1069.87 214.74 Q1062.58 214.74 1058.21 209.879 Q1053.85 205.018 1053.85 196.823 Q1053.85 188.629 1058.21 183.768 Q1062.58 178.884 1069.87 178.884 Z" fill="#000000" fill-rule="nonzero" fill-opacity="1"></path><path clip-path="url(#clip330)" d="M1094.39 210.133 L1102.03 210.133 L1102.03 183.768 L1093.72 185.435 L1093.72 181.175 L1101.98 179.509 L1106.66 179.509 L1106.66 210.133 L1114.29 210.133 L1114.29 214.069 L1094.39 214.069 L1094.39 210.133 Z" fill="#000000" fill-rule="nonzero" fill-opacity="1"></path><polyline clip-path="url(#clip330)" style="stroke:#3da44d; stroke-linecap:round; stroke-linejoin:round; stroke-width:4; stroke-opacity:1; fill:none" points="986.547,248.629 1044.24,248.629 "></polyline>
<path clip-path="url(#clip330)" d="M1069.87 234.52 Q1064.78 234.52 1061.77 238.316 Q1058.79 242.112 1058.79 248.663 Q1058.79 255.191 1061.77 258.987 Q1064.78 262.784 1069.87 262.784 Q1074.97 262.784 1077.93 258.987 Q1080.91 255.191 1080.91 248.663 Q1080.91 242.112 1077.93 238.316 Q1074.97 234.52 1069.87 234.52 M1069.87 230.724 Q1077.14 230.724 1081.49 235.608 Q1085.85 240.469 1085.85 248.663 Q1085.85 256.835 1081.49 261.719 Q1077.14 266.58 1069.87 266.58 Q1062.58 266.58 1058.21 261.719 Q1053.85 256.858 1053.85 248.663 Q1053.85 240.469 1058.21 235.608 Q1062.58 230.724 1069.87 230.724 Z" fill="#000000" fill-rule="nonzero" fill-opacity="1"></path><path clip-path="url(#clip330)" d="M1097.6 261.973 L1113.92 261.973 L1113.92 265.909 L1091.98 265.909 L1091.98 261.973 Q1094.64 259.219 1099.22 254.589 Q1103.83 249.936 1105.01 248.594 Q1107.26 246.071 1108.14 244.335 Q1109.04 242.575 1109.04 240.886 Q1109.04 238.131 1107.1 236.395 Q1105.17 234.659 1102.07 234.659 Q1099.87 234.659 1097.42 235.423 Q1094.99 236.187 1092.21 237.737 L1092.21 233.015 Q1095.03 231.881 1097.49 231.302 Q1099.94 230.724 1101.98 230.724 Q1107.35 230.724 1110.54 233.409 Q1113.74 236.094 1113.74 240.585 Q1113.74 242.714 1112.93 244.636 Q1112.14 246.534 1110.03 249.126 Q1109.46 249.798 1106.35 253.015 Q1103.25 256.21 1097.6 261.973 Z" fill="#000000" fill-rule="nonzero" fill-opacity="1"></path><path clip-path="url(#clip330)" d="M1487.37 1423.18 L2352.76 1423.18 L2352.76 47.2441 L1487.37 47.2441  Z" fill="#ffffff" fill-rule="evenodd" fill-opacity="1"></path>
<defs>
  <clipPath id="clip333">
    <rect x="1487" y="47" width="866" height="1377"></rect>
  </clipPath>
</defs>
<polyline clip-path="url(#clip333)" style="stroke:#000000; stroke-linecap:round; stroke-linejoin:round; stroke-width:2; stroke-opacity:0.1; fill:none" points="1511.86,1423.18 1511.86,47.2441 "></polyline>
<polyline clip-path="url(#clip333)" style="stroke:#000000; stroke-linecap:round; stroke-linejoin:round; stroke-width:2; stroke-opacity:0.1; fill:none" points="1647.46,1423.18 1647.46,47.2441 "></polyline>
<polyline clip-path="url(#clip333)" style="stroke:#000000; stroke-linecap:round; stroke-linejoin:round; stroke-width:2; stroke-opacity:0.1; fill:none" points="1783.06,1423.18 1783.06,47.2441 "></polyline>
<polyline clip-path="url(#clip333)" style="stroke:#000000; stroke-linecap:round; stroke-linejoin:round; stroke-width:2; stroke-opacity:0.1; fill:none" points="1918.66,1423.18 1918.66,47.2441 "></polyline>
<polyline clip-path="url(#clip333)" style="stroke:#000000; stroke-linecap:round; stroke-linejoin:round; stroke-width:2; stroke-opacity:0.1; fill:none" points="2054.27,1423.18 2054.27,47.2441 "></polyline>
<polyline clip-path="url(#clip333)" style="stroke:#000000; stroke-linecap:round; stroke-linejoin:round; stroke-width:2; stroke-opacity:0.1; fill:none" points="2189.87,1423.18 2189.87,47.2441 "></polyline>
<polyline clip-path="url(#clip333)" style="stroke:#000000; stroke-linecap:round; stroke-linejoin:round; stroke-width:2; stroke-opacity:0.1; fill:none" points="2325.47,1423.18 2325.47,47.2441 "></polyline>
<polyline clip-path="url(#clip333)" style="stroke:#000000; stroke-linecap:round; stroke-linejoin:round; stroke-width:2; stroke-opacity:0.1; fill:none" points="1487.37,1167.75 2352.76,1167.75 "></polyline>
<polyline clip-path="url(#clip333)" style="stroke:#000000; stroke-linecap:round; stroke-linejoin:round; stroke-width:2; stroke-opacity:0.1; fill:none" points="1487.37,898.243 2352.76,898.243 "></polyline>
<polyline clip-path="url(#clip333)" style="stroke:#000000; stroke-linecap:round; stroke-linejoin:round; stroke-width:2; stroke-opacity:0.1; fill:none" points="1487.37,628.741 2352.76,628.741 "></polyline>
<polyline clip-path="url(#clip333)" style="stroke:#000000; stroke-linecap:round; stroke-linejoin:round; stroke-width:2; stroke-opacity:0.1; fill:none" points="1487.37,359.238 2352.76,359.238 "></polyline>
<polyline clip-path="url(#clip333)" style="stroke:#000000; stroke-linecap:round; stroke-linejoin:round; stroke-width:2; stroke-opacity:0.1; fill:none" points="1487.37,89.7359 2352.76,89.7359 "></polyline>
<polyline clip-path="url(#clip330)" style="stroke:#000000; stroke-linecap:round; stroke-linejoin:round; stroke-width:4; stroke-opacity:1; fill:none" points="1487.37,1423.18 2352.76,1423.18 "></polyline>
<polyline clip-path="url(#clip330)" style="stroke:#000000; stroke-linecap:round; stroke-linejoin:round; stroke-width:4; stroke-opacity:1; fill:none" points="1511.86,1423.18 1511.86,1404.28 "></polyline>
<polyline clip-path="url(#clip330)" style="stroke:#000000; stroke-linecap:round; stroke-linejoin:round; stroke-width:4; stroke-opacity:1; fill:none" points="1647.46,1423.18 1647.46,1404.28 "></polyline>
<polyline clip-path="url(#clip330)" style="stroke:#000000; stroke-linecap:round; stroke-linejoin:round; stroke-width:4; stroke-opacity:1; fill:none" points="1783.06,1423.18 1783.06,1404.28 "></polyline>
<polyline clip-path="url(#clip330)" style="stroke:#000000; stroke-linecap:round; stroke-linejoin:round; stroke-width:4; stroke-opacity:1; fill:none" points="1918.66,1423.18 1918.66,1404.28 "></polyline>
<polyline clip-path="url(#clip330)" style="stroke:#000000; stroke-linecap:round; stroke-linejoin:round; stroke-width:4; stroke-opacity:1; fill:none" points="2054.27,1423.18 2054.27,1404.28 "></polyline>
<polyline clip-path="url(#clip330)" style="stroke:#000000; stroke-linecap:round; stroke-linejoin:round; stroke-width:4; stroke-opacity:1; fill:none" points="2189.87,1423.18 2189.87,1404.28 "></polyline>
<polyline clip-path="url(#clip330)" style="stroke:#000000; stroke-linecap:round; stroke-linejoin:round; stroke-width:4; stroke-opacity:1; fill:none" points="2325.47,1423.18 2325.47,1404.28 "></polyline>
<path clip-path="url(#clip330)" d="M1483.1 1481.64 L1499.42 1481.64 L1499.42 1485.58 L1477.47 1485.58 L1477.47 1481.64 Q1480.13 1478.89 1484.72 1474.26 Q1489.32 1469.61 1490.5 1468.27 Q1492.75 1465.74 1493.63 1464.01 Q1494.53 1462.25 1494.53 1460.56 Q1494.53 1457.8 1492.59 1456.07 Q1490.67 1454.33 1487.56 1454.33 Q1485.37 1454.33 1482.91 1455.09 Q1480.48 1455.86 1477.7 1457.41 L1477.7 1452.69 Q1480.53 1451.55 1482.98 1450.97 Q1485.43 1450.39 1487.47 1450.39 Q1492.84 1450.39 1496.04 1453.08 Q1499.23 1455.77 1499.23 1460.26 Q1499.23 1462.39 1498.42 1464.31 Q1497.63 1466.2 1495.53 1468.8 Q1494.95 1469.47 1491.85 1472.69 Q1488.74 1475.88 1483.1 1481.64 Z" fill="#000000" fill-rule="nonzero" fill-opacity="1"></path><path clip-path="url(#clip330)" d="M1509.23 1479.7 L1514.12 1479.7 L1514.12 1485.58 L1509.23 1485.58 L1509.23 1479.7 Z" fill="#000000" fill-rule="nonzero" fill-opacity="1"></path><path clip-path="url(#clip330)" d="M1534.3 1454.1 Q1530.69 1454.1 1528.86 1457.66 Q1527.05 1461.2 1527.05 1468.33 Q1527.05 1475.44 1528.86 1479.01 Q1530.69 1482.55 1534.3 1482.55 Q1537.93 1482.55 1539.74 1479.01 Q1541.57 1475.44 1541.57 1468.33 Q1541.57 1461.2 1539.74 1457.66 Q1537.93 1454.1 1534.3 1454.1 M1534.3 1450.39 Q1540.11 1450.39 1543.17 1455 Q1546.24 1459.58 1546.24 1468.33 Q1546.24 1477.06 1543.17 1481.67 Q1540.11 1486.25 1534.3 1486.25 Q1528.49 1486.25 1525.41 1481.67 Q1522.36 1477.06 1522.36 1468.33 Q1522.36 1459.58 1525.41 1455 Q1528.49 1450.39 1534.3 1450.39 Z" fill="#000000" fill-rule="nonzero" fill-opacity="1"></path><path clip-path="url(#clip330)" d="M1619.31 1481.64 L1635.63 1481.64 L1635.63 1485.58 L1613.69 1485.58 L1613.69 1481.64 Q1616.35 1478.89 1620.93 1474.26 Q1625.54 1469.61 1626.72 1468.27 Q1628.96 1465.74 1629.84 1464.01 Q1630.75 1462.25 1630.75 1460.56 Q1630.75 1457.8 1628.8 1456.07 Q1626.88 1454.33 1623.78 1454.33 Q1621.58 1454.33 1619.13 1455.09 Q1616.7 1455.86 1613.92 1457.41 L1613.92 1452.69 Q1616.74 1451.55 1619.2 1450.97 Q1621.65 1450.39 1623.69 1450.39 Q1629.06 1450.39 1632.25 1453.08 Q1635.45 1455.77 1635.45 1460.26 Q1635.45 1462.39 1634.64 1464.31 Q1633.85 1466.2 1631.74 1468.8 Q1631.16 1469.47 1628.06 1472.69 Q1624.96 1475.88 1619.31 1481.64 Z" fill="#000000" fill-rule="nonzero" fill-opacity="1"></path><path clip-path="url(#clip330)" d="M1645.45 1479.7 L1650.33 1479.7 L1650.33 1485.58 L1645.45 1485.58 L1645.45 1479.7 Z" fill="#000000" fill-rule="nonzero" fill-opacity="1"></path><path clip-path="url(#clip330)" d="M1661.33 1481.64 L1668.96 1481.64 L1668.96 1455.28 L1660.65 1456.95 L1660.65 1452.69 L1668.92 1451.02 L1673.59 1451.02 L1673.59 1481.64 L1681.23 1481.64 L1681.23 1485.58 L1661.33 1485.58 L1661.33 1481.64 Z" fill="#000000" fill-rule="nonzero" fill-opacity="1"></path><path clip-path="url(#clip330)" d="M1755.1 1481.64 L1771.42 1481.64 L1771.42 1485.58 L1749.47 1485.58 L1749.47 1481.64 Q1752.14 1478.89 1756.72 1474.26 Q1761.33 1469.61 1762.51 1468.27 Q1764.75 1465.74 1765.63 1464.01 Q1766.53 1462.25 1766.53 1460.56 Q1766.53 1457.8 1764.59 1456.07 Q1762.67 1454.33 1759.57 1454.33 Q1757.37 1454.33 1754.91 1455.09 Q1752.48 1455.86 1749.71 1457.41 L1749.71 1452.69 Q1752.53 1451.55 1754.98 1450.97 Q1757.44 1450.39 1759.47 1450.39 Q1764.84 1450.39 1768.04 1453.08 Q1771.23 1455.77 1771.23 1460.26 Q1771.23 1462.39 1770.42 1464.31 Q1769.64 1466.2 1767.53 1468.8 Q1766.95 1469.47 1763.85 1472.69 Q1760.75 1475.88 1755.1 1481.64 Z" fill="#000000" fill-rule="nonzero" fill-opacity="1"></path><path clip-path="url(#clip330)" d="M1781.23 1479.7 L1786.12 1479.7 L1786.12 1485.58 L1781.23 1485.58 L1781.23 1479.7 Z" fill="#000000" fill-rule="nonzero" fill-opacity="1"></path><path clip-path="url(#clip330)" d="M1800.33 1481.64 L1816.65 1481.64 L1816.65 1485.58 L1794.71 1485.58 L1794.71 1481.64 Q1797.37 1478.89 1801.95 1474.26 Q1806.56 1469.61 1807.74 1468.27 Q1809.98 1465.74 1810.86 1464.01 Q1811.77 1462.25 1811.77 1460.56 Q1811.77 1457.8 1809.82 1456.07 Q1807.9 1454.33 1804.8 1454.33 Q1802.6 1454.33 1800.15 1455.09 Q1797.71 1455.86 1794.94 1457.41 L1794.94 1452.69 Q1797.76 1451.55 1800.21 1450.97 Q1802.67 1450.39 1804.71 1450.39 Q1810.08 1450.39 1813.27 1453.08 Q1816.46 1455.77 1816.46 1460.26 Q1816.46 1462.39 1815.65 1464.31 Q1814.87 1466.2 1812.76 1468.8 Q1812.18 1469.47 1809.08 1472.69 Q1805.98 1475.88 1800.33 1481.64 Z" fill="#000000" fill-rule="nonzero" fill-opacity="1"></path><path clip-path="url(#clip330)" d="M1890.23 1481.64 L1906.55 1481.64 L1906.55 1485.58 L1884.6 1485.58 L1884.6 1481.64 Q1887.26 1478.89 1891.85 1474.26 Q1896.45 1469.61 1897.63 1468.27 Q1899.88 1465.74 1900.76 1464.01 Q1901.66 1462.25 1901.66 1460.56 Q1901.66 1457.8 1899.72 1456.07 Q1897.8 1454.33 1894.69 1454.33 Q1892.5 1454.33 1890.04 1455.09 Q1887.61 1455.86 1884.83 1457.41 L1884.83 1452.69 Q1887.66 1451.55 1890.11 1450.97 Q1892.56 1450.39 1894.6 1450.39 Q1899.97 1450.39 1903.17 1453.08 Q1906.36 1455.77 1906.36 1460.26 Q1906.36 1462.39 1905.55 1464.31 Q1904.76 1466.2 1902.66 1468.8 Q1902.08 1469.47 1898.98 1472.69 Q1895.87 1475.88 1890.23 1481.64 Z" fill="#000000" fill-rule="nonzero" fill-opacity="1"></path><path clip-path="url(#clip330)" d="M1916.36 1479.7 L1921.25 1479.7 L1921.25 1485.58 L1916.36 1485.58 L1916.36 1479.7 Z" fill="#000000" fill-rule="nonzero" fill-opacity="1"></path><path clip-path="url(#clip330)" d="M1945.6 1466.95 Q1948.95 1467.66 1950.83 1469.93 Q1952.73 1472.2 1952.73 1475.53 Q1952.73 1480.65 1949.21 1483.45 Q1945.69 1486.25 1939.21 1486.25 Q1937.03 1486.25 1934.72 1485.81 Q1932.43 1485.39 1929.97 1484.54 L1929.97 1480.02 Q1931.92 1481.16 1934.23 1481.74 Q1936.55 1482.32 1939.07 1482.32 Q1943.47 1482.32 1945.76 1480.58 Q1948.07 1478.84 1948.07 1475.53 Q1948.07 1472.48 1945.92 1470.77 Q1943.79 1469.03 1939.97 1469.03 L1935.94 1469.03 L1935.94 1465.19 L1940.16 1465.19 Q1943.61 1465.19 1945.43 1463.82 Q1947.26 1462.43 1947.26 1459.84 Q1947.26 1457.18 1945.37 1455.77 Q1943.49 1454.33 1939.97 1454.33 Q1938.05 1454.33 1935.85 1454.75 Q1933.65 1455.16 1931.01 1456.04 L1931.01 1451.88 Q1933.68 1451.14 1935.99 1450.77 Q1938.33 1450.39 1940.39 1450.39 Q1945.71 1450.39 1948.81 1452.83 Q1951.92 1455.23 1951.92 1459.35 Q1951.92 1462.22 1950.27 1464.21 Q1948.63 1466.18 1945.6 1466.95 Z" fill="#000000" fill-rule="nonzero" fill-opacity="1"></path><path clip-path="url(#clip330)" d="M2025.26 1481.64 L2041.58 1481.64 L2041.58 1485.58 L2019.64 1485.58 L2019.64 1481.64 Q2022.3 1478.89 2026.88 1474.26 Q2031.49 1469.61 2032.67 1468.27 Q2034.91 1465.74 2035.79 1464.01 Q2036.7 1462.25 2036.7 1460.56 Q2036.7 1457.8 2034.75 1456.07 Q2032.83 1454.33 2029.73 1454.33 Q2027.53 1454.33 2025.08 1455.09 Q2022.65 1455.86 2019.87 1457.41 L2019.87 1452.69 Q2022.69 1451.55 2025.15 1450.97 Q2027.6 1450.39 2029.64 1450.39 Q2035.01 1450.39 2038.2 1453.08 Q2041.4 1455.77 2041.4 1460.26 Q2041.4 1462.39 2040.59 1464.31 Q2039.8 1466.2 2037.69 1468.8 Q2037.11 1469.47 2034.01 1472.69 Q2030.91 1475.88 2025.26 1481.64 Z" fill="#000000" fill-rule="nonzero" fill-opacity="1"></path><path clip-path="url(#clip330)" d="M2051.4 1479.7 L2056.28 1479.7 L2056.28 1485.58 L2051.4 1485.58 L2051.4 1479.7 Z" fill="#000000" fill-rule="nonzero" fill-opacity="1"></path><path clip-path="url(#clip330)" d="M2079.31 1455.09 L2067.51 1473.54 L2079.31 1473.54 L2079.31 1455.09 M2078.09 1451.02 L2083.97 1451.02 L2083.97 1473.54 L2088.9 1473.54 L2088.9 1477.43 L2083.97 1477.43 L2083.97 1485.58 L2079.31 1485.58 L2079.31 1477.43 L2063.71 1477.43 L2063.71 1472.92 L2078.09 1451.02 Z" fill="#000000" fill-rule="nonzero" fill-opacity="1"></path><path clip-path="url(#clip330)" d="M2161.6 1481.64 L2177.92 1481.64 L2177.92 1485.58 L2155.98 1485.58 L2155.98 1481.64 Q2158.64 1478.89 2163.22 1474.26 Q2167.83 1469.61 2169.01 1468.27 Q2171.26 1465.74 2172.14 1464.01 Q2173.04 1462.25 2173.04 1460.56 Q2173.04 1457.8 2171.1 1456.07 Q2169.17 1454.33 2166.07 1454.33 Q2163.87 1454.33 2161.42 1455.09 Q2158.99 1455.86 2156.21 1457.41 L2156.21 1452.69 Q2159.04 1451.55 2161.49 1450.97 Q2163.94 1450.39 2165.98 1450.39 Q2171.35 1450.39 2174.54 1453.08 Q2177.74 1455.77 2177.74 1460.26 Q2177.74 1462.39 2176.93 1464.31 Q2176.14 1466.2 2174.04 1468.8 Q2173.46 1469.47 2170.35 1472.69 Q2167.25 1475.88 2161.6 1481.64 Z" fill="#000000" fill-rule="nonzero" fill-opacity="1"></path><path clip-path="url(#clip330)" d="M2187.74 1479.7 L2192.62 1479.7 L2192.62 1485.58 L2187.74 1485.58 L2187.74 1479.7 Z" fill="#000000" fill-rule="nonzero" fill-opacity="1"></path><path clip-path="url(#clip330)" d="M2202.85 1451.02 L2221.21 1451.02 L2221.21 1454.96 L2207.14 1454.96 L2207.14 1463.43 Q2208.16 1463.08 2209.17 1462.92 Q2210.19 1462.73 2211.21 1462.73 Q2217 1462.73 2220.38 1465.9 Q2223.76 1469.08 2223.76 1474.49 Q2223.76 1480.07 2220.28 1483.17 Q2216.81 1486.25 2210.49 1486.25 Q2208.32 1486.25 2206.05 1485.88 Q2203.8 1485.51 2201.4 1484.77 L2201.4 1480.07 Q2203.48 1481.2 2205.7 1481.76 Q2207.92 1482.32 2210.4 1482.32 Q2214.41 1482.32 2216.74 1480.21 Q2219.08 1478.1 2219.08 1474.49 Q2219.08 1470.88 2216.74 1468.77 Q2214.41 1466.67 2210.4 1466.67 Q2208.53 1466.67 2206.65 1467.08 Q2204.8 1467.5 2202.85 1468.38 L2202.85 1451.02 Z" fill="#000000" fill-rule="nonzero" fill-opacity="1"></path><path clip-path="url(#clip330)" d="M2296.63 1481.64 L2312.95 1481.64 L2312.95 1485.58 L2291 1485.58 L2291 1481.64 Q2293.66 1478.89 2298.25 1474.26 Q2302.85 1469.61 2304.04 1468.27 Q2306.28 1465.74 2307.16 1464.01 Q2308.06 1462.25 2308.06 1460.56 Q2308.06 1457.8 2306.12 1456.07 Q2304.2 1454.33 2301.1 1454.33 Q2298.9 1454.33 2296.44 1455.09 Q2294.01 1455.86 2291.23 1457.41 L2291.23 1452.69 Q2294.06 1451.55 2296.51 1450.97 Q2298.97 1450.39 2301 1450.39 Q2306.37 1450.39 2309.57 1453.08 Q2312.76 1455.77 2312.76 1460.26 Q2312.76 1462.39 2311.95 1464.31 Q2311.16 1466.2 2309.06 1468.8 Q2308.48 1469.47 2305.38 1472.69 Q2302.28 1475.88 2296.63 1481.64 Z" fill="#000000" fill-rule="nonzero" fill-opacity="1"></path><path clip-path="url(#clip330)" d="M2322.76 1479.7 L2327.65 1479.7 L2327.65 1485.58 L2322.76 1485.58 L2322.76 1479.7 Z" fill="#000000" fill-rule="nonzero" fill-opacity="1"></path><path clip-path="url(#clip330)" d="M2348.41 1466.44 Q2345.26 1466.44 2343.41 1468.59 Q2341.58 1470.74 2341.58 1474.49 Q2341.58 1478.22 2343.41 1480.39 Q2345.26 1482.55 2348.41 1482.55 Q2351.56 1482.55 2353.39 1480.39 Q2355.24 1478.22 2355.24 1474.49 Q2355.24 1470.74 2353.39 1468.59 Q2351.56 1466.44 2348.41 1466.44 M2357.69 1451.78 L2357.69 1456.04 Q2355.93 1455.21 2354.13 1454.77 Q2352.35 1454.33 2350.59 1454.33 Q2345.96 1454.33 2343.5 1457.45 Q2341.07 1460.58 2340.72 1466.9 Q2342.09 1464.89 2344.15 1463.82 Q2346.21 1462.73 2348.69 1462.73 Q2353.9 1462.73 2356.91 1465.9 Q2359.94 1469.05 2359.94 1474.49 Q2359.94 1479.82 2356.79 1483.03 Q2353.64 1486.25 2348.41 1486.25 Q2342.41 1486.25 2339.24 1481.67 Q2336.07 1477.06 2336.07 1468.33 Q2336.07 1460.14 2339.96 1455.28 Q2343.85 1450.39 2350.4 1450.39 Q2352.16 1450.39 2353.94 1450.74 Q2355.75 1451.09 2357.69 1451.78 Z" fill="#000000" fill-rule="nonzero" fill-opacity="1"></path><path clip-path="url(#clip330)" d="M1757.89 1518.52 L1763.75 1518.52 L1763.75 1568.04 L1757.89 1568.04 L1757.89 1518.52 Z" fill="#000000" fill-rule="nonzero" fill-opacity="1"></path><path clip-path="url(#clip330)" d="M1789.82 1536.5 Q1785.11 1536.5 1782.37 1540.19 Q1779.63 1543.85 1779.63 1550.25 Q1779.63 1556.65 1782.34 1560.34 Q1785.08 1564 1789.82 1564 Q1794.5 1564 1797.23 1560.31 Q1799.97 1556.62 1799.97 1550.25 Q1799.97 1543.92 1797.23 1540.23 Q1794.5 1536.5 1789.82 1536.5 M1789.82 1531.54 Q1797.46 1531.54 1801.82 1536.5 Q1806.18 1541.47 1806.18 1550.25 Q1806.18 1559 1801.82 1564 Q1797.46 1568.97 1789.82 1568.97 Q1782.15 1568.97 1777.79 1564 Q1773.46 1559 1773.46 1550.25 Q1773.46 1541.47 1777.79 1536.5 Q1782.15 1531.54 1789.82 1531.54 Z" fill="#000000" fill-rule="nonzero" fill-opacity="1"></path><path clip-path="url(#clip330)" d="M1839.34 1549.81 Q1839.34 1543.44 1836.7 1539.94 Q1834.09 1536.44 1829.35 1536.44 Q1824.64 1536.44 1822 1539.94 Q1819.39 1543.44 1819.39 1549.81 Q1819.39 1556.14 1822 1559.64 Q1824.64 1563.14 1829.35 1563.14 Q1834.09 1563.14 1836.7 1559.64 Q1839.34 1556.14 1839.34 1549.81 M1845.2 1563.62 Q1845.2 1572.72 1841.16 1577.15 Q1837.12 1581.6 1828.78 1581.6 Q1825.69 1581.6 1822.95 1581.13 Q1820.21 1580.68 1817.64 1579.72 L1817.64 1574.03 Q1820.21 1575.43 1822.73 1576.1 Q1825.24 1576.76 1827.85 1576.76 Q1833.61 1576.76 1836.48 1573.74 Q1839.34 1570.75 1839.34 1564.67 L1839.34 1561.77 Q1837.53 1564.92 1834.7 1566.48 Q1831.86 1568.04 1827.92 1568.04 Q1821.36 1568.04 1817.35 1563.05 Q1813.34 1558.05 1813.34 1549.81 Q1813.34 1541.53 1817.35 1536.53 Q1821.36 1531.54 1827.92 1531.54 Q1831.86 1531.54 1834.7 1533.1 Q1837.53 1534.66 1839.34 1537.81 L1839.34 1532.4 L1845.2 1532.4 L1845.2 1563.62 Z" fill="#000000" fill-rule="nonzero" fill-opacity="1"></path><path clip-path="url(#clip330)" d="M1856.09 1564.54 L1862.58 1564.54 L1862.58 1545.1 L1855.48 1546.4 L1855.48 1542.71 L1862.8 1541.47 L1867.16 1541.47 L1867.16 1564.54 L1873.69 1564.54 L1873.69 1568.04 L1856.09 1568.04 L1856.09 1564.54 Z" fill="#000000" fill-rule="nonzero" fill-opacity="1"></path><path clip-path="url(#clip330)" d="M1895.39 1546.5 Q1893.8 1543.76 1890.59 1543.76 Q1887.37 1543.76 1885.78 1546.5 Q1884.16 1549.23 1884.16 1554.71 Q1884.16 1560.21 1885.78 1562.95 Q1887.37 1565.69 1890.59 1565.69 Q1893.8 1565.69 1895.39 1562.95 Q1897.02 1560.21 1897.02 1554.71 Q1897.02 1549.23 1895.39 1546.5 M1890.59 1540.93 Q1895.71 1540.93 1898.42 1544.46 Q1901.12 1547.99 1901.12 1554.71 Q1901.12 1561.46 1898.42 1564.99 Q1895.71 1568.52 1890.59 1568.52 Q1885.43 1568.52 1882.73 1564.99 Q1880.02 1561.46 1880.02 1554.71 Q1880.02 1547.99 1882.73 1544.46 Q1885.43 1540.93 1890.59 1540.93 Z" fill="#000000" fill-rule="nonzero" fill-opacity="1"></path><path clip-path="url(#clip330)" d="M1923.59 1518.58 Q1919.33 1525.9 1917.26 1533.06 Q1915.19 1540.23 1915.19 1547.58 Q1915.19 1554.93 1917.26 1562.16 Q1919.36 1569.35 1923.59 1576.64 L1918.5 1576.64 Q1913.73 1569.16 1911.34 1561.93 Q1908.98 1554.71 1908.98 1547.58 Q1908.98 1540.48 1911.34 1533.29 Q1913.7 1526.09 1918.5 1518.58 L1923.59 1518.58 Z" fill="#000000" fill-rule="nonzero" fill-opacity="1"></path><path clip-path="url(#clip330)" d="M1936.9 1562.63 L1947.4 1562.63 L1947.4 1526.38 L1935.98 1528.67 L1935.98 1522.82 L1947.34 1520.52 L1953.77 1520.52 L1953.77 1562.63 L1964.27 1562.63 L1964.27 1568.04 L1936.9 1568.04 L1936.9 1562.63 Z" fill="#000000" fill-rule="nonzero" fill-opacity="1"></path><path clip-path="url(#clip330)" d="M1986.84 1520.52 L1992.25 1520.52 L1975.7 1574.09 L1970.29 1574.09 L1986.84 1520.52 Z" fill="#000000" fill-rule="nonzero" fill-opacity="1"></path><path clip-path="url(#clip330)" d="M2014.53 1526.86 L2001.48 1562.7 L2027.61 1562.7 L2014.53 1526.86 M1992.76 1568.04 L2010.9 1520.52 L2018.19 1520.52 L2036.3 1568.04 L1992.76 1568.04 Z" fill="#000000" fill-rule="nonzero" fill-opacity="1"></path><path clip-path="url(#clip330)" d="M2048.78 1522.27 L2048.78 1532.4 L2060.84 1532.4 L2060.84 1536.95 L2048.78 1536.95 L2048.78 1556.3 Q2048.78 1560.66 2049.95 1561.9 Q2051.16 1563.14 2054.82 1563.14 L2060.84 1563.14 L2060.84 1568.04 L2054.82 1568.04 Q2048.04 1568.04 2045.47 1565.53 Q2042.89 1562.98 2042.89 1556.3 L2042.89 1536.95 L2038.59 1536.95 L2038.59 1532.4 L2042.89 1532.4 L2042.89 1522.27 L2048.78 1522.27 Z" fill="#000000" fill-rule="nonzero" fill-opacity="1"></path><path clip-path="url(#clip330)" d="M2067.62 1518.58 L2072.71 1518.58 Q2077.48 1526.09 2079.84 1533.29 Q2082.23 1540.48 2082.23 1547.58 Q2082.23 1554.71 2079.84 1561.93 Q2077.48 1569.16 2072.71 1576.64 L2067.62 1576.64 Q2071.85 1569.35 2073.92 1562.16 Q2076.02 1554.93 2076.02 1547.58 Q2076.02 1540.23 2073.92 1533.06 Q2071.85 1525.9 2067.62 1518.58 Z" fill="#000000" fill-rule="nonzero" fill-opacity="1"></path><polyline clip-path="url(#clip330)" style="stroke:#000000; stroke-linecap:round; stroke-linejoin:round; stroke-width:4; stroke-opacity:1; fill:none" points="1487.37,1423.18 1487.37,47.2441 "></polyline>
<polyline clip-path="url(#clip330)" style="stroke:#000000; stroke-linecap:round; stroke-linejoin:round; stroke-width:4; stroke-opacity:1; fill:none" points="1487.37,1167.75 1506.26,1167.75 "></polyline>
<polyline clip-path="url(#clip330)" style="stroke:#000000; stroke-linecap:round; stroke-linejoin:round; stroke-width:4; stroke-opacity:1; fill:none" points="1487.37,898.243 1506.26,898.243 "></polyline>
<polyline clip-path="url(#clip330)" style="stroke:#000000; stroke-linecap:round; stroke-linejoin:round; stroke-width:4; stroke-opacity:1; fill:none" points="1487.37,628.741 1506.26,628.741 "></polyline>
<polyline clip-path="url(#clip330)" style="stroke:#000000; stroke-linecap:round; stroke-linejoin:round; stroke-width:4; stroke-opacity:1; fill:none" points="1487.37,359.238 1506.26,359.238 "></polyline>
<polyline clip-path="url(#clip330)" style="stroke:#000000; stroke-linecap:round; stroke-linejoin:round; stroke-width:4; stroke-opacity:1; fill:none" points="1487.37,89.7359 1506.26,89.7359 "></polyline>
<path clip-path="url(#clip330)" d="M1314.26 1168.2 L1343.94 1168.2 L1343.94 1172.13 L1314.26 1172.13 L1314.26 1168.2 Z" fill="#000000" fill-rule="nonzero" fill-opacity="1"></path><path clip-path="url(#clip330)" d="M1358.06 1181.09 L1374.38 1181.09 L1374.38 1185.03 L1352.43 1185.03 L1352.43 1181.09 Q1355.09 1178.34 1359.68 1173.71 Q1364.28 1169.05 1365.46 1167.71 Q1367.71 1165.19 1368.59 1163.45 Q1369.49 1161.69 1369.49 1160 Q1369.49 1157.25 1367.55 1155.51 Q1365.63 1153.78 1362.52 1153.78 Q1360.32 1153.78 1357.87 1154.54 Q1355.44 1155.3 1352.66 1156.85 L1352.66 1152.13 Q1355.49 1151 1357.94 1150.42 Q1360.39 1149.84 1362.43 1149.84 Q1367.8 1149.84 1371 1152.53 Q1374.19 1155.21 1374.19 1159.7 Q1374.19 1161.83 1373.38 1163.75 Q1372.59 1165.65 1370.49 1168.24 Q1369.91 1168.91 1366.81 1172.13 Q1363.7 1175.33 1358.06 1181.09 Z" fill="#000000" fill-rule="nonzero" fill-opacity="1"></path><path clip-path="url(#clip330)" d="M1384.19 1179.15 L1389.07 1179.15 L1389.07 1185.03 L1384.19 1185.03 L1384.19 1179.15 Z" fill="#000000" fill-rule="nonzero" fill-opacity="1"></path><path clip-path="url(#clip330)" d="M1399.31 1150.47 L1417.66 1150.47 L1417.66 1154.4 L1403.59 1154.4 L1403.59 1162.87 Q1404.61 1162.53 1405.63 1162.36 Q1406.64 1162.18 1407.66 1162.18 Q1413.45 1162.18 1416.83 1165.35 Q1420.21 1168.52 1420.21 1173.94 Q1420.21 1179.52 1416.74 1182.62 Q1413.26 1185.7 1406.94 1185.7 Q1404.77 1185.7 1402.5 1185.33 Q1400.26 1184.96 1397.85 1184.22 L1397.85 1179.52 Q1399.93 1180.65 1402.15 1181.21 Q1404.38 1181.76 1406.85 1181.76 Q1410.86 1181.76 1413.19 1179.65 Q1415.53 1177.55 1415.53 1173.94 Q1415.53 1170.33 1413.19 1168.22 Q1410.86 1166.11 1406.85 1166.11 Q1404.98 1166.11 1403.1 1166.53 Q1401.25 1166.95 1399.31 1167.83 L1399.31 1150.47 Z" fill="#000000" fill-rule="nonzero" fill-opacity="1"></path><path clip-path="url(#clip330)" d="M1439.42 1153.54 Q1435.81 1153.54 1433.98 1157.11 Q1432.18 1160.65 1432.18 1167.78 Q1432.18 1174.89 1433.98 1178.45 Q1435.81 1181.99 1439.42 1181.99 Q1443.06 1181.99 1444.86 1178.45 Q1446.69 1174.89 1446.69 1167.78 Q1446.69 1160.65 1444.86 1157.11 Q1443.06 1153.54 1439.42 1153.54 M1439.42 1149.84 Q1445.23 1149.84 1448.29 1154.45 Q1451.37 1159.03 1451.37 1167.78 Q1451.37 1176.51 1448.29 1181.11 Q1445.23 1185.7 1439.42 1185.7 Q1433.61 1185.7 1430.53 1181.11 Q1427.48 1176.51 1427.48 1167.78 Q1427.48 1159.03 1430.53 1154.45 Q1433.61 1149.84 1439.42 1149.84 Z" fill="#000000" fill-rule="nonzero" fill-opacity="1"></path><path clip-path="url(#clip330)" d="M1315.26 898.694 L1344.93 898.694 L1344.93 902.629 L1315.26 902.629 L1315.26 898.694 Z" fill="#000000" fill-rule="nonzero" fill-opacity="1"></path><path clip-path="url(#clip330)" d="M1359.05 911.588 L1375.37 911.588 L1375.37 915.523 L1353.43 915.523 L1353.43 911.588 Q1356.09 908.833 1360.67 904.204 Q1365.28 899.551 1366.46 898.208 Q1368.7 895.685 1369.58 893.949 Q1370.49 892.19 1370.49 890.5 Q1370.49 887.745 1368.54 886.009 Q1366.62 884.273 1363.52 884.273 Q1361.32 884.273 1358.87 885.037 Q1356.44 885.801 1353.66 887.352 L1353.66 882.63 Q1356.48 881.495 1358.94 880.917 Q1361.39 880.338 1363.43 880.338 Q1368.8 880.338 1371.99 883.023 Q1375.19 885.708 1375.19 890.199 Q1375.19 892.329 1374.38 894.25 Q1373.59 896.148 1371.48 898.741 Q1370.9 899.412 1367.8 902.629 Q1364.7 905.824 1359.05 911.588 Z" fill="#000000" fill-rule="nonzero" fill-opacity="1"></path><path clip-path="url(#clip330)" d="M1385.19 909.643 L1390.07 909.643 L1390.07 915.523 L1385.19 915.523 L1385.19 909.643 Z" fill="#000000" fill-rule="nonzero" fill-opacity="1"></path><path clip-path="url(#clip330)" d="M1404.28 911.588 L1420.6 911.588 L1420.6 915.523 L1398.66 915.523 L1398.66 911.588 Q1401.32 908.833 1405.9 904.204 Q1410.51 899.551 1411.69 898.208 Q1413.94 895.685 1414.82 893.949 Q1415.72 892.19 1415.72 890.5 Q1415.72 887.745 1413.77 886.009 Q1411.85 884.273 1408.75 884.273 Q1406.55 884.273 1404.1 885.037 Q1401.67 885.801 1398.89 887.352 L1398.89 882.63 Q1401.71 881.495 1404.17 880.917 Q1406.62 880.338 1408.66 880.338 Q1414.03 880.338 1417.22 883.023 Q1420.42 885.708 1420.42 890.199 Q1420.42 892.329 1419.61 894.25 Q1418.82 896.148 1416.71 898.741 Q1416.13 899.412 1413.03 902.629 Q1409.93 905.824 1404.28 911.588 Z" fill="#000000" fill-rule="nonzero" fill-opacity="1"></path><path clip-path="url(#clip330)" d="M1430.46 880.963 L1448.82 880.963 L1448.82 884.898 L1434.75 884.898 L1434.75 893.37 Q1435.76 893.023 1436.78 892.861 Q1437.8 892.676 1438.82 892.676 Q1444.61 892.676 1447.99 895.847 Q1451.37 899.018 1451.37 904.435 Q1451.37 910.014 1447.89 913.116 Q1444.42 916.194 1438.1 916.194 Q1435.93 916.194 1433.66 915.824 Q1431.41 915.453 1429 914.713 L1429 910.014 Q1431.09 911.148 1433.31 911.703 Q1435.53 912.259 1438.01 912.259 Q1442.01 912.259 1444.35 910.153 Q1446.69 908.046 1446.69 904.435 Q1446.69 900.824 1444.35 898.717 Q1442.01 896.611 1438.01 896.611 Q1436.13 896.611 1434.26 897.028 Q1432.41 897.444 1430.46 898.324 L1430.46 880.963 Z" fill="#000000" fill-rule="nonzero" fill-opacity="1"></path><path clip-path="url(#clip330)" d="M1314.26 629.192 L1343.94 629.192 L1343.94 633.127 L1314.26 633.127 L1314.26 629.192 Z" fill="#000000" fill-rule="nonzero" fill-opacity="1"></path><path clip-path="url(#clip330)" d="M1358.06 642.085 L1374.38 642.085 L1374.38 646.021 L1352.43 646.021 L1352.43 642.085 Q1355.09 639.331 1359.68 634.701 Q1364.28 630.048 1365.46 628.706 Q1367.71 626.183 1368.59 624.447 Q1369.49 622.687 1369.49 620.998 Q1369.49 618.243 1367.55 616.507 Q1365.63 614.771 1362.52 614.771 Q1360.32 614.771 1357.87 615.535 Q1355.44 616.298 1352.66 617.849 L1352.66 613.127 Q1355.49 611.993 1357.94 611.414 Q1360.39 610.836 1362.43 610.836 Q1367.8 610.836 1371 613.521 Q1374.19 616.206 1374.19 620.697 Q1374.19 622.826 1373.38 624.748 Q1372.59 626.646 1370.49 629.238 Q1369.91 629.91 1366.81 633.127 Q1363.7 636.322 1358.06 642.085 Z" fill="#000000" fill-rule="nonzero" fill-opacity="1"></path><path clip-path="url(#clip330)" d="M1384.19 640.141 L1389.07 640.141 L1389.07 646.021 L1384.19 646.021 L1384.19 640.141 Z" fill="#000000" fill-rule="nonzero" fill-opacity="1"></path><path clip-path="url(#clip330)" d="M1409.26 614.539 Q1405.65 614.539 1403.82 618.104 Q1402.01 621.646 1402.01 628.775 Q1402.01 635.882 1403.82 639.447 Q1405.65 642.988 1409.26 642.988 Q1412.89 642.988 1414.7 639.447 Q1416.53 635.882 1416.53 628.775 Q1416.53 621.646 1414.7 618.104 Q1412.89 614.539 1409.26 614.539 M1409.26 610.836 Q1415.07 610.836 1418.13 615.442 Q1421.2 620.025 1421.2 628.775 Q1421.2 637.502 1418.13 642.109 Q1415.07 646.692 1409.26 646.692 Q1403.45 646.692 1400.37 642.109 Q1397.32 637.502 1397.32 628.775 Q1397.32 620.025 1400.37 615.442 Q1403.45 610.836 1409.26 610.836 Z" fill="#000000" fill-rule="nonzero" fill-opacity="1"></path><path clip-path="url(#clip330)" d="M1439.42 614.539 Q1435.81 614.539 1433.98 618.104 Q1432.18 621.646 1432.18 628.775 Q1432.18 635.882 1433.98 639.447 Q1435.81 642.988 1439.42 642.988 Q1443.06 642.988 1444.86 639.447 Q1446.69 635.882 1446.69 628.775 Q1446.69 621.646 1444.86 618.104 Q1443.06 614.539 1439.42 614.539 M1439.42 610.836 Q1445.23 610.836 1448.29 615.442 Q1451.37 620.025 1451.37 628.775 Q1451.37 637.502 1448.29 642.109 Q1445.23 646.692 1439.42 646.692 Q1433.61 646.692 1430.53 642.109 Q1427.48 637.502 1427.48 628.775 Q1427.48 620.025 1430.53 615.442 Q1433.61 610.836 1439.42 610.836 Z" fill="#000000" fill-rule="nonzero" fill-opacity="1"></path><path clip-path="url(#clip330)" d="M1315.26 359.69 L1344.93 359.69 L1344.93 363.625 L1315.26 363.625 L1315.26 359.69 Z" fill="#000000" fill-rule="nonzero" fill-opacity="1"></path><path clip-path="url(#clip330)" d="M1355.83 372.583 L1363.47 372.583 L1363.47 346.217 L1355.16 347.884 L1355.16 343.625 L1363.43 341.958 L1368.1 341.958 L1368.1 372.583 L1375.74 372.583 L1375.74 376.518 L1355.83 376.518 L1355.83 372.583 Z" fill="#000000" fill-rule="nonzero" fill-opacity="1"></path><path clip-path="url(#clip330)" d="M1385.19 370.639 L1390.07 370.639 L1390.07 376.518 L1385.19 376.518 L1385.19 370.639 Z" fill="#000000" fill-rule="nonzero" fill-opacity="1"></path><path clip-path="url(#clip330)" d="M1399.07 341.958 L1421.3 341.958 L1421.3 343.949 L1408.75 376.518 L1403.87 376.518 L1415.67 345.893 L1399.07 345.893 L1399.07 341.958 Z" fill="#000000" fill-rule="nonzero" fill-opacity="1"></path><path clip-path="url(#clip330)" d="M1430.46 341.958 L1448.82 341.958 L1448.82 345.893 L1434.75 345.893 L1434.75 354.366 Q1435.76 354.018 1436.78 353.856 Q1437.8 353.671 1438.82 353.671 Q1444.61 353.671 1447.99 356.842 Q1451.37 360.014 1451.37 365.43 Q1451.37 371.009 1447.89 374.111 Q1444.42 377.19 1438.1 377.19 Q1435.93 377.19 1433.66 376.819 Q1431.41 376.449 1429 375.708 L1429 371.009 Q1431.09 372.143 1433.31 372.699 Q1435.53 373.254 1438.01 373.254 Q1442.01 373.254 1444.35 371.148 Q1446.69 369.041 1446.69 365.43 Q1446.69 361.819 1444.35 359.713 Q1442.01 357.606 1438.01 357.606 Q1436.13 357.606 1434.26 358.023 Q1432.41 358.44 1430.46 359.319 L1430.46 341.958 Z" fill="#000000" fill-rule="nonzero" fill-opacity="1"></path><path clip-path="url(#clip330)" d="M1314.26 90.1873 L1343.94 90.1873 L1343.94 94.1224 L1314.26 94.1224 L1314.26 90.1873 Z" fill="#000000" fill-rule="nonzero" fill-opacity="1"></path><path clip-path="url(#clip330)" d="M1354.84 103.081 L1362.48 103.081 L1362.48 76.7151 L1354.17 78.3818 L1354.17 74.1225 L1362.43 72.4559 L1367.11 72.4559 L1367.11 103.081 L1374.75 103.081 L1374.75 107.016 L1354.84 107.016 L1354.84 103.081 Z" fill="#000000" fill-rule="nonzero" fill-opacity="1"></path><path clip-path="url(#clip330)" d="M1384.19 101.136 L1389.07 101.136 L1389.07 107.016 L1384.19 107.016 L1384.19 101.136 Z" fill="#000000" fill-rule="nonzero" fill-opacity="1"></path><path clip-path="url(#clip330)" d="M1399.31 72.4559 L1417.66 72.4559 L1417.66 76.3911 L1403.59 76.3911 L1403.59 84.8632 Q1404.61 84.516 1405.63 84.354 Q1406.64 84.1688 1407.66 84.1688 Q1413.45 84.1688 1416.83 87.3401 Q1420.21 90.5113 1420.21 95.928 Q1420.21 101.507 1416.74 104.608 Q1413.26 107.687 1406.94 107.687 Q1404.77 107.687 1402.5 107.317 Q1400.26 106.946 1397.85 106.206 L1397.85 101.507 Q1399.93 102.641 1402.15 103.196 Q1404.38 103.752 1406.85 103.752 Q1410.86 103.752 1413.19 101.646 Q1415.53 99.5391 1415.53 95.928 Q1415.53 92.3169 1413.19 90.2104 Q1410.86 88.104 1406.85 88.104 Q1404.98 88.104 1403.1 88.5206 Q1401.25 88.9373 1399.31 89.8169 L1399.31 72.4559 Z" fill="#000000" fill-rule="nonzero" fill-opacity="1"></path><path clip-path="url(#clip330)" d="M1439.42 75.5346 Q1435.81 75.5346 1433.98 79.0994 Q1432.18 82.641 1432.18 89.7706 Q1432.18 96.8771 1433.98 100.442 Q1435.81 103.983 1439.42 103.983 Q1443.06 103.983 1444.86 100.442 Q1446.69 96.8771 1446.69 89.7706 Q1446.69 82.641 1444.86 79.0994 Q1443.06 75.5346 1439.42 75.5346 M1439.42 71.8309 Q1445.23 71.8309 1448.29 76.4373 Q1451.37 81.0207 1451.37 89.7706 Q1451.37 98.4974 1448.29 103.104 Q1445.23 107.687 1439.42 107.687 Q1433.61 107.687 1430.53 103.104 Q1427.48 98.4974 1427.48 89.7706 Q1427.48 81.0207 1430.53 76.4373 Q1433.61 71.8309 1439.42 71.8309 Z" fill="#000000" fill-rule="nonzero" fill-opacity="1"></path><path clip-path="url(#clip330)" d="M1214.48 892.031 L1214.48 886.175 L1264 886.175 L1264 892.031 L1214.48 892.031 Z" fill="#000000" fill-rule="nonzero" fill-opacity="1"></path><path clip-path="url(#clip330)" d="M1232.46 860.107 Q1232.46 864.818 1236.15 867.555 Q1239.81 870.292 1246.21 870.292 Q1252.61 870.292 1256.3 867.587 Q1259.96 864.85 1259.96 860.107 Q1259.96 855.428 1256.27 852.691 Q1252.58 849.954 1246.21 849.954 Q1239.88 849.954 1236.19 852.691 Q1232.46 855.428 1232.46 860.107 M1227.5 860.107 Q1227.5 852.468 1232.46 848.108 Q1237.43 843.747 1246.21 843.747 Q1254.96 843.747 1259.96 848.108 Q1264.93 852.468 1264.93 860.107 Q1264.93 867.778 1259.96 872.138 Q1254.96 876.467 1246.21 876.467 Q1237.43 876.467 1232.46 872.138 Q1227.5 867.778 1227.5 860.107 Z" fill="#000000" fill-rule="nonzero" fill-opacity="1"></path><path clip-path="url(#clip330)" d="M1245.77 810.582 Q1239.4 810.582 1235.9 813.224 Q1232.4 815.834 1232.4 820.576 Q1232.4 825.287 1235.9 827.928 Q1239.4 830.538 1245.77 830.538 Q1252.1 830.538 1255.6 827.928 Q1259.1 825.287 1259.1 820.576 Q1259.1 815.834 1255.6 813.224 Q1252.1 810.582 1245.77 810.582 M1259.58 804.725 Q1268.68 804.725 1273.11 808.768 Q1277.56 812.81 1277.56 821.149 Q1277.56 824.236 1277.09 826.974 Q1276.64 829.711 1275.69 832.289 L1269.99 832.289 Q1271.39 829.711 1272.06 827.196 Q1272.73 824.682 1272.73 822.072 Q1272.73 816.311 1269.7 813.447 Q1266.71 810.582 1260.63 810.582 L1257.73 810.582 Q1260.88 812.396 1262.44 815.229 Q1264 818.062 1264 822.008 Q1264 828.565 1259.01 832.575 Q1254.01 836.586 1245.77 836.586 Q1237.49 836.586 1232.49 832.575 Q1227.5 828.565 1227.5 822.008 Q1227.5 818.062 1229.06 815.229 Q1230.62 812.396 1233.77 810.582 L1228.36 810.582 L1228.36 804.725 L1259.58 804.725 Z" fill="#000000" fill-rule="nonzero" fill-opacity="1"></path><path clip-path="url(#clip330)" d="M1258.59 790.721 L1258.59 780.218 L1222.34 780.218 L1224.63 791.644 L1218.78 791.644 L1216.48 780.281 L1216.48 773.852 L1258.59 773.852 L1258.59 763.348 L1264 763.348 L1264 790.721 L1258.59 790.721 Z" fill="#000000" fill-rule="nonzero" fill-opacity="1"></path><path clip-path="url(#clip330)" d="M1260.5 752.368 L1260.5 745.875 L1241.06 745.875 L1242.36 752.972 L1238.67 752.972 L1237.43 745.652 L1237.43 741.291 L1260.5 741.291 L1260.5 734.766 L1264 734.766 L1264 752.368 L1260.5 752.368 Z" fill="#000000" fill-rule="nonzero" fill-opacity="1"></path><path clip-path="url(#clip330)" d="M1242.46 713.059 Q1239.72 714.651 1239.72 717.865 Q1239.72 721.08 1242.46 722.672 Q1245.19 724.295 1250.67 724.295 Q1256.17 724.295 1258.91 722.672 Q1261.65 721.08 1261.65 717.865 Q1261.65 714.651 1258.91 713.059 Q1256.17 711.436 1250.67 711.436 Q1245.19 711.436 1242.46 713.059 M1236.89 717.865 Q1236.89 712.741 1240.42 710.036 Q1243.95 707.33 1250.67 707.33 Q1257.42 707.33 1260.95 710.036 Q1264.48 712.741 1264.48 717.865 Q1264.48 723.022 1260.95 725.727 Q1257.42 728.432 1250.67 728.432 Q1243.95 728.432 1240.42 725.727 Q1236.89 723.022 1236.89 717.865 Z" fill="#000000" fill-rule="nonzero" fill-opacity="1"></path><path clip-path="url(#clip330)" d="M1214.54 684.859 Q1221.86 689.124 1229.02 691.193 Q1236.19 693.262 1243.54 693.262 Q1250.89 693.262 1258.12 691.193 Q1265.31 689.092 1272.6 684.859 L1272.6 689.952 Q1265.12 694.726 1257.89 697.113 Q1250.67 699.469 1243.54 699.469 Q1236.44 699.469 1229.25 697.113 Q1222.05 694.758 1214.54 689.952 L1214.54 684.859 Z" fill="#000000" fill-rule="nonzero" fill-opacity="1"></path><path clip-path="url(#clip330)" d="M1234.02 648.32 Q1233.61 649.498 1233.29 650.675 Q1232.46 653.826 1232.46 657.2 Q1232.46 663.025 1235.61 666.271 Q1238.54 669.295 1243.92 669.868 L1243.92 648.32 L1248.5 648.32 L1248.5 669.868 Q1253.88 669.295 1256.81 666.271 Q1259.96 663.025 1259.96 657.2 Q1259.96 653.126 1259.13 650.675 L1258.34 648.32 L1263.65 648.32 L1264.23 650.835 Q1264.93 654.145 1264.93 657.55 Q1264.93 666.08 1259.96 671.046 Q1255 676.043 1246.21 676.043 Q1237.43 676.043 1232.46 671.046 Q1227.5 666.08 1227.5 657.55 Q1227.5 654.336 1228.2 650.835 Q1228.45 649.561 1228.83 648.32 L1234.02 648.32 Z" fill="#000000" fill-rule="nonzero" fill-opacity="1"></path><path clip-path="url(#clip330)" d="M1249.94 633.997 L1228.36 633.997 L1228.36 628.141 L1249.71 628.141 Q1254.77 628.141 1257.32 626.167 Q1259.83 624.194 1259.83 620.247 Q1259.83 615.505 1256.81 612.768 Q1253.79 609.999 1248.57 609.999 L1228.36 609.999 L1228.36 604.142 L1264 604.142 L1264 609.999 L1258.53 609.999 Q1261.78 612.131 1263.37 614.964 Q1264.93 617.765 1264.93 621.489 Q1264.93 627.632 1261.11 630.814 Q1257.29 633.997 1249.94 633.997 M1227.5 619.261 L1227.5 619.261 Z" fill="#000000" fill-rule="nonzero" fill-opacity="1"></path><path clip-path="url(#clip330)" d="M1214.54 593.002 L1214.54 587.91 Q1222.05 583.135 1229.25 580.78 Q1236.44 578.393 1243.54 578.393 Q1250.67 578.393 1257.89 580.78 Q1265.12 583.135 1272.6 587.91 L1272.6 593.002 Q1265.31 588.769 1258.12 586.7 Q1250.89 584.599 1243.54 584.599 Q1236.19 584.599 1229.02 586.7 Q1221.86 588.769 1214.54 593.002 Z" fill="#000000" fill-rule="nonzero" fill-opacity="1"></path><circle clip-path="url(#clip333)" cx="1511.86" cy="86.1857" r="14.4" fill="#009af9" fill-rule="evenodd" fill-opacity="1" stroke="#000000" stroke-opacity="1" stroke-width="3.2"></circle>
<circle clip-path="url(#clip333)" cx="1920.06" cy="400.762" r="14.4" fill="#009af9" fill-rule="evenodd" fill-opacity="1" stroke="#000000" stroke-opacity="1" stroke-width="3.2"></circle>
<circle clip-path="url(#clip333)" cx="2328.26" cy="720.595" r="14.4" fill="#009af9" fill-rule="evenodd" fill-opacity="1" stroke="#000000" stroke-opacity="1" stroke-width="3.2"></circle>
<polyline clip-path="url(#clip333)" style="stroke:#e26f46; stroke-linecap:round; stroke-linejoin:round; stroke-width:4; stroke-opacity:1; fill:none" points="1511.86,86.1857 1920.06,410.699 2328.26,735.212 "></polyline>
<polyline clip-path="url(#clip333)" style="stroke:#3da44d; stroke-linecap:round; stroke-linejoin:round; stroke-width:4; stroke-opacity:1; fill:none" points="1511.86,86.1857 1920.06,735.212 2328.26,1384.24 "></polyline>
<path clip-path="url(#clip330)" d="M2176.93 300.469 L2323.91 300.469 L2323.91 93.1086 L2176.93 93.1086  Z" fill="#ffffff" fill-rule="evenodd" fill-opacity="1"></path>
<polyline clip-path="url(#clip330)" style="stroke:#000000; stroke-linecap:round; stroke-linejoin:round; stroke-width:4; stroke-opacity:1; fill:none" points="2176.93,300.469 2323.91,300.469 2323.91,93.1086 2176.93,93.1086 2176.93,300.469 "></polyline>
<circle clip-path="url(#clip330)" cx="2215.39" cy="144.949" r="20.48" fill="#009af9" fill-rule="evenodd" fill-opacity="1" stroke="#000000" stroke-opacity="1" stroke-width="4.55111"></circle>
<path clip-path="url(#clip330)" d="M2274.02 140.423 Q2273.16 140.122 2272.3 139.891 Q2270.01 139.289 2267.56 139.289 Q2263.32 139.289 2260.96 141.581 Q2258.76 143.71 2258.35 147.622 L2274.02 147.622 L2274.02 150.956 L2258.35 150.956 Q2258.76 154.868 2260.96 156.997 Q2263.32 159.289 2267.56 159.289 Q2270.52 159.289 2272.3 158.687 L2274.02 158.108 L2274.02 161.974 L2272.19 162.391 Q2269.78 162.9 2267.3 162.9 Q2261.1 162.9 2257.49 159.289 Q2253.85 155.678 2253.85 149.289 Q2253.85 142.9 2257.49 139.289 Q2261.1 135.678 2267.3 135.678 Q2269.64 135.678 2272.19 136.187 Q2273.11 136.372 2274.02 136.65 L2274.02 140.423 Z" fill="#000000" fill-rule="nonzero" fill-opacity="1"></path><polyline clip-path="url(#clip330)" style="stroke:#e26f46; stroke-linecap:round; stroke-linejoin:round; stroke-width:4; stroke-opacity:1; fill:none" points="2186.55,196.789 2244.24,196.789 "></polyline>
<path clip-path="url(#clip330)" d="M2269.87 182.68 Q2264.78 182.68 2261.77 186.476 Q2258.79 190.272 2258.79 196.823 Q2258.79 203.351 2261.77 207.147 Q2264.78 210.944 2269.87 210.944 Q2274.97 210.944 2277.93 207.147 Q2280.91 203.351 2280.91 196.823 Q2280.91 190.272 2277.93 186.476 Q2274.97 182.68 2269.87 182.68 M2269.87 178.884 Q2277.14 178.884 2281.49 183.768 Q2285.85 188.629 2285.85 196.823 Q2285.85 204.995 2281.49 209.879 Q2277.14 214.74 2269.87 214.74 Q2262.58 214.74 2258.21 209.879 Q2253.85 205.018 2253.85 196.823 Q2253.85 188.629 2258.21 183.768 Q2262.58 178.884 2269.87 178.884 Z" fill="#000000" fill-rule="nonzero" fill-opacity="1"></path><path clip-path="url(#clip330)" d="M2294.39 210.133 L2302.03 210.133 L2302.03 183.768 L2293.72 185.435 L2293.72 181.175 L2301.98 179.509 L2306.66 179.509 L2306.66 210.133 L2314.29 210.133 L2314.29 214.069 L2294.39 214.069 L2294.39 210.133 Z" fill="#000000" fill-rule="nonzero" fill-opacity="1"></path><polyline clip-path="url(#clip330)" style="stroke:#3da44d; stroke-linecap:round; stroke-linejoin:round; stroke-width:4; stroke-opacity:1; fill:none" points="2186.55,248.629 2244.24,248.629 "></polyline>
<path clip-path="url(#clip330)" d="M2269.87 234.52 Q2264.78 234.52 2261.77 238.316 Q2258.79 242.112 2258.79 248.663 Q2258.79 255.191 2261.77 258.987 Q2264.78 262.784 2269.87 262.784 Q2274.97 262.784 2277.93 258.987 Q2280.91 255.191 2280.91 248.663 Q2280.91 242.112 2277.93 238.316 Q2274.97 234.52 2269.87 234.52 M2269.87 230.724 Q2277.14 230.724 2281.49 235.608 Q2285.85 240.469 2285.85 248.663 Q2285.85 256.835 2281.49 261.719 Q2277.14 266.58 2269.87 266.58 Q2262.58 266.58 2258.21 261.719 Q2253.85 256.858 2253.85 248.663 Q2253.85 240.469 2258.21 235.608 Q2262.58 230.724 2269.87 230.724 Z" fill="#000000" fill-rule="nonzero" fill-opacity="1"></path><path clip-path="url(#clip330)" d="M2297.6 261.973 L2313.92 261.973 L2313.92 265.909 L2291.98 265.909 L2291.98 261.973 Q2294.64 259.219 2299.22 254.589 Q2303.83 249.936 2305.01 248.594 Q2307.26 246.071 2308.14 244.335 Q2309.04 242.575 2309.04 240.886 Q2309.04 238.131 2307.1 236.395 Q2305.17 234.659 2302.07 234.659 Q2299.87 234.659 2297.42 235.423 Q2294.99 236.187 2292.21 237.737 L2292.21 233.015 Q2295.03 231.881 2297.49 231.302 Q2299.94 230.724 2301.98 230.724 Q2307.35 230.724 2310.54 233.409 Q2313.74 236.094 2313.74 240.585 Q2313.74 242.714 2312.93 244.636 Q2312.14 246.534 2310.03 249.126 Q2309.46 249.798 2306.35 253.015 Q2303.25 256.21 2297.6 261.973 Z" fill="#000000" fill-rule="nonzero" fill-opacity="1"></path></svg>